<svg width="1604" height="2188" viewBox="0 0 1604 2188" fill="none" xmlns="http://www.w3.org/2000/svg">
<path d="M730.969 1.00525C743.852 4.05865 758.257 5.36438 769.006 11.2958C832.088 46.1021 885.191 94.5354 940.664 139.177C1005.01 190.96 1062.03 252.014 1124.22 306.535C1153.68 332.361 1185.25 355.466 1214.25 381.871C1220.42 387.483 1229.86 390.292 1234.04 398.439C1234.43 399.197 1231.9 398.744 1230.75 399.01C1223.13 400.782 1214.43 404.16 1206.08 407.119C1164.21 421.958 1124.59 433.636 1091.99 434.099C1046.5 434.746 1013.6 416.198 980.368 400.039C970.015 395.006 960.436 388.982 950.414 383.517C947.475 381.915 943.559 376.809 937.302 379.559C925.352 384.813 946.835 389.842 952.295 394.1C1011.64 440.379 1072.05 485.28 1135.29 526.546C1168.31 548.098 1202.92 567.766 1232.75 593.435C1264.51 620.756 1290.86 655.093 1319.88 685.881C1322.22 688.366 1342.86 697.084 1320.06 707.106C1300.59 715.664 1280.73 725.034 1261.93 732.425C1233.83 743.478 1206.82 753.104 1180.51 761.231C1160.35 767.459 1136.86 778.987 1117.53 783.908C1116.1 784.273 1101.51 787.089 1103 787.676C1117.69 793.436 1136.1 795.036 1152.17 798.954C1184.47 806.833 1224.38 804.018 1257.66 810.565C1312.26 821.307 1354.21 847.904 1394.49 877.67C1430.89 904.572 1466.54 932.404 1503.59 958.478C1524.23 973.007 1554.13 979.146 1567.19 1003.23C1571.41 1011.01 1545.2 1026.06 1538.94 1030.2C1502.94 1054.04 1473.92 1066.48 1447.87 1072.85C1407.91 1082.62 1370.4 1088.32 1332.29 1095.25C1329.48 1095.76 1317.17 1097.1 1321.87 1102.51C1331.9 1114.04 1349.76 1116.32 1363.62 1122.81C1451.27 1163.86 1525.78 1222.1 1603.43 1276.21M381.642 620.841C347.849 625.644 310.099 636.97 279.009 637.665C240.832 638.517 202.131 640.369 165.922 638.359C148.856 637.412 130.695 640.076 110.138 644.427C104.136 645.697 106.869 655.137 106.891 655.285C111.312 685.092 134.788 695.442 151.181 710.619C279.795 829.695 440.027 908.322 570.486 1025.07C582.985 1036.26 593.407 1050.03 604.35 1063.16C608.53 1068.17 609.825 1069.69 614.331 1073.79C615.111 1074.5 621.818 1076.74 620.992 1080.41C620.611 1082.1 617.686 1082.35 616.234 1082.97C608.407 1086.29 601.814 1087.54 595.014 1089.21C539.567 1102.85 489.877 1107.5 438.85 1114.43C349.184 1126.6 264.036 1132.45 185.538 1128.27C136.758 1125.67 85.7916 1125.74 42.6859 1115.15C31.9947 1112.53 20.5295 1111.03 9.47527 1108.91C8.93303 1108.81 1.87409 1105.89 0.878046 1107.34C-0.926726 1109.96 8.18617 1118.87 8.72331 1119.72C19.3707 1136.65 31.5774 1151.67 44.4699 1165.83C111.108 1239 186.551 1301.44 259.548 1366.6C336.173 1435 415.316 1500.65 504.415 1553C571.606 1592.47 644.51 1624.4 709.768 1666.42C717.065 1671.11 726.737 1673.24 732.511 1679.88C733.64 1681.18 719.951 1684.9 719.136 1685.12C671.406 1697.85 630.548 1699.94 584.761 1709.66C540.699 1719.02 488.942 1740.76 444.327 1751.14C444.244 1751.16 436.328 1751.41 439.888 1753.09C444.997 1755.5 450.358 1757.56 455.269 1760.24C501.242 1785.29 546.094 1811.71 593.182 1835.31C682.009 1879.84 766.824 1930.7 875.194 1948.97C919.352 1956.42 963.052 1964.26 997.815 1984.48C1008.79 1990.87 1018.23 1999.27 1028.16 2007.01C1033.11 2010.87 1028.76 2007.9 1022.4 2011.63C932.274 2064.49 858.797 2081.41 793.904 2092.69C776.385 2095.73 758.368 2099.51 741.834 2101.08C736.127 2101.62 735.227 2103 739.485 2104.09C757.473 2108.7 780.97 2106.09 800.722 2108.26C866.738 2115.51 929.896 2126.9 983.139 2151.66C1010.83 2164.54 1039.12 2176.59 1068.52 2187.19M721.027 9.98989C726.487 11.5965 732.221 12.9359 737.858 14.3671C743.323 15.802 748.514 17.6124 752.875 20.4567C814.001 54.391 865.366 101.708 918.985 145.367C981.617 195.918 1037.31 255.713 1097.99 308.907C1126.83 334.831 1158.2 357.625 1186.9 383.756C1193.05 389.398 1200.76 393.37 1207.51 398.58C1211.37 401.216 1214.95 404.224 1217.26 408.518C1217.74 409.38 1215.3 408.975 1214.29 409.335C1206.88 411.081 1198.55 414.431 1190.39 417.408C1149.53 431.925 1110.8 443.325 1078.97 443.792C1056.59 444.188 1037.31 439.852 1019.52 433.478C1000.54 427.395 983.195 419.043 965.738 411.33C953.451 406.716 942.029 400.982 930.337 395.549C926.279 393.922 921.215 388.943 914.06 391.367C902.14 396.428 922.82 401.299 927.877 405.401C985.762 450.549 1044.53 494.283 1106.2 534.578C1122.26 545.156 1138.98 555.427 1155.1 566.003C1171.46 576.972 1187.48 588.396 1202.35 601.262C1234.95 629.701 1262.51 664.724 1292.6 696.35C1296.75 700.443 1318.82 710.549 1298.75 721.604C1281.39 730.917 1263.79 740.837 1247.04 749.072C1233.51 754.578 1220.31 759.674 1207.22 764.522C1194.03 769.241 1180.69 773.662 1167.84 777.631C1147 784.018 1123.09 795.316 1103.12 800.354C1100.64 800.939 1085.14 804.216 1085.51 805.042C1099.84 810.662 1117.61 812.229 1133.37 816.092C1165.02 823.838 1204.08 821.142 1236.66 827.594C1264.42 833.445 1289.06 843.197 1312.01 855.2C1335.16 867.28 1356.58 881.667 1378.09 896.114L1380.4 897.666C1416.99 924.093 1452.84 951.438 1489.83 977.37C1510.24 991.699 1539.63 997.894 1552.62 1021.58C1556.85 1029.27 1531.18 1043.87 1524.92 1048.01C1505.16 1060.92 1487.51 1070.19 1471.28 1077.18C1456.21 1083.97 1442.34 1088.65 1429.23 1091.8C1390.11 1101.34 1353.49 1106.94 1316.41 1113.72C1314.11 1114.33 1302.67 1115.58 1307.74 1120.9C1319.13 1132.33 1338.09 1134.83 1352.91 1141.77C1439.11 1182.14 1512.49 1239.25 1588.96 1292.29M711.068 18.9811C715.547 20.6676 720.194 22.2567 724.913 23.6694C729.286 25.0898 733.38 26.9012 736.727 29.6242C795.899 62.6864 845.525 108.887 897.29 151.563C958.206 200.882 1012.58 259.418 1071.73 311.287C1099.97 337.308 1131.14 359.79 1159.53 385.648C1168.74 394.125 1180.27 399.963 1190.11 407.962C1194.19 410.812 1197.94 414.089 1200.46 418.604C1201.03 419.57 1198.69 419.213 1197.82 419.666C1190.61 421.387 1182.66 424.708 1174.68 427.703C1134.84 441.9 1097 453.021 1065.92 453.491C1043.91 453.961 1024.94 449.764 1007.43 443.591C987.54 438.001 969.388 429.974 951.092 422.627C936.87 418.433 923.605 412.988 910.242 407.587C905.067 405.935 898.856 401.083 890.802 403.182C878.912 408.051 898.788 412.762 903.443 416.709C959.867 460.726 1016.99 503.294 1077.09 542.617C1092.71 552.996 1109.24 563.233 1124.96 573.566C1141.19 584.683 1157.11 596.198 1171.92 609.096C1205.38 638.654 1234.13 674.362 1265.3 706.827C1271.26 712.527 1294.76 724.022 1277.42 736.109C1262.17 746.175 1246.83 756.646 1232.14 765.726C1219.13 771.212 1206.49 776.233 1193.88 781.126C1181.05 785.759 1167.7 790.162 1155.14 794.038C1133.63 800.584 1109.3 811.652 1088.68 816.807L1088.52 816.843C1084.7 817.717 1068.75 821.365 1068.01 822.414C1081.98 827.894 1099.11 829.428 1114.56 833.237C1145.54 840.849 1183.76 838.273 1215.65 844.63C1243.87 850.961 1269.01 861.129 1292.57 873.422C1318.16 886.736 1341.85 902.621 1366.29 917.669C1403.07 943.621 1439.12 970.479 1476.06 996.268C1496.22 1010.4 1525.12 1016.65 1538.03 1039.94C1542.29 1047.53 1517.14 1061.69 1510.88 1065.82C1489.36 1079.73 1470.32 1089.19 1452.87 1096.29C1437.74 1102.99 1423.77 1107.64 1410.57 1110.75C1372.28 1120.07 1336.56 1125.56 1300.51 1132.2C1298.72 1132.91 1288.16 1134.06 1293.59 1139.31C1306.34 1150.63 1326.41 1153.36 1342.19 1160.74C1426.93 1200.42 1499.18 1256.4 1574.48 1308.39M701.099 28.0003C704.597 29.7667 708.157 31.6055 711.958 32.9998C715.24 34.4057 718.237 36.2181 720.569 38.8197C777.786 71.0099 825.674 116.094 875.585 157.788C934.785 205.874 987.833 263.152 1045.47 313.694C1073.1 339.812 1104.07 361.983 1132.16 387.567C1144.43 398.881 1159.76 406.585 1172.7 417.373C1177 420.436 1180.91 423.982 1183.65 428.718C1184.32 429.788 1182.07 429.478 1181.34 430.026C1174.34 431.72 1166.76 435.014 1158.96 438.026C1120.13 451.902 1083.19 462.744 1052.87 463.219C1031.22 463.762 1012.57 459.705 995.332 453.732C974.531 448.636 955.571 440.934 936.436 433.952C920.28 430.178 905.171 425.023 890.138 419.653C883.845 417.977 876.486 413.251 867.533 415.025C855.675 419.701 874.747 424.253 878.999 428.045C933.962 470.93 989.435 512.332 1047.97 550.684C1063.14 560.864 1079.48 571.066 1094.82 581.157C1110.9 592.423 1126.72 604.028 1141.49 616.959C1175.8 647.634 1205.75 684.028 1237.99 717.331C1245.76 724.639 1270.68 737.522 1256.07 750.641C1242.94 761.462 1229.87 772.483 1217.22 782.407C1204.73 787.873 1192.67 792.82 1180.53 797.758C1168.05 802.306 1154.7 806.691 1142.44 810.473C1120.26 817.177 1095.5 828.015 1074.24 833.288C1069.69 834.311 1052.37 838.511 1050.5 839.814C1064.1 845.154 1080.59 846.655 1095.74 850.41C1126.06 857.889 1163.44 855.431 1194.63 861.694C1223.3 868.505 1248.96 879.09 1273.11 891.673C1300.33 905.787 1325.59 922.569 1352.18 937.7C1389.15 963.178 1425.39 989.547 1462.27 1015.19C1482.2 1029.13 1510.61 1035.43 1523.44 1058.32C1527.71 1065.81 1503.1 1079.54 1496.83 1083.65C1473.55 1098.57 1453.11 1108.21 1434.45 1115.42C1419.26 1122.03 1405.18 1126.66 1391.9 1129.73C1354.45 1138.82 1319.62 1144.21 1284.61 1150.71C1283.32 1151.52 1273.63 1152.57 1279.43 1157.74C1293.55 1168.96 1314.73 1171.91 1331.47 1179.73C1414.73 1218.73 1485.86 1273.58 1559.98 1324.51M691.116 37.0368C693.632 38.8831 696.105 40.9716 698.988 42.3475C701.179 43.7388 703.078 45.5522 704.396 48.0325C759.658 79.3507 805.809 123.319 853.865 164.029C911.349 210.884 963.073 266.903 1019.2 316.119C1046.21 342.334 1076.99 364.194 1104.77 389.504C1120.09 403.653 1139.25 413.224 1155.27 426.8C1159.79 430.077 1163.88 433.893 1166.83 438.849C1167.59 440.023 1165.43 439.762 1164.84 440.402C1158.04 442.071 1150.84 445.337 1143.22 448.366C1105.41 461.922 1069.36 472.485 1039.81 472.963C1018.52 473.579 1000.19 469.662 983.221 463.891C961.508 459.287 941.74 451.91 921.765 445.295C903.674 441.941 886.722 437.075 870.02 431.736C862.608 430.036 854.102 425.436 844.25 426.885C832.422 431.369 850.691 435.762 854.54 439.398C908.043 481.152 961.87 521.387 1018.84 558.768C1033.57 568.749 1049.71 578.918 1064.66 588.765C1080.6 600.18 1096.33 611.875 1111.05 624.838C1146.21 656.632 1177.35 693.711 1210.66 727.852C1220.25 736.768 1246.6 751.04 1234.72 765.191C1223.7 776.767 1212.89 788.337 1202.29 799.106C1190.32 804.552 1178.83 809.424 1167.16 814.407C1155.04 818.869 1141.68 823.237 1129.73 826.926C1106.87 833.788 1081.69 844.396 1059.78 849.786C1054.19 851.028 1035.97 855.69 1032.97 857.232C1046.21 862.432 1062.06 863.9 1076.91 867.6C1106.56 874.945 1143.09 872.607 1173.6 878.776C1202.72 886.066 1228.88 897.068 1253.65 909.941C1282.48 924.855 1309.31 942.534 1338.05 957.747C1375.21 982.751 1411.65 1008.63 1448.47 1034.14C1468.17 1047.87 1496.07 1054.23 1508.83 1076.72C1513.12 1084.12 1489.04 1097.41 1482.77 1101.51C1457.73 1117.42 1435.9 1127.26 1416.02 1134.58C1400.77 1141.09 1386.58 1145.7 1373.22 1148.73C1336.6 1157.59 1302.66 1162.88 1268.68 1169.23C1267.9 1170.14 1259.09 1171.1 1265.25 1176.19C1280.74 1187.3 1303.02 1190.47 1320.72 1198.75C1402.53 1237.05 1472.53 1290.78 1545.47 1340.64M681.112 46.1009C682.646 48.0271 684.033 50.3652 685.997 51.7227C687.097 53.0994 687.899 54.9139 688.203 57.2728C741.51 87.719 785.923 130.571 832.124 170.299C887.893 215.921 938.293 270.681 992.9 318.571C1019.31 344.883 1049.88 366.432 1077.35 391.468C1095.74 408.454 1118.71 419.891 1137.83 436.255C1142.56 439.746 1146.82 443.831 1149.99 449.008C1150.84 450.285 1148.78 450.072 1148.32 450.806C1141.73 452.449 1134.9 455.687 1127.47 458.734C1090.66 471.969 1055.52 482.253 1026.72 482.735C1005.79 483.425 987.78 479.647 971.089 474.077C948.464 469.966 927.887 462.914 907.073 456.665C887.048 453.731 868.253 449.155 849.88 443.847C841.351 442.122 831.697 437.649 820.946 438.772C809.149 443.064 826.614 447.298 830.061 450.778C882.103 491.401 934.285 530.47 989.688 566.88C1003.97 576.662 1019.92 586.797 1034.48 596.401C1050.28 607.965 1065.91 619.749 1080.58 632.745C1116.59 665.657 1148.94 703.421 1183.31 738.401C1194.72 748.924 1222.49 764.585 1213.34 779.769C1204.44 792.098 1195.88 804.219 1187.34 815.832C1175.89 821.258 1164.97 826.056 1153.78 831.084C1142.01 835.46 1128.64 839.811 1116.99 843.406C1093.46 850.427 1067.86 860.804 1045.3 866.311C1038.67 867.773 1019.55 872.896 1015.42 874.677C1028.3 879.737 1043.51 881.172 1058.05 884.817C1087.04 892.03 1122.73 889.81 1152.55 895.884C1182.12 903.655 1208.79 915.074 1234.15 928.237C1264.61 943.951 1293 962.526 1323.9 977.823C1361.25 1002.35 1397.89 1027.75 1434.65 1053.11C1454.11 1066.64 1481.52 1073.06 1494.19 1095.15C1498.5 1102.45 1474.96 1115.3 1468.69 1119.39C1441.89 1136.31 1418.66 1146.33 1397.57 1153.76C1382.25 1160.17 1367.97 1164.76 1354.51 1167.75C1318.73 1176.39 1285.69 1181.57 1252.74 1187.78C1252.47 1188.79 1244.53 1189.66 1251.06 1194.67C1267.91 1205.67 1291.3 1209.07 1309.96 1217.79C1390.3 1255.4 1459.18 1308.01 1530.94 1356.81M668.39 58.6359C668.944 60.642 669.243 63.2298 670.289 64.5688C670.298 65.931 670.003 67.7465 669.292 69.9841C720.645 99.5582 763.319 141.294 807.666 180.039C861.719 224.43 910.794 277.93 963.886 324.494C989.681 350.903 1020.06 372.141 1047.22 396.904C1068.68 416.725 1095.45 430.028 1117.66 449.181C1122.61 452.886 1127.04 457.24 1130.43 462.638C1131.37 464.019 1129.4 463.854 1129.08 464.681C1122.7 466.298 1116.25 469.509 1109 472.572C1073.2 485.487 1038.95 495.493 1010.91 495.978C990.35 496.741 972.656 493.102 956.239 487.734C932.703 484.117 911.317 477.39 889.664 471.507C867.704 468.992 847.066 464.705 827.023 459.428C817.376 457.68 806.574 453.332 794.925 454.13C783.159 458.231 799.82 462.305 802.864 465.63C853.445 505.121 903.981 543.024 957.818 578.463C971.65 588.046 987.417 598.146 1001.59 607.508C1017.24 619.221 1032.78 631.095 1047.4 644.123C1084.26 678.153 1117.8 716.603 1153.25 752.421C1166.46 764.552 1195.67 781.601 1189.24 797.818C1182.45 810.901 1176.17 823.572 1169.67 836.03C1158.74 841.435 1148.4 846.159 1137.67 851.232C1126.27 855.522 1112.89 859.856 1101.53 863.357C1077.34 870.537 1051.31 880.684 1028.11 886.308C1020.44 887.988 1000.4 893.573 995.152 895.593C1007.68 900.513 1022.24 901.916 1036.47 905.506C1064.8 912.585 1099.65 910.485 1128.78 916.464C1158.81 924.715 1185.98 936.55 1211.95 950.003C1244.02 966.518 1273.98 985.99 1307.03 1001.37C1344.57 1025.42 1381.4 1050.33 1418.12 1075.55C1437.34 1088.88 1464.25 1095.35 1476.85 1117.05C1481.17 1124.26 1458.16 1136.66 1451.89 1140.75C1423.33 1158.66 1398.71 1168.88 1376.4 1176.41C1361.02 1182.73 1346.63 1187.3 1333.09 1190.25C1298.15 1198.67 1265.99 1203.74 1234.08 1209.81C1234.31 1210.92 1227.25 1211.68 1234.15 1216.61C1252.37 1227.52 1276.86 1231.13 1296.48 1240.3C1375.36 1277.23 1443.1 1328.71 1513.69 1376.45M655.68 71.1699C655.252 73.2559 654.464 76.0934 654.592 77.414C653.51 78.7617 652.118 80.5782 650.393 82.6945C699.79 111.397 740.727 152.015 783.219 189.778C835.556 232.937 883.308 285.179 934.883 330.416C960.067 356.923 990.251 377.85 1017.1 402.338C1041.62 424.995 1072.21 440.165 1097.51 462.106C1102.68 466.024 1107.28 470.648 1110.88 476.267C1111.92 477.751 1110.04 477.634 1109.86 478.556C1103.68 480.146 1097.6 483.329 1090.54 486.41C1055.75 499.004 1022.4 508.731 995.118 509.22C974.92 510.057 957.543 506.557 941.401 501.39C916.953 498.266 894.759 491.864 872.266 486.347C848.372 484.252 825.891 480.255 804.178 475.009C793.412 473.236 781.463 469.015 768.915 469.488C757.179 473.396 773.037 477.311 775.678 480.48C824.799 518.841 873.689 555.577 925.959 590.044C939.345 599.429 954.921 609.495 968.703 618.613C984.21 630.475 999.653 642.44 1014.23 655.5C1051.94 690.649 1086.67 729.784 1123.2 766.44C1138.22 780.178 1168.85 798.616 1165.16 815.865C1160.48 829.703 1156.46 842.923 1152.01 856.226C1141.61 861.611 1131.83 866.26 1121.58 871.378C1110.53 875.584 1097.14 879.9 1086.09 883.306C1061.22 890.645 1034.77 900.562 1010.92 906.303C1002.21 908.203 981.273 914.249 974.897 916.508C987.062 921.288 1000.98 922.658 1014.91 926.194C1042.57 933.139 1076.58 931.158 1105.01 937.043C1135.5 945.774 1163.18 958.026 1189.75 971.769C1223.45 989.084 1254.98 1009.45 1290.18 1024.91C1327.9 1048.49 1364.93 1072.91 1401.59 1097.99C1420.58 1111.13 1446.98 1117.65 1459.51 1138.95C1463.85 1146.06 1441.38 1158.03 1435.1 1162.1C1404.78 1181.01 1378.76 1191.42 1355.24 1199.06C1339.8 1205.29 1325.3 1209.83 1311.68 1212.74C1277.57 1220.94 1246.31 1225.9 1215.43 1231.83C1216.17 1233.04 1209.98 1233.71 1217.25 1238.56C1236.83 1249.36 1262.42 1253.2 1283.01 1262.81C1360.43 1299.05 1427.04 1349.4 1496.46 1396.08M644.427 84.851C643.017 87.0169 641.142 90.104 640.352 91.4062C638.213 92.7184 635.767 94.5 633.079 96.4581L632.95 96.5518C680.393 124.382 719.591 163.884 760.229 200.664C810.85 242.591 857.278 293.574 907.337 337.486C931.91 364.089 961.897 384.705 988.443 408.919C1016.02 434.412 1050.42 451.448 1078.82 476.178C1084.2 480.31 1088.97 485.203 1092.79 491.043C1093.92 492.631 1092.13 492.562 1092.09 493.577C1086.11 495.142 1080.42 498.297 1073.53 501.395C1039.76 513.668 1007.3 523.116 980.781 523.61C960.947 524.519 943.887 521.159 928.02 516.193C902.66 513.562 879.657 507.485 856.325 502.334C830.497 500.659 806.172 496.951 782.789 491.737C770.905 489.94 757.808 485.845 744.362 485.992C732.657 489.708 747.711 493.464 749.949 496.478C797.609 533.707 844.854 569.276 895.557 602.773C908.496 611.959 923.883 621.991 937.275 630.866C952.639 642.877 967.987 654.932 982.509 668.024C1021.07 704.291 1057.01 744.112 1094.6 781.606C1111.44 796.952 1143.5 816.778 1142.53 835.06C1139.97 849.651 1138.21 863.422 1135.81 877.569C1125.93 882.934 1116.72 887.509 1106.94 892.672C1096.25 896.792 1082.85 901.09 1072.11 904.403C1046.56 911.901 1019.69 921.588 995.196 927.446C985.444 929.565 963.6 936.073 956.099 938.57C967.904 943.21 981.181 944.547 994.806 948.028C1021.81 954.841 1054.97 952.978 1082.71 958.769C1113.66 967.98 1141.84 980.648 1169.01 994.681C1204.33 1012.8 1237.43 1034.06 1274.78 1049.61C1312.69 1072.71 1349.92 1096.64 1386.52 1121.58C1405.27 1134.52 1431.18 1141.1 1443.63 1161.99C1447.99 1169.01 1426.05 1180.54 1419.77 1184.6C1387.69 1204.51 1360.28 1215.11 1335.53 1222.86C1320.03 1228.99 1305.44 1233.51 1291.72 1236.38C1258.45 1244.35 1228.09 1249.21 1198.24 1255C1199.49 1256.31 1194.17 1256.88 1201.8 1261.65C1222.75 1272.35 1249.45 1276.41 1271 1286.46C1346.95 1322.02 1412.44 1371.25 1480.68 1416.86M635.476 100.325C633.085 102.571 630.123 105.908 628.414 107.192C625.15 108.51 621.563 110.329 617.81 112.203C663.298 139.161 700.758 177.547 739.542 213.344C788.447 254.039 833.55 303.763 882.093 346.348C906.056 373.049 935.845 393.353 962.083 417.294C992.721 445.623 1030.94 464.525 1062.43 492.044C1068.02 496.389 1072.97 501.551 1077 507.612C1078.22 509.304 1076.53 509.283 1076.63 510.391C1070.85 511.93 1065.53 515.058 1058.83 518.173C1026.07 530.126 994.506 539.295 968.746 539.792C949.276 540.775 932.533 537.554 916.941 532.789C890.669 530.652 866.858 524.899 842.686 520.115C814.923 518.859 788.756 515.441 763.703 510.258C750.701 508.437 736.456 504.468 722.111 504.29C710.437 507.814 724.687 511.41 726.523 514.269C772.722 550.366 818.322 584.77 867.458 617.295C879.95 626.282 895.146 636.28 908.149 644.912L909.253 645.794C924.108 657.66 938.973 669.534 953.096 682.341C992.509 719.727 1029.64 760.233 1068.31 798.566C1086.96 815.519 1120.44 836.734 1122.21 856.048C1121.76 871.393 1122.26 885.714 1121.91 900.706C1112.55 906.051 1103.92 910.551 1094.61 915.759C1084.28 919.793 1070.87 924.074 1060.42 927.294C1034.21 934.95 1006.91 944.406 981.77 950.382C970.979 952.72 948.228 959.689 939.602 962.426C951.047 966.926 963.682 968.23 977.002 971.656C1003.34 978.335 1035.66 976.592 1062.71 982.288C1094.11 991.979 1122.8 1005.06 1150.57 1019.39C1187.51 1038.3 1222.18 1060.47 1261.68 1076.09C1299.79 1098.72 1337.21 1122.17 1373.75 1146.96C1392.27 1159.7 1417.68 1166.33 1430.05 1186.83C1434.43 1193.75 1413.02 1204.84 1406.74 1208.9C1372.91 1229.8 1344.09 1240.6 1318.13 1248.45C1302.57 1254.49 1287.87 1258.99 1274.07 1261.82C1241.64 1269.56 1212.16 1274.32 1183.35 1279.96C1185.11 1281.37 1180.66 1281.85 1188.66 1286.54C1210.98 1297.13 1238.78 1301.41 1261.28 1311.91C1335.78 1346.78 1400.14 1394.88 1467.2 1439.44M626.529 115.794C623.156 118.12 619.107 121.706 616.481 122.972C612.126 124.276 607.441 126.095 602.674 127.848C646.207 153.933 681.928 191.203 718.858 226.018C766.047 265.481 809.827 313.946 856.853 355.205C880.205 382.003 909.797 401.996 935.728 425.663C969.428 456.828 1011.46 477.597 1046.04 507.903C1051.85 512.463 1056.97 517.893 1061.22 524.175C1062.53 525.971 1060.93 525.998 1061.17 527.2C1055.6 528.713 1050.65 531.813 1044.14 534.946C1012.39 546.577 981.715 555.468 956.716 555.969C937.609 557.025 921.184 553.944 905.866 549.38C878.683 547.736 854.062 542.308 829.052 537.889C799.354 537.054 771.344 533.925 744.62 528.774C730.5 526.928 715.108 523.086 699.864 522.582C688.221 525.914 701.668 529.351 703.1 532.054C747.839 567.02 791.793 600.257 839.363 631.812C851.163 640.421 865.804 650.158 878.253 658.438L879.027 658.952C894.106 671.261 909.263 683.496 923.687 696.653C963.95 735.157 1002.28 776.348 1042.02 815.519C1062.48 834.08 1097.39 856.684 1101.89 877.03C1103.55 893.13 1106.31 908.001 1108.02 923.837C1099.17 929.162 1091.12 933.588 1082.28 938.84C1072.3 942.789 1058.89 947.053 1048.74 950.178C1021.85 957.993 994.131 967.22 968.349 973.312C956.518 975.87 932.861 983.3 923.11 986.276C934.195 990.636 946.188 991.907 959.202 995.279C984.875 1001.82 1016.36 1000.2 1042.71 1005.8C1074.57 1015.97 1103.76 1029.47 1132.14 1044.09C1170.7 1063.8 1206.93 1086.86 1248.59 1102.57C1286.88 1124.73 1324.5 1147.69 1360.99 1172.33C1379.27 1184.87 1404.18 1191.57 1416.48 1211.66C1420.88 1218.49 1400 1229.14 1393.71 1233.18C1358.12 1255.09 1327.91 1266.07 1300.73 1274.03C1285.11 1279.98 1270.31 1284.46 1256.43 1287.25C1224.82 1294.77 1196.24 1299.42 1168.47 1304.92C1170.73 1306.43 1167.15 1306.81 1175.52 1311.42C1199.2 1321.91 1228.11 1326.41 1251.58 1337.36C1324.61 1371.54 1387.84 1418.51 1453.72 1462.01M617.57 131.264C613.217 133.669 608.08 137.506 604.536 138.753C599.09 140.042 593.308 141.863 587.526 143.493C629.104 168.707 663.088 204.861 698.163 238.693C743.636 276.924 786.092 324.13 831.602 364.063C854.344 390.958 883.738 410.64 909.361 434.033C946.123 468.033 991.966 490.669 1029.64 523.764C1035.67 528.537 1040.95 534.237 1045.42 540.74C1046.83 542.639 1045.32 542.714 1045.69 544.01C1040.33 545.497 1035.76 548.569 1029.43 551.719C998.691 563.03 968.914 571.642 944.673 572.147C925.931 573.276 909.823 570.334 894.779 565.972C866.685 564.82 841.255 559.718 815.406 555.665C783.774 555.249 753.92 552.41 725.526 547.29C710.288 545.42 693.749 541.704 677.606 540.875C665.993 544.014 678.637 547.293 679.666 549.84C722.944 583.675 765.253 615.746 811.256 646.329C822.854 654.918 837.67 664.848 849.894 672.994C864.83 685.451 879.892 697.776 894.266 710.965C935.38 750.587 974.908 792.464 1015.72 832.474C1037.99 852.643 1074.33 876.635 1081.55 898.013C1085.33 914.867 1090.36 930.288 1094.11 946.969C1085.79 952.273 1078.3 956.625 1069.94 961.922C1060.32 965.786 1046.9 970.032 1037.05 973.064C1009.49 981.038 981.343 990.034 954.916 996.243C942.046 999.02 917.482 1006.91 906.607 1010.13C917.331 1014.35 928.682 1015.58 941.391 1018.9C966.401 1025.31 997.039 1023.81 1022.7 1029.32C1055.01 1039.97 1084.71 1053.89 1113.7 1068.79C1153.88 1089.31 1191.68 1113.26 1235.49 1129.05C1273.97 1150.74 1311.78 1173.21 1348.22 1197.71C1366.26 1210.05 1390.67 1216.8 1402.89 1236.5C1407.31 1243.23 1386.96 1253.44 1380.68 1257.47C1343.32 1280.38 1311.72 1291.55 1283.33 1299.62C1267.64 1305.47 1252.74 1309.93 1238.77 1312.68C1208 1319.97 1180.31 1324.52 1153.57 1329.88C1156.34 1331.49 1153.64 1331.77 1162.37 1336.3C1187.42 1346.69 1217.43 1351.41 1241.86 1362.8C1313.43 1396.3 1375.54 1442.15 1440.24 1484.58M608.618 146.739C603.283 149.225 597.059 153.31 592.596 154.539C586.059 155.814 579.18 157.635 572.384 159.145C612.008 183.487 644.253 218.524 677.474 251.373C721.231 288.372 762.363 334.319 806.356 372.926C828.488 399.918 857.685 419.289 883 442.409C922.823 479.245 972.48 503.747 1013.25 539.63C1019.49 544.617 1024.95 550.586 1029.63 557.31C1031.13 559.313 1029.72 559.436 1030.23 560.825C1025.07 562.287 1020.87 565.331 1014.72 568.498C985 579.488 956.118 587.822 932.637 588.33C914.258 589.532 898.467 586.73 883.699 582.569C854.692 581.911 828.454 577.133 801.766 573.447C768.199 573.451 736.502 570.901 706.438 565.812C690.082 563.918 672.395 560.328 655.354 559.174C643.772 562.121 655.611 565.24 656.238 567.632C698.056 600.336 738.718 631.24 783.155 660.852C794.307 669.242 808.933 679.138 820.766 687.041C835.559 699.647 850.526 712.062 864.851 725.284C906.816 766.024 947.541 808.586 989.429 849.434C1013.51 871.21 1051.28 896.591 1061.23 919.002C1067.12 936.61 1074.41 952.581 1080.21 970.107C1072.41 975.391 1065.5 979.668 1057.6 985.01C1048.34 988.788 1034.91 993.017 1025.36 995.955C997.132 1004.09 968.562 1012.85 941.489 1019.18C927.579 1022.18 902.109 1030.53 890.109 1033.98C900.473 1038.06 911.182 1039.27 923.586 1042.53C947.933 1048.81 977.728 1047.42 1002.7 1052.84C1035.47 1063.97 1065.67 1078.3 1095.26 1093.5C1137.06 1114.81 1176.43 1139.67 1222.39 1155.54C1261.06 1176.75 1299.07 1198.73 1335.45 1223.09C1353.26 1235.24 1377.17 1242.04 1389.31 1261.34C1393.75 1267.97 1373.93 1277.74 1367.65 1281.77C1328.53 1305.67 1295.53 1317.04 1265.92 1325.21C1250.18 1330.97 1235.17 1335.4 1221.11 1338.12C1191.18 1345.18 1164.39 1349.62 1138.68 1354.84C1141.95 1356.55 1140.13 1356.73 1149.23 1361.19C1175.64 1371.47 1206.76 1376.42 1232.15 1388.26C1302.25 1421.06 1363.23 1465.78 1426.76 1507.15M599.67 162.208C593.354 164.774 586.043 169.109 580.662 170.32C573.034 171.58 565.058 173.403 557.248 174.791C594.916 198.261 625.424 232.182 656.79 264.048C698.832 299.815 738.639 344.503 781.116 381.784C802.637 408.873 831.637 427.933 856.644 450.778C899.529 490.45 952.998 516.818 996.858 555.491C1003.32 560.691 1008.95 566.93 1013.84 573.874C1015.43 575.981 1014.12 576.152 1014.76 577.635C1009.81 579.07 1005.99 582.087 1000.03 585.271C971.314 595.941 943.327 603.996 920.606 604.508C902.591 605.783 887.117 603.121 872.623 599.16C842.705 598.995 815.659 594.543 788.13 591.222C752.63 591.646 719.09 589.386 687.356 584.328C669.881 582.41 651.047 578.946 633.106 577.467C621.555 580.221 632.591 583.181 632.815 585.418C673.172 616.99 712.189 646.728 755.059 675.369C765.764 683.56 780.2 693.422 791.644 701.082C806.294 713.837 821.166 726.342 835.441 739.596C878.257 781.455 920.179 824.702 963.14 866.389C989.035 889.772 1028.23 916.542 1040.91 939.985C1048.91 958.347 1058.46 974.868 1066.32 993.238C1059.04 998.502 1052.69 1002.71 1045.27 1008.09C1036.37 1011.78 1022.93 1016 1013.68 1018.84C984.779 1027.13 955.786 1035.67 928.068 1042.11C913.118 1045.33 886.741 1054.14 873.617 1057.83C883.62 1061.77 893.687 1062.95 905.786 1066.15C929.469 1072.3 958.422 1071.03 982.703 1076.35C1015.92 1087.96 1046.63 1102.71 1076.82 1118.2C1120.25 1140.31 1161.18 1166.06 1209.3 1182.02C1248.16 1202.75 1286.36 1224.25 1322.68 1248.47C1340.26 1260.41 1363.67 1267.27 1375.74 1286.17C1380.19 1292.71 1360.91 1302.04 1354.62 1306.06C1313.75 1330.96 1279.35 1342.52 1248.53 1350.79C1232.72 1356.46 1217.61 1360.87 1203.47 1363.55C1174.37 1370.39 1148.47 1374.72 1123.79 1379.8C1127.57 1381.61 1126.62 1381.7 1136.09 1386.07C1163.87 1396.25 1196.09 1401.42 1222.44 1413.7C1291.08 1445.82 1350.94 1489.41 1413.29 1529.73M590.719 177.682C583.421 180.327 575.023 184.913 568.724 186.104C560.005 187.35 550.931 189.174 542.107 190.441C577.821 213.038 606.59 245.843 636.102 276.727C676.428 311.261 714.911 354.691 755.872 390.646C776.782 417.832 805.584 436.581 830.284 459.152C876.231 501.66 933.513 529.895 980.466 571.355C987.139 576.769 992.94 583.277 998.053 590.442C999.737 592.653 998.513 592.872 999.297 594.449C994.548 595.858 991.106 598.847 985.325 602.049C957.625 612.398 930.532 620.173 908.571 620.689C890.92 622.038 875.763 619.515 861.544 615.756C830.714 616.084 802.859 611.956 774.491 609.002C737.056 609.845 701.673 607.875 668.269 602.849C649.677 600.906 629.694 597.569 610.855 595.764C599.335 598.326 609.567 601.127 609.389 603.208C648.285 633.649 685.656 662.221 726.959 689.89C737.218 697.883 751.463 707.71 762.518 715.127C777.025 728.031 791.802 740.627 806.028 753.912C849.694 796.889 892.813 840.823 936.847 883.347C964.554 908.339 1005.17 936.496 1020.58 960.972C1030.7 980.089 1042.51 997.16 1052.42 1016.37C1045.66 1021.62 1039.89 1025.75 1032.93 1031.18C1024.39 1034.79 1010.94 1038.98 1002 1041.73C972.423 1050.18 943.005 1058.48 914.642 1065.05C898.653 1068.48 871.369 1077.76 857.12 1081.69C866.764 1085.49 876.188 1086.63 887.983 1089.78C911.002 1095.79 939.113 1094.64 962.702 1099.87C996.378 1111.96 1027.59 1127.13 1058.39 1142.9C1103.43 1165.82 1145.93 1192.47 1196.2 1208.51C1235.25 1228.76 1273.65 1249.77 1309.92 1273.85C1327.26 1285.59 1350.17 1292.51 1362.16 1311.01C1366.63 1317.45 1347.88 1326.35 1341.59 1330.35C1298.96 1356.25 1263.17 1368 1231.13 1376.38C1215.26 1381.96 1200.04 1386.35 1185.82 1388.98C1157.55 1395.6 1132.55 1399.83 1108.9 1404.76C1113.19 1406.67 1113.11 1406.66 1122.95 1410.96C1152.09 1421.03 1185.42 1426.42 1212.73 1439.15C1279.91 1470.58 1338.64 1513.05 1399.81 1552.3M581.772 193.151C573.493 195.876 564.008 200.711 556.791 201.884C546.981 203.115 536.81 204.94 526.971 206.086C560.73 227.811 587.761 259.5 615.418 289.401C654.029 322.703 691.188 364.874 730.633 399.502C750.932 426.786 779.537 445.224 803.929 467.521C852.938 512.865 914.033 542.966 964.078 587.215C970.967 592.843 976.939 599.62 982.269 607.005C984.044 609.32 982.914 609.587 983.836 611.257C979.292 612.641 976.226 615.602 970.628 618.821C943.939 628.849 917.742 636.346 896.54 636.866C879.253 638.288 864.414 635.905 850.469 632.347C818.728 633.168 790.064 629.365 760.857 626.777C721.487 628.04 684.261 626.359 649.187 621.364C629.476 619.397 608.347 616.186 588.609 614.056C577.119 616.426 586.548 619.067 585.966 620.993C623.402 650.303 659.128 677.708 698.864 704.407C708.676 712.2 722.731 721.994 733.397 729.167C747.761 742.221 762.442 754.906 776.619 768.224C821.136 812.319 865.452 856.938 910.559 900.301C940.077 926.9 982.122 956.446 1000.26 981.954C1012.5 1001.82 1026.57 1019.45 1038.53 1039.51C1032.29 1044.73 1027.09 1048.78 1020.6 1054.26C1012.42 1057.78 998.962 1061.96 990.321 1064.61C960.071 1073.22 930.23 1081.3 901.221 1087.98C884.192 1091.63 856.002 1101.37 840.628 1105.54C849.912 1109.2 858.693 1110.3 870.183 1113.4C892.54 1119.28 919.807 1118.25 942.705 1123.38C976.837 1135.95 1008.55 1151.54 1039.95 1167.6C1086.62 1191.32 1130.69 1218.86 1183.11 1234.99C1222.34 1254.77 1260.94 1275.29 1297.15 1299.22C1314.26 1310.77 1336.67 1317.74 1348.59 1335.84C1353.07 1342.19 1334.86 1350.64 1328.57 1354.64C1284.18 1381.54 1246.99 1393.48 1213.73 1401.97C1197.8 1407.45 1182.48 1411.82 1168.17 1414.41C1140.74 1420.8 1116.63 1424.92 1094.02 1429.71C1098.81 1431.72 1099.61 1431.62 1109.81 1435.84C1140.32 1445.81 1174.75 1451.42 1203.02 1464.6C1268.74 1495.34 1326.34 1536.68 1386.34 1574.87M572.813 208.621C563.553 211.426 552.981 216.51 544.846 217.665C533.944 218.882 522.676 220.707 511.823 221.732C543.627 242.585 568.92 273.157 594.723 302.076C631.618 334.146 667.452 375.058 705.381 408.36C725.069 435.741 753.478 453.868 777.562 475.891C829.632 524.071 894.54 556.038 947.679 603.076C954.783 608.917 960.927 615.963 966.472 623.57C968.34 625.989 967.303 626.304 968.363 628.067C964.024 629.425 961.333 632.358 955.919 635.595C930.242 645.302 904.94 652.52 884.498 653.044C867.574 654.539 853.052 652.295 839.383 648.938C806.729 650.253 777.257 646.775 747.211 644.553C705.907 646.236 666.837 644.844 630.093 639.881C609.264 637.889 586.987 634.804 566.35 632.349C554.891 634.527 563.516 637.009 562.532 638.779C598.507 666.958 632.587 693.197 670.757 718.924C680.122 726.519 693.987 736.278 704.263 743.209C718.484 756.411 733.07 769.186 747.198 782.537C792.566 827.75 838.079 873.054 884.259 917.256C915.589 945.462 959.06 976.397 979.929 1002.94C994.277 1023.56 1010.61 1041.73 1024.62 1062.64C1018.9 1067.84 1014.27 1071.82 1008.26 1077.34C1000.44 1080.78 986.97 1084.94 978.629 1087.5C947.707 1096.27 917.442 1104.11 887.788 1110.91C869.719 1114.78 840.623 1124.98 824.125 1129.39C833.048 1132.91 841.187 1133.98 852.372 1137.03C874.065 1142.77 900.49 1141.86 922.696 1146.9C957.283 1159.95 989.505 1175.95 1021.51 1192.3C1069.8 1216.82 1115.43 1245.26 1170 1261.47C1209.43 1280.78 1248.23 1300.81 1284.38 1324.6C1301.25 1335.95 1323.16 1342.97 1335 1360.68C1339.51 1366.93 1321.83 1374.94 1315.53 1378.93C1269.38 1406.82 1230.8 1418.95 1196.32 1427.56C1180.33 1432.94 1164.91 1437.29 1150.51 1439.84C1123.92 1446.01 1100.7 1450.02 1079.12 1454.67C1084.42 1456.78 1086.09 1456.58 1096.66 1460.72C1128.54 1470.59 1164.07 1476.42 1193.3 1490.04C1257.56 1520.1 1314.03 1560.31 1372.85 1597.44M563.862 224.095C553.621 226.98 541.962 232.314 532.908 233.451C520.916 234.653 508.55 236.48 496.683 237.383C526.532 257.364 550.087 286.82 574.036 314.756C609.214 345.594 643.725 385.247 680.137 417.223C699.215 444.7 727.426 462.516 751.203 484.266C806.335 535.282 875.056 569.115 931.287 618.941C938.607 624.996 944.922 632.312 950.683 640.139C952.644 642.662 951.7 643.025 952.898 644.882C948.763 646.214 946.448 649.119 941.218 652.373C916.553 661.76 892.146 668.699 872.463 669.227C855.904 670.795 841.699 668.69 828.304 665.535C794.739 667.343 764.457 664.19 733.572 662.334C690.334 664.436 649.421 663.335 611.006 658.402C589.06 656.386 565.635 653.428 544.1 650.647C532.671 652.633 540.493 654.956 539.106 656.571C573.62 683.618 606.055 708.69 642.658 733.446C651.576 740.842 665.251 750.568 675.137 757.255C689.215 770.606 703.707 783.472 717.784 796.854C764.003 843.186 810.714 889.176 857.966 934.215C891.108 964.029 936.007 996.353 959.604 1023.93C976.066 1045.3 994.666 1064.03 1010.72 1085.77C1005.52 1090.96 1001.47 1094.86 995.928 1100.43C988.463 1103.78 974.985 1107.92 966.945 1110.39C935.351 1119.32 904.662 1126.93 874.363 1133.84C855.254 1137.94 825.252 1148.6 807.629 1153.24C816.191 1156.62 823.689 1157.66 834.569 1160.66C855.598 1166.27 881.181 1165.48 902.695 1170.42C937.737 1183.95 970.465 1200.37 1003.07 1217.01C1052.98 1242.33 1100.18 1271.66 1156.91 1287.95C1196.52 1306.79 1235.51 1326.33 1271.61 1349.98C1288.25 1361.13 1309.66 1368.21 1321.42 1385.51C1325.95 1391.67 1308.8 1399.25 1302.5 1403.22C1254.59 1432.12 1214.61 1444.44 1178.92 1453.15C1162.87 1458.44 1147.34 1462.76 1132.86 1465.28C1107.1 1471.22 1084.77 1475.13 1064.23 1479.64C1070.04 1481.84 1072.58 1481.55 1083.52 1485.61C1116.76 1495.37 1153.4 1501.43 1183.59 1515.49C1246.39 1544.86 1301.73 1583.95 1359.37 1620.02M554.915 239.564C543.692 242.529 530.946 248.113 520.974 249.231C507.891 250.418 494.428 252.246 481.546 253.027C509.441 272.137 531.257 300.476 553.352 327.429C586.814 357.036 620.001 395.43 654.897 426.08C673.364 453.654 701.378 471.159 724.847 492.635C783.041 546.486 855.575 582.186 914.899 634.801C922.435 641.07 928.92 648.654 934.897 656.703C936.951 659.329 936.1 659.74 937.436 661.691C933.506 662.997 931.567 665.874 926.52 669.145C902.867 678.212 879.355 684.872 860.432 685.403C844.236 687.045 830.348 685.08 817.228 682.126C782.752 684.426 751.662 681.598 719.937 680.108C674.764 682.631 632.008 681.819 591.924 676.917C568.859 674.877 544.287 672.045 521.852 668.939C510.455 670.733 517.473 672.897 515.683 674.356C548.736 700.272 579.525 724.178 614.562 747.963C623.033 755.16 636.519 764.851 646.015 771.295C659.95 784.796 674.346 797.751 688.375 811.166C735.444 858.616 783.352 905.291 831.677 951.169C866.631 982.591 912.956 1016.3 939.283 1044.91C957.859 1067.04 978.722 1086.31 996.828 1108.91C992.148 1114.07 988.665 1117.9 983.597 1123.51C976.586 1126.73 963.366 1130.79 955.581 1133.18L955.265 1133.27C922.998 1142.36 891.886 1149.74 860.941 1156.77C840.793 1161.09 809.884 1172.21 791.136 1177.09C799.339 1180.33 806.194 1181.34 816.769 1184.28C837.135 1189.76 861.875 1189.08 882.697 1193.93C918.195 1207.94 951.428 1224.78 984.637 1241.71C1036.17 1267.83 1084.94 1298.06 1143.81 1314.43C1183.62 1332.79 1222.81 1351.85 1258.85 1375.36C1275.25 1386.31 1296.16 1393.44 1307.85 1410.35C1312.39 1416.41 1295.78 1423.55 1289.47 1427.51C1239.81 1457.4 1198.43 1469.92 1161.52 1478.73C1145.41 1483.93 1129.78 1488.23 1115.21 1490.71C1090.29 1496.42 1068.85 1500.23 1049.34 1504.59C1055.66 1506.9 1059.08 1506.51 1070.38 1510.49C1104.99 1520.15 1142.74 1526.42 1173.89 1540.94C1235.22 1569.62 1289.43 1607.58 1345.9 1642.59M545.963 255.038C533.759 258.083 519.926 263.917 509.036 265.016C494.862 266.189 480.301 268.018 466.406 268.678C492.345 286.916 512.424 314.139 532.664 340.109C564.41 368.484 596.273 405.619 629.653 434.942C647.509 462.614 675.325 479.808 698.487 501.01C759.743 557.697 836.089 595.263 898.506 650.666C906.258 657.149 912.915 665.003 919.108 673.272C921.253 676.002 920.496 676.461 921.97 678.505C918.245 679.785 916.682 682.635 911.818 685.924C889.177 694.669 866.56 701.051 848.397 701.586C832.565 703.301 818.994 701.475 806.149 698.722C770.76 701.516 738.862 699.013 706.298 697.889C659.19 700.831 614.592 700.309 572.837 695.439C548.654 693.374 522.934 690.668 499.601 687.237C488.234 688.839 494.449 690.843 492.256 692.147C523.849 716.931 552.992 739.671 586.462 762.485C594.487 769.483 607.782 779.14 616.889 785.342C630.681 798.991 644.982 812.036 658.961 825.483C706.881 874.052 755.986 921.412 805.384 968.128C842.149 1001.16 889.902 1036.26 918.958 1065.9C939.647 1088.78 962.773 1108.6 982.929 1132.04C978.77 1137.18 975.859 1140.94 971.263 1146.6C964.698 1149.69 951.751 1153.66 944.204 1155.97L943.581 1156.17C910.642 1165.41 879.105 1172.56 847.516 1179.71C826.327 1184.24 794.512 1195.82 774.639 1200.95C782.482 1204.05 788.695 1205.02 798.965 1207.91C818.667 1213.25 842.565 1212.7 862.695 1217.45C898.039 1231.69 931.241 1248.61 964.478 1265.54L966.199 1266.42C1019.35 1293.33 1069.69 1324.46 1130.72 1340.92C1170.71 1358.8 1210.1 1377.37 1246.08 1400.74C1262.24 1411.49 1282.66 1418.68 1294.27 1435.19C1298.83 1441.15 1282.75 1447.85 1276.44 1451.8C1225.02 1482.7 1182.25 1495.4 1144.12 1504.32C1127.95 1509.43 1112.21 1513.7 1097.56 1516.14C1073.48 1521.63 1052.93 1525.33 1034.45 1529.55C1041.28 1531.96 1045.57 1531.47 1057.24 1535.38C1093.21 1544.93 1132.06 1551.43 1164.17 1566.39C1224.04 1594.38 1277.13 1631.22 1332.42 1665.16M537.005 270.508C523.82 273.633 508.899 279.716 497.091 280.797C481.826 281.955 466.168 283.785 451.258 284.324C475.243 301.69 493.583 327.796 511.969 352.784C542 379.927 572.538 415.803 604.402 443.8C621.647 471.569 649.266 488.451 672.12 509.38C736.438 568.903 816.597 608.336 882.107 666.527C890.075 673.223 896.903 681.346 903.312 689.836C905.55 692.67 904.886 693.177 906.497 695.315C902.977 696.569 901.79 699.391 897.109 702.697C875.48 711.122 853.759 717.225 836.355 717.763C820.887 719.552 807.633 717.866 795.063 715.314C758.762 718.601 726.055 716.423 692.652 715.665C643.61 719.027 597.168 718.794 553.743 713.955C528.442 711.866 501.575 709.287 477.343 705.53C466.007 706.939 471.418 708.785 468.822 709.933C498.954 733.586 526.452 755.159 558.356 777.002C565.933 783.801 579.038 793.425 587.756 799.383C601.405 813.181 615.611 826.316 629.54 839.796C678.312 889.483 728.614 937.528 779.084 985.083C817.661 1019.72 866.84 1056.21 898.626 1086.88C921.429 1110.52 946.817 1130.89 969.024 1155.17C965.385 1160.3 963.046 1163.98 958.921 1169.68C952.781 1172.65 940.076 1176.54 932.76 1178.78L931.889 1179.05C898.278 1188.45 866.318 1195.38 834.083 1202.64C811.855 1207.39 779.133 1219.44 758.136 1224.8C765.618 1227.76 771.189 1228.7 781.154 1231.53C800.193 1236.74 823.248 1236.31 842.687 1240.96C879.096 1255.93 913.339 1273.6 947.755 1291.12C1002.53 1318.84 1054.43 1350.86 1117.61 1367.4C1157.8 1384.81 1197.38 1402.89 1233.31 1426.11C1249.23 1436.67 1269.15 1443.91 1280.68 1460.02C1285.26 1465.89 1269.71 1472.15 1263.41 1476.09C1210.22 1507.98 1166.06 1520.88 1126.71 1529.91C1110.48 1534.92 1094.64 1539.17 1079.9 1541.57C1056.65 1546.84 1037 1550.43 1019.56 1554.51C1026.89 1557.02 1032.05 1556.44 1044.09 1560.26C1081.43 1569.71 1121.39 1576.43 1154.46 1591.83C1212.86 1619.14 1264.82 1654.85 1318.94 1687.73M528.058 285.977C513.891 289.181 497.884 295.514 485.157 296.577C468.801 297.721 452.046 299.552 436.122 299.969C458.152 316.463 474.754 341.453 491.285 365.458C519.6 391.368 548.815 425.986 579.162 452.657C595.797 480.523 623.218 497.094 645.765 517.749C713.144 580.108 797.117 621.407 865.719 682.387C873.902 689.297 880.902 697.689 887.526 706.4C889.857 709.337 889.286 709.892 891.035 712.124C887.72 713.352 886.909 716.147 882.412 719.47C861.795 727.574 840.968 733.398 824.324 733.94C809.22 735.802 796.283 734.255 783.988 731.904C746.776 735.685 713.26 733.831 679.017 733.44C628.041 737.222 579.756 737.278 534.661 732.47C508.242 730.358 480.227 727.904 455.096 723.822C443.791 725.039 448.398 726.725 445.4 727.718L448.092 729.833C475.698 751.522 500.876 771.302 530.26 791.518C537.391 798.119 550.306 807.708 558.634 813.423C572.14 827.37 586.251 840.596 600.131 854.107C649.753 904.912 701.252 953.644 752.795 1002.04C793.184 1038.28 843.79 1076.16 878.305 1107.86C903.222 1132.26 930.873 1153.18 955.129 1178.3C952.012 1183.41 950.245 1187.02 946.591 1192.76C940.858 1195.62 928.37 1199.44 921.276 1201.61L920.209 1201.94C885.926 1211.5 853.542 1218.19 820.662 1225.57C797.394 1230.54 763.766 1243.05 741.644 1248.65C748.766 1251.47 753.694 1252.38 763.354 1255.15C781.73 1260.23 803.943 1259.91 822.689 1264.48C859.554 1279.93 894.302 1298.01 929.321 1315.82C985.72 1344.34 1039.19 1377.26 1104.52 1393.88C1144.89 1410.82 1184.67 1428.41 1220.55 1451.49C1236.24 1461.84 1255.66 1469.14 1267.11 1484.85C1271.71 1490.63 1256.69 1496.45 1250.38 1500.38C1195.44 1533.27 1149.88 1546.36 1109.32 1555.49C1093.02 1560.41 1077.08 1564.64 1062.25 1567C1039.84 1572.04 1021.08 1575.53 1004.67 1579.47C1012.51 1582.08 1018.54 1581.4 1030.95 1585.14C1069.66 1594.48 1110.72 1601.43 1144.75 1617.28C1201.69 1643.9 1252.53 1678.48 1305.46 1710.3M519.105 301.452C503.957 304.736 486.863 311.319 473.218 312.363C455.771 313.493 437.918 315.325 420.98 315.621C441.055 331.242 455.919 355.116 470.596 378.138C497.195 402.817 525.086 436.175 553.917 461.52C569.941 489.483 597.165 505.744 619.404 526.124C689.845 591.319 777.63 634.485 849.326 698.253C857.725 705.377 864.895 714.038 871.736 722.97C874.159 726.011 873.681 726.614 875.568 728.939C872.458 730.142 872.023 732.908 867.709 736.249C848.104 744.032 828.172 749.578 812.288 750.124C797.547 752.059 784.928 750.651 772.907 748.502C734.783 752.775 700.459 751.247 665.377 751.221C612.466 755.423 562.338 755.769 515.573 750.992C488.036 748.855 458.873 746.528 432.844 742.121C421.569 743.146 425.373 744.673 421.972 745.51C449.182 766.901 473.389 786.141 502.159 806.041C508.843 812.443 521.568 821.998 529.507 827.47C542.87 841.566 556.885 854.882 570.716 868.426C621.189 920.349 673.886 969.766 726.501 1019C768.702 1056.85 820.735 1096.12 857.978 1128.85C885.009 1154 914.923 1175.47 941.229 1201.44C938.633 1206.52 937.437 1210.06 934.255 1215.85C928.58 1218.77 915.058 1222.83 908.524 1224.83C873.568 1234.55 840.761 1241.01 807.235 1248.51C782.927 1253.7 748.393 1266.66 725.146 1272.51C731.908 1275.19 736.194 1276.06 745.549 1278.78C763.262 1283.73 784.632 1283.53 802.687 1288C840.006 1303.93 875.26 1322.43 910.883 1340.52C968.902 1369.84 1023.94 1403.66 1091.42 1420.37C1131.98 1436.83 1171.96 1453.94 1207.78 1476.87C1223.23 1487.03 1242.15 1494.38 1253.53 1509.69C1258.15 1515.37 1243.66 1520.75 1237.35 1524.67C1180.65 1558.56 1133.69 1571.84 1091.91 1581.09C1075.56 1585.91 1059.51 1590.12 1044.6 1592.44C1023.02 1597.25 1005.16 1600.64 989.78 1604.43C998.129 1607.14 1005.03 1606.36 1017.81 1610.03C1057.88 1619.27 1100.04 1626.43 1135.04 1642.73C1190.52 1668.66 1240.22 1702.12 1291.98 1732.88M510.154 316.926C494.025 320.291 475.843 327.123 461.28 328.149C442.742 329.264 423.792 331.097 405.84 331.271C423.749 345.849 436.78 368.249 449.46 390.047L449.908 390.818C474.792 414.265 501.358 446.364 528.673 470.383C544.086 498.443 571.113 514.392 593.044 534.499C666.547 602.53 758.146 647.562 832.934 714.118C841.549 721.456 848.89 730.386 855.947 739.539C858.462 742.684 858.078 743.335 860.103 745.754C857.197 746.93 857.138 749.669 853.008 753.027C834.414 760.49 815.378 765.756 800.253 766.306C785.876 768.315 773.575 767.046 761.828 765.098C722.793 769.865 687.659 768.661 651.739 769.002C596.893 773.623 544.922 774.258 496.486 769.514L493.934 769.321C466.037 767.22 436.723 765.011 410.593 760.419C399.349 761.251 402.349 762.619 398.545 763.301C424.295 783.56 446.856 801.634 474.06 820.563C480.297 826.766 492.832 836.287 500.381 841.516C513.601 855.761 527.521 869.167 541.303 882.743C591.143 934.252 643.408 982.989 695.554 1031.62L700.209 1035.96C744.221 1075.42 797.681 1116.07 837.654 1149.84C866.798 1175.74 898.974 1197.76 927.331 1224.58C925.255 1229.64 924.632 1233.1 921.921 1238.94C916.604 1241.77 903.073 1245.81 896.84 1247.72C861.212 1257.6 827.981 1263.83 793.81 1271.44C768.462 1276.85 733.021 1290.28 708.65 1296.36C715.052 1298.9 718.696 1299.75 727.746 1302.41C744.795 1307.22 765.322 1307.14 782.685 1311.52C820.461 1327.93 856.219 1346.85 892.445 1365.23C952.087 1395.35 1008.69 1430.07 1078.32 1446.85C1119.08 1462.84 1159.25 1479.46 1195.01 1502.25C1210.23 1512.21 1228.65 1519.62 1239.95 1534.53C1244.59 1540.12 1230.64 1545.06 1224.32 1548.97C1165.86 1583.86 1117.51 1597.33 1074.51 1606.68C1058.1 1611.41 1041.94 1615.59 1026.95 1617.87C1006.21 1622.46 989.235 1625.74 974.89 1629.39C983.747 1632.2 991.525 1631.33 1004.67 1634.92C1046.1 1644.05 1089.37 1651.44 1125.33 1668.18C1179.34 1693.43 1227.92 1725.76 1278.51 1755.45M501.207 332.395C484.096 335.839 464.827 342.921 449.346 343.929C429.717 345.029 409.67 346.863 390.703 346.916C406.869 360.794 418.257 382.435 429.224 403.492C452.392 425.706 477.634 456.547 503.433 479.24C518.235 507.397 545.065 523.035 566.688 542.868C643.253 613.735 738.664 660.633 816.545 729.978C825.376 737.529 832.888 746.729 840.161 756.102C842.769 759.351 842.478 760.05 844.641 762.562C841.94 763.713 842.257 766.424 838.31 769.799C820.728 776.941 802.587 781.929 788.222 782.483C774.209 784.564 762.224 783.436 750.753 781.689C710.805 786.949 674.863 786.07 638.104 786.776C581.324 791.818 527.509 792.742 477.403 788.029C447.631 785.843 416.173 783.769 388.346 778.71C377.133 779.351 379.329 780.56 375.122 781.086C399.411 800.214 420.327 817.122 445.964 835.08C451.755 841.084 464.099 850.571 471.259 855.557C484.336 869.95 498.161 883.446 511.893 897.054C564.067 951.214 619.158 1002 673.92 1052.91C719.744 1093.98 774.63 1136.02 817.332 1170.82C848.591 1197.48 883.03 1220.05 913.436 1247.71C911.881 1252.75 911.83 1256.14 909.59 1262.02C904.631 1264.77 891.092 1268.79 885.16 1270.6C848.859 1280.64 815.204 1286.64 780.388 1294.37C754.001 1300 717.653 1313.89 692.158 1320.21C698.199 1322.61 701.201 1323.42 709.946 1326.03C726.332 1330.71 746.016 1330.75 762.688 1335.03C800.918 1351.92 837.182 1371.26 874.012 1389.93C935.274 1420.85 993.446 1456.46 1065.23 1473.33C1106.17 1488.84 1146.54 1504.98 1182.25 1527.63C1197.23 1537.39 1215.15 1544.85 1226.38 1559.37C1231.03 1564.85 1217.61 1569.35 1211.3 1573.26C1151.07 1609.14 1101.32 1622.8 1057.12 1632.26C1040.64 1636.9 1024.38 1641.06 1009.3 1643.3C989.394 1647.67 973.315 1650.84 960.004 1654.35C969.368 1657.26 978.019 1656.29 991.53 1659.8C1034.33 1668.83 1078.71 1676.44 1115.62 1693.62C1168.17 1718.18 1215.63 1749.39 1265.03 1778.02M492.248 347.865C474.156 351.389 453.8 358.72 437.401 359.71C416.681 360.795 395.536 362.63 375.555 362.562C389.766 375.568 399.416 396.093 408.529 416.167C429.981 437.149 453.899 466.731 478.181 488.098C492.374 516.352 519.006 531.679 540.321 551.238C619.948 624.94 719.172 673.705 800.146 745.838C809.192 753.604 816.876 763.072 824.365 772.667C827.065 776.019 826.868 776.766 829.168 779.372C826.672 780.497 827.365 783.18 823.602 786.573C807.032 793.394 789.785 798.103 776.179 798.661C762.531 800.815 750.863 799.826 739.667 798.28C698.807 804.033 662.057 803.48 624.458 804.552C565.743 810.013 510.085 811.228 458.31 806.545C427.419 804.336 394.813 802.387 366.088 797.004C354.905 797.452 356.298 798.501 351.688 798.872C374.517 816.869 393.787 832.61 417.857 849.597C423.201 855.402 435.356 864.855 442.125 869.598C455.06 884.141 468.79 897.726 482.472 911.367C535.498 966.645 591.786 1018.12 647.62 1069.86C695.256 1112.54 751.569 1155.97 797 1191.8C830.372 1219.22 867.074 1242.34 899.531 1270.84C898.496 1275.86 899.017 1279.17 897.248 1285.1C892.648 1287.77 879.1 1291.77 873.468 1293.49C836.495 1303.68 802.417 1309.46 766.955 1317.3C739.529 1323.15 702.275 1337.5 675.654 1344.06C681.335 1346.32 683.695 1347.1 692.135 1349.65C707.857 1354.2 726.699 1354.36 742.679 1358.55C781.365 1375.91 818.134 1395.67 855.567 1414.63C918.451 1446.35 978.19 1482.86 1052.13 1499.81C1093.26 1514.85 1133.82 1530.5 1169.47 1553C1184.22 1562.56 1201.64 1570.08 1212.79 1584.2C1217.46 1589.59 1204.58 1593.65 1198.26 1597.55C1136.28 1634.43 1085.13 1648.28 1039.71 1657.85C1023.17 1662.39 1006.81 1666.53 991.643 1668.73C972.571 1672.87 957.385 1675.94 945.107 1679.31C954.979 1682.32 964.503 1681.25 978.381 1684.68C1022.55 1693.6 1068.03 1701.44 1105.9 1719.07C1156.99 1742.94 1203.32 1773.02 1251.55 1800.59M483.301 363.333C464.228 366.937 442.785 374.519 425.467 375.489C403.656 376.56 381.414 378.396 360.419 378.207C372.675 390.341 380.587 409.749 387.845 428.841C407.581 448.591 430.176 476.914 452.942 496.954C466.523 525.306 492.958 540.322 513.966 559.607C596.654 636.145 699.691 686.776 783.758 761.698C793.02 769.677 800.875 779.415 808.58 789.23C811.372 792.687 811.268 793.482 813.706 796.181C811.415 797.28 812.484 799.936 808.904 803.345C793.346 809.846 776.995 814.276 764.149 814.837C750.864 817.066 739.513 816.216 728.591 814.871C686.821 821.117 649.261 820.888 610.823 822.327C550.174 828.208 492.673 829.712 439.227 825.061C407.218 822.827 373.465 821.005 343.841 815.296C332.689 815.552 333.278 816.442 328.266 816.657C349.634 833.523 367.258 848.098 389.762 864.113C394.659 869.72 406.623 879.139 413.004 883.638C425.795 898.33 439.43 912.006 453.063 925.679C506.939 982.075 564.424 1034.23 621.331 1086.82C670.779 1131.1 728.519 1175.92 776.68 1212.79C812.165 1240.95 851.129 1264.62 885.636 1293.97C885.122 1298.97 886.215 1302.21 884.918 1308.18C880.676 1310.76 867.119 1314.75 861.788 1316.37C824.143 1326.73 789.641 1332.27 753.534 1340.23C725.067 1346.3 686.907 1361.11 659.162 1367.91C664.483 1370.03 666.2 1370.78 674.335 1373.28C689.394 1377.69 707.394 1377.97 722.682 1382.06C761.823 1399.91 799.097 1420.08 837.134 1439.33C901.639 1471.85 962.946 1509.26 1039.04 1526.29C1080.35 1540.86 1121.11 1556.02 1156.71 1578.38C1171.22 1587.74 1188.15 1595.31 1199.22 1609.03C1203.91 1614.33 1191.56 1617.95 1185.23 1621.83C1121.49 1659.72 1068.95 1673.76 1022.31 1683.43C1005.71 1687.88 989.247 1692 973.996 1694.16C955.759 1698.08 941.466 1701.04 930.222 1704.27C940.6 1707.37 950.998 1706.21 965.243 1709.56C1010.77 1718.38 1057.36 1726.44 1096.19 1744.51C1145.82 1767.7 1191.02 1796.65 1238.07 1823.16M474.349 378.809C454.294 382.493 431.764 390.324 413.528 391.276C390.626 392.332 367.287 394.17 345.277 393.859C355.579 405.12 361.752 423.413 367.156 441.521C385.176 460.04 406.447 487.104 427.696 505.818C440.667 534.266 466.905 548.971 487.605 567.983C573.355 647.357 680.205 699.854 767.365 777.565C776.843 785.757 784.869 795.764 792.789 805.8C795.674 809.361 795.664 810.204 798.24 812.997C796.153 814.07 797.597 816.697 794.202 820.124C779.655 826.304 764.199 830.456 752.112 831.021C739.191 833.322 728.158 832.612 717.511 831.469C674.829 838.208 636.46 838.304 597.183 840.109C534.599 846.409 475.255 848.203 420.139 843.583C387.012 841.325 352.112 839.629 321.589 833.594C310.468 833.659 310.253 834.389 304.838 834.449C324.745 850.183 340.724 863.592 361.661 878.636C366.111 884.044 377.886 893.429 383.876 897.686C396.525 912.526 410.064 926.292 423.648 939.997C478.375 997.512 537.058 1050.36 595.037 1103.78C646.296 1149.67 705.464 1195.88 756.353 1233.77C793.953 1262.69 835.179 1286.92 871.736 1317.11C871.743 1322.09 873.408 1325.25 872.582 1331.27C868.698 1333.76 855.132 1337.73 850.103 1339.26C811.785 1349.78 776.86 1355.09 740.107 1363.17C710.601 1369.46 671.534 1384.73 642.664 1391.77C647.625 1393.75 648.7 1394.46 656.53 1396.9C670.926 1401.18 688.083 1401.58 702.679 1405.58C742.276 1423.91 780.055 1444.49 818.695 1464.04C884.822 1497.36 947.696 1535.66 1025.94 1552.78C1067.45 1566.87 1108.4 1581.54 1143.94 1603.76C1158.22 1612.92 1174.64 1620.55 1185.64 1633.87C1190.34 1639.08 1178.53 1642.26 1172.2 1646.13C1106.7 1685.01 1052.77 1699.25 1004.91 1709.03C988.246 1713.38 971.68 1717.48 956.343 1719.6C938.942 1723.29 925.541 1726.15 915.331 1729.23C926.217 1732.44 937.488 1731.18 952.1 1734.45C998.996 1743.16 1046.69 1751.44 1086.48 1769.96C1134.65 1792.46 1178.72 1820.29 1224.59 1845.74M465.398 394.283C444.362 398.047 420.744 406.128 401.59 407.061C377.597 408.103 353.161 409.941 330.137 409.51C338.484 419.899 342.919 437.075 346.469 454.201C362.773 471.487 382.719 497.292 402.452 514.68C414.813 543.226 440.853 557.62 461.245 576.357C550.057 658.567 660.72 712.931 750.973 793.43C760.666 801.836 768.864 812.113 777 822.369C779.978 826.033 780.06 826.924 782.774 829.811C780.892 830.858 782.713 833.458 779.5 836.902C765.966 842.762 751.405 846.635 740.078 847.203C727.52 849.578 716.804 849.007 706.432 848.065C662.838 855.297 623.661 855.718 583.544 857.889C519.026 864.61 457.839 866.692 401.053 862.104C366.808 859.821 330.76 858.252 299.338 851.892C288.247 851.764 287.229 852.336 281.411 852.24C299.858 866.843 314.191 879.085 333.562 893.158C337.565 898.367 349.149 907.718 354.75 911.732C367.256 926.721 380.7 940.577 394.235 954.314C449.812 1012.95 509.692 1066.48 568.744 1120.74C621.815 1168.24 682.41 1215.83 736.029 1254.76C775.741 1284.44 819.231 1309.21 857.838 1340.25C858.366 1345.21 860.602 1348.3 860.248 1354.36C856.722 1356.77 843.147 1360.72 838.419 1362.15C799.429 1372.82 764.079 1377.91 726.682 1386.11C696.136 1392.61 656.163 1408.35 626.168 1415.62C630.768 1417.46 631.201 1418.14 638.726 1420.53C652.459 1424.68 668.773 1425.2 682.678 1429.1C722.73 1447.91 761.014 1468.91 800.258 1488.74C868.006 1522.87 932.447 1562.07 1012.84 1579.27C1054.54 1592.88 1095.69 1607.06 1131.18 1629.14C1145.22 1638.11 1161.14 1645.79 1172.06 1658.71C1176.78 1663.82 1165.5 1666.56 1159.17 1670.42C1091.92 1710.3 1036.58 1724.73 987.507 1734.62C970.784 1738.88 954.114 1742.95 938.692 1745.03C922.126 1748.5 909.618 1751.25 900.441 1754.19C911.834 1757.5 923.978 1756.14 938.958 1759.34L941.379 1759.77C988.849 1768.23 1036.7 1776.77 1076.77 1795.42C1123.48 1817.23 1166.42 1843.92 1211.12 1868.32M456.451 409.752C434.433 413.596 409.729 421.926 389.657 422.841C364.572 423.869 339.039 425.708 315.001 425.155C321.393 434.672 324.09 450.732 325.785 466.875C340.374 482.929 358.995 507.476 377.213 523.538C388.962 552.18 414.805 566.263 434.89 584.727C526.763 669.772 641.24 726.002 734.585 809.29C744.372 817.803 752.656 828.196 760.906 838.545L761.215 838.933C764.285 842.701 764.461 843.64 767.312 846.62C765.635 847.641 767.832 850.214 764.803 853.675C752.28 859.214 738.615 862.808 728.047 863.38C715.854 865.828 705.455 865.397 695.357 864.656C650.851 872.381 610.866 873.127 569.909 875.664C503.457 882.804 440.427 885.177 381.97 880.62C346.607 878.313 309.412 876.87 277.091 870.184C266.031 869.864 264.21 870.277 257.989 870.025C274.975 883.497 287.663 894.573 305.466 907.675C309.023 912.685 320.417 922.002 325.629 925.772C337.991 940.91 351.34 954.856 364.826 968.626C421.254 1028.38 482.331 1082.59 542.456 1137.69C597.339 1186.8 659.36 1235.78 715.708 1275.74C757.535 1306.17 803.287 1331.5 843.944 1363.38C844.992 1368.32 847.8 1371.33 847.918 1377.44C844.75 1379.76 831.166 1383.69 826.739 1385.04C787.077 1395.87 751.304 1400.72 713.261 1409.04C681.675 1415.76 640.795 1431.96 609.676 1439.47C613.916 1441.17 613.707 1441.82 620.927 1444.16C633.996 1448.17 649.468 1448.8 662.68 1452.61C703.188 1471.9 741.978 1493.32 781.825 1513.44C851.194 1548.37 917.202 1588.47 999.748 1605.75C1041.64 1618.89 1082.98 1632.58 1118.41 1654.52C1132.22 1663.28 1147.65 1671.02 1158.49 1683.54C1163.23 1688.56 1152.48 1690.86 1146.15 1694.71C1077.13 1735.59 1020.4 1750.21 970.11 1760.2C953.326 1764.37 936.552 1768.42 921.044 1770.46C905.314 1773.7 893.699 1776.35 885.556 1779.15C897.456 1782.56 910.473 1781.1 925.82 1784.22C975.448 1792.72 1025.35 1801.45 1067.06 1820.86C1112.31 1841.98 1154.12 1867.56 1197.64 1890.89M447.492 425.221C424.494 429.145 398.702 437.725 377.712 438.622C351.536 439.635 324.905 441.475 299.853 440.8C304.29 449.446 305.249 464.389 305.09 479.55C317.963 494.372 335.261 517.659 351.961 532.395C363.1 561.135 388.746 574.906 408.523 593.096C503.458 680.978 621.748 739.074 718.186 825.15C728.311 833.984 736.85 844.799 745.418 855.497C748.581 859.369 748.85 860.356 751.84 863.43C750.367 864.425 752.94 866.97 750.094 870.448C738.583 875.666 725.813 878.982 716.005 879.558C704.175 882.079 694.094 881.787 684.271 881.247C638.853 889.466 598.059 890.537 556.263 893.44C487.877 901 423.003 903.662 362.877 899.136C326.396 896.805 288.052 895.488 254.833 888.477C243.804 887.965 241.178 888.218 234.555 887.811C250.08 900.152 261.123 910.061 277.36 922.192C280.469 927.003 291.673 936.286 296.495 939.813C308.715 955.1 321.969 969.137 335.405 982.938C392.684 1043.81 454.958 1098.71 516.156 1154.65C572.85 1205.36 636.298 1255.73 695.376 1296.73C739.316 1327.91 787.331 1353.78 830.038 1386.51C831.607 1391.43 834.987 1394.37 835.576 1400.52C832.766 1402.76 819.174 1406.67 815.048 1407.92C774.713 1418.91 738.516 1423.53 699.828 1431.97C667.202 1438.91 625.416 1455.57 593.173 1463.32C597.052 1464.88 596.201 1465.5 603.116 1467.78C615.522 1471.66 630.151 1472.41 642.672 1476.13C683.635 1495.89 722.93 1517.73 763.38 1538.14C834.371 1573.87 901.946 1614.86 986.644 1632.23C1028.72 1644.89 1070.26 1658.1 1105.64 1679.89C1119.21 1688.46 1134.14 1696.25 1144.9 1708.38C1149.66 1713.29 1139.44 1715.16 1133.11 1719C1062.34 1760.88 1004.21 1775.69 952.702 1785.79C935.856 1789.86 918.979 1793.89 903.386 1795.89C888.49 1798.91 877.769 1801.45 870.659 1804.11C883.066 1807.61 896.957 1806.06 912.671 1809.1C963.664 1817.5 1014.67 1826.45 1057.35 1846.31C1101.13 1866.74 1141.81 1891.19 1184.16 1913.46M438.54 440.696C414.56 444.699 387.682 453.529 365.773 454.408C338.507 455.406 310.779 457.247 284.712 456.451C287.194 464.225 286.415 478.052 284.402 492.23C295.558 505.82 311.532 527.848 326.717 541.258C337.245 570.095 362.693 583.555 382.163 601.471C480.16 692.189 602.262 752.151 701.793 841.016C712.134 850.063 720.844 861.147 729.629 872.066C732.884 876.042 733.246 877.077 736.373 880.244C735.106 881.214 738.054 883.731 735.392 887.227C724.893 892.124 713.018 895.161 703.969 895.741C692.504 898.335 682.739 898.182 673.191 897.844C626.862 906.556 585.259 907.952 542.624 911.221C472.303 919.2 405.586 922.152 343.79 917.657C306.19 915.302 266.699 914.111 232.581 906.775C221.583 906.071 218.154 906.165 211.128 905.603C225.192 916.812 234.589 925.555 249.259 936.714C251.922 941.327 262.936 950.575 267.369 953.86C279.446 969.296 292.604 983.422 305.991 997.256C364.121 1059.24 427.592 1114.83 489.862 1171.61C548.369 1223.93 613.244 1275.69 675.05 1317.72C721.104 1349.65 771.382 1376.08 816.139 1409.65C818.229 1414.55 822.181 1417.41 823.241 1423.61C820.789 1425.76 807.188 1429.66 803.363 1430.81C762.356 1441.96 725.736 1446.35 686.402 1454.9C652.737 1462.07 610.044 1479.19 576.676 1487.18C580.195 1488.6 578.702 1489.18 585.312 1491.41C597.054 1495.15 610.841 1496.03 622.67 1499.65C664.088 1519.89 703.888 1542.15 744.942 1562.85C817.555 1599.37 886.697 1641.27 973.547 1658.71C1015.81 1670.9 1057.55 1683.62 1092.87 1705.27C1106.2 1713.64 1120.63 1721.49 1131.32 1733.22C1136.1 1738.04 1126.42 1739.46 1120.08 1743.29C1047.55 1786.17 988.026 1801.17 935.3 1811.38L935.151 1811.41C918.294 1815.38 901.367 1819.37 885.734 1821.33C871.674 1824.12 861.845 1826.55 855.768 1829.07C868.683 1832.68 883.447 1831.03 899.528 1833.99C951.887 1842.28 1004 1851.45 1047.64 1871.76C1089.95 1891.51 1129.51 1914.82 1170.68 1936.03M429.593 456.165C404.632 460.248 376.666 469.327 353.84 470.188C325.482 471.171 296.657 473.014 269.576 472.096C270.103 478.997 267.586 491.708 263.718 504.903C273.159 517.262 287.809 538.031 301.477 550.115C311.395 579.049 336.646 592.198 355.808 609.84C456.866 703.393 582.781 765.222 685.405 856.875C695.962 866.136 704.843 877.49 713.844 888.63C717.191 892.709 717.647 893.792 720.912 897.053C719.849 897.997 723.173 900.486 720.695 903.999C711.208 908.576 700.227 911.334 691.938 911.917C680.837 914.585 671.389 914.572 662.116 914.434C614.875 923.64 572.463 925.36 528.989 928.995C456.734 937.395 388.174 940.636 324.707 936.173C285.99 933.793 245.351 932.728 210.335 925.067C199.367 924.171 195.134 924.105 187.705 923.388C200.309 933.465 208.06 941.042 221.164 951.231C223.38 955.644 234.204 964.858 238.247 967.9C250.181 983.485 263.244 997.701 276.581 1011.57C335.562 1074.67 400.231 1130.95 463.574 1188.56C523.892 1242.49 590.194 1295.64 654.729 1338.7C702.897 1371.39 755.437 1398.36 802.244 1432.78C804.855 1437.66 809.379 1440.45 810.911 1446.69C808.817 1448.76 795.207 1452.64 791.683 1453.7C750.004 1465 712.959 1469.17 672.981 1477.83C638.276 1485.22 594.677 1502.8 560.184 1511.03C563.343 1512.31 561.207 1512.86 567.512 1515.03C578.591 1518.64 591.535 1519.63 602.672 1523.16C644.546 1543.89 684.851 1566.56 726.509 1587.55C800.743 1624.88 871.453 1667.66 960.454 1685.19C1002.91 1696.91 1044.84 1709.14 1080.11 1730.65C1093.2 1738.82 1107.14 1746.72 1117.75 1758.05C1122.54 1762.78 1113.39 1763.76 1107.06 1767.58C1032.76 1811.45 971.846 1826.65 917.903 1836.96L916.03 1837.39C899.68 1841.14 883.271 1844.91 868.086 1846.76C854.862 1849.32 845.926 1851.65 840.883 1854.02C854.305 1857.73 869.942 1855.99 886.39 1858.87C940.115 1867.06 993.33 1876.45 1037.93 1897.2C1078.78 1916.26 1117.22 1938.46 1157.21 1958.6M420.642 471.639C394.7 475.802 365.647 485.132 341.902 485.973C312.453 486.942 282.531 488.786 254.435 487.747C253.008 493.776 248.753 505.371 243.03 517.583C250.755 528.709 264.081 548.22 276.233 558.977C285.54 588.008 310.594 600.847 329.448 618.215C433.568 714.604 563.297 778.3 669.013 872.741C679.785 882.216 688.838 893.838 698.054 905.199C701.494 909.382 702.043 910.513 705.446 913.868C704.588 914.785 708.288 917.247 705.994 920.777C697.518 925.033 687.433 927.512 679.904 928.1C669.166 930.841 660.036 930.967 651.037 931.031C602.884 940.729 559.664 942.775 515.351 946.776C441.161 955.595 370.758 959.126 305.621 954.694C265.785 952.29 223.999 951.352 188.084 943.365C177.147 942.276 172.111 942.052 164.279 941.179C175.422 950.125 181.528 956.536 193.065 965.753C194.834 969.968 205.468 979.148 209.121 981.946C220.912 997.68 233.88 1011.99 247.168 1025.89C307 1090.11 372.865 1147.07 437.281 1205.52C499.411 1261.05 567.14 1315.59 634.405 1359.69C684.686 1393.13 739.489 1420.65 788.346 1455.92C791.478 1460.78 796.573 1463.49 798.576 1469.78C796.841 1471.76 783.222 1475.62 779.999 1476.59C737.647 1488.05 700.179 1491.99 659.555 1500.77C623.811 1508.37 579.305 1526.42 543.688 1534.89C546.486 1536.03 543.708 1536.54 549.708 1538.66C560.124 1542.14 572.226 1543.25 582.671 1546.68C625 1567.89 665.811 1590.97 708.071 1612.26C783.927 1650.38 856.204 1694.07 947.358 1711.68C990.002 1722.92 1032.13 1734.67 1067.34 1756.03C1080.2 1764 1093.63 1771.96 1104.17 1782.89C1108.99 1787.52 1100.37 1788.06 1094.03 1791.88C1017.97 1836.75 955.662 1852.13 900.502 1862.55C883.473 1866.35 866.285 1870.31 850.435 1872.19C838.046 1874.53 830.003 1876.76 825.993 1878.99C839.923 1882.79 856.433 1880.96 873.248 1883.76C928.339 1891.84 982.658 1901.46 1028.22 1922.65C1067.61 1941.03 1104.91 1962.09 1143.73 1981.18M411.688 487.103C384.764 491.346 354.624 500.925 329.961 501.748C299.421 502.703 268.401 504.547 239.292 503.387C235.91 508.544 229.916 519.022 222.339 530.252C228.349 540.147 240.35 558.398 250.986 567.829C259.682 596.957 284.539 609.485 303.085 626.579C410.267 725.804 543.809 791.366 652.618 888.596C663.606 898.284 672.83 910.176 682.262 921.758C685.794 926.044 686.437 927.224 689.977 930.672C689.324 931.563 693.4 933.997 691.289 937.545C683.825 941.48 674.635 943.681 667.865 944.272C657.499 947.084 648.692 947.351 639.975 947.616L639.955 947.617C590.89 957.808 546.861 960.179 501.709 964.546C425.584 973.785 353.338 977.605 286.531 973.205C245.578 970.776 202.644 969.964 165.83 961.653C154.923 960.371 149.084 959.988 140.849 958.959C150.531 966.774 154.991 972.018 164.962 980.264C166.285 984.28 176.728 993.426 179.992 995.982C191.64 1011.86 204.513 1026.26 217.751 1040.19C278.434 1105.53 345.497 1163.18 410.985 1222.47C474.927 1279.61 544.082 1335.54 614.077 1380.66C666.472 1414.86 723.537 1442.94 774.444 1479.04C778.097 1483.88 783.765 1486.52 786.239 1492.85C784.861 1494.75 771.234 1498.59 768.312 1499.47C725.288 1511.09 687.396 1514.79 646.127 1523.7C609.342 1531.52 563.93 1550.02 527.188 1558.73C529.627 1559.73 526.207 1560.21 531.901 1562.27C541.654 1565.62 552.913 1566.85 562.667 1570.19C605.451 1591.88 646.767 1615.38 689.631 1636.95C767.108 1675.88 840.952 1720.46 934.258 1738.15C977.091 1748.92 1019.42 1760.18 1054.57 1781.4C1067.2 1789.17 1080.13 1797.19 1090.59 1807.72C1095.42 1812.25 1087.34 1812.36 1080.99 1816.16C1003.18 1862.03 939.474 1877.6 883.098 1888.13C866.008 1891.84 848.716 1895.77 832.781 1897.62C821.227 1899.73 814.077 1901.85 811.1 1903.94C825.537 1907.85 842.921 1905.91 860.103 1908.63C916.559 1916.62 971.984 1926.45 1018.5 1948.09C1056.43 1965.78 1092.61 1985.72 1130.25 2003.74M405.141 504.452C377.236 508.776 346.009 518.604 320.428 519.409C288.797 520.349 256.68 522.194 226.556 520.913C221.219 525.198 213.487 534.56 204.056 544.807C208.35 553.469 219.027 570.462 228.147 578.567C236.232 607.792 260.891 620.008 279.13 636.829C389.374 738.89 526.728 806.318 638.631 906.336C649.834 916.238 659.23 928.399 668.877 940.202C672.502 944.593 673.238 945.82 676.916 949.361C676.468 950.227 680.92 952.633 678.992 956.198C672.54 959.813 664.245 961.734 658.235 962.329C648.483 965.142 640.169 965.6 631.934 966.052L631.28 966.088C581.304 976.773 536.466 979.468 490.475 984.202C412.415 993.861 338.326 997.97 269.849 993.601C227.778 991.148 183.696 990.463 145.983 981.825C135.108 980.352 128.464 979.809 119.827 978.625C128.049 985.309 130.863 989.387 139.267 996.662C140.143 1000.48 150.396 1009.59 153.271 1011.9C164.776 1027.93 177.554 1042.42 190.743 1056.38C252.276 1122.85 320.536 1181.17 387.097 1241.3C452.85 1300.05 523.433 1357.37 596.156 1403.53C650.665 1438.48 709.993 1467.1 762.95 1504.05C767.124 1508.87 773.363 1511.44 776.309 1517.81C775.289 1519.63 761.654 1523.45 759.032 1524.23C715.336 1536.02 677.021 1539.49 635.106 1548.51C597.282 1556.55 550.963 1575.51 513.096 1584.46C515.175 1585.32 511.112 1585.77 516.502 1587.78C525.591 1590.99 536.008 1592.34 545.07 1595.58C588.31 1617.75 630.131 1641.67 673.598 1663.53C752.697 1703.26 828.108 1748.74 923.566 1766.51C966.589 1776.81 1009.11 1787.58 1044.21 1808.66C1056.6 1816.23 1069.03 1824.3 1079.42 1834.43C1084.27 1838.87 1076.71 1838.54 1070.37 1842.33C990.797 1889.2 925.695 1904.96 868.102 1915.6C850.95 1919.21 833.555 1923.12 817.534 1924.93C806.815 1926.82 800.558 1928.83 798.615 1930.78C813.559 1934.78 831.816 1932.75 849.366 1935.4C907.188 1943.27 963.717 1953.33 1011.2 1975.42C1047.66 1992.42 1082.71 2011.23 1119.17 2028.19M401.079 523.741C372.192 528.144 339.878 538.222 313.379 539.009C280.657 539.934 247.442 541.781 216.305 540.378C209.013 543.791 199.543 552.037 188.257 561.301C190.835 568.731 200.188 584.465 207.792 591.244C215.266 620.566 239.728 632.471 257.66 649.018C370.965 753.915 512.132 823.209 627.128 926.016C638.547 936.132 648.113 948.562 657.977 960.585C661.694 965.08 662.523 966.355 666.34 969.99C666.096 970.83 670.924 973.208 669.18 976.791C663.739 980.085 656.34 981.728 651.089 982.326C641.443 985.287 633.264 985.832 625.09 986.499C574.202 997.677 528.555 1000.7 481.725 1005.8C401.731 1015.88 325.799 1020.27 255.651 1015.94C212.462 1013.46 167.233 1012.9 128.621 1003.94C117.777 1002.27 110.329 1001.57 101.289 1000.23C108.05 1005.78 109.219 1008.69 116.056 1015C116.486 1018.62 126.549 1027.69 129.034 1029.76C140.396 1045.94 153.079 1060.52 166.218 1074.52C228.602 1142.1 298.059 1201.11 365.693 1262.08C433.258 1322.43 505.268 1381.14 580.72 1428.33C637.343 1464.04 698.934 1493.21 753.941 1531C758.635 1535.8 765.446 1538.3 768.864 1544.72C768.202 1546.44 754.557 1550.25 752.237 1550.94C707.869 1562.88 669.13 1566.12 626.569 1575.26C587.705 1583.52 540.481 1602.95 501.489 1612.13C503.207 1612.85 498.503 1613.27 503.588 1615.22C512.013 1618.3 521.587 1619.77 529.957 1622.92C573.653 1645.56 615.979 1669.9 660.05 1692.05C740.77 1732.58 817.748 1778.96 915.358 1796.81C958.57 1806.63 1001.29 1816.92 1036.33 1837.85C1048.48 1845.23 1060.42 1853.35 1070.73 1863.08C1075.6 1867.43 1068.57 1866.66 1062.23 1870.44C980.898 1918.3 914.399 1934.26 855.59 1945.01C838.377 1948.52 820.878 1952.41 804.771 1954.18C794.888 1955.84 789.524 1957.75 788.614 1959.55C804.066 1963.66 823.196 1961.53 841.113 1964.1C900.3 1971.87 957.934 1982.15 1006.37 2004.68C1041.38 2020.99 1075.3 2038.68 1110.59 2054.58M397.022 543.024C367.154 547.507 333.753 557.834 306.335 558.602C272.523 559.513 238.211 561.361 206.059 559.837C196.988 562.329 186.03 569.237 173.213 577.316L172.464 577.789C173.326 583.987 181.355 598.462 187.442 603.914C194.306 633.334 218.571 644.928 236.194 661.201C352.562 768.933 497.542 840.094 615.63 945.689C627.265 956.019 637.002 968.718 647.082 980.962C650.892 985.561 651.814 986.884 655.768 990.613C655.729 991.427 660.933 993.777 659.372 997.377C654.944 1000.35 648.44 1001.71 643.949 1002.32C634.666 1005.35 626.805 1006.03 618.905 1006.9C567.105 1018.57 520.65 1021.92 472.98 1027.39C391.052 1037.88 313.277 1042.57 241.459 1038.27C197.152 1035.76 150.775 1035.33 111.265 1026.04C100.451 1024.19 92.2 1023.32 82.7569 1021.83C88.0574 1026.25 87.5807 1028 92.8513 1033.33C92.8336 1036.75 102.707 1045.79 104.802 1047.62C116.021 1063.95 128.609 1078.61 141.699 1092.64C204.934 1161.34 275.588 1221.04 344.295 1282.84C413.672 1344.81 487.108 1404.9 565.29 1453.12C624.026 1489.59 687.879 1519.31 744.937 1557.95C750.152 1562.73 757.535 1565.15 761.424 1571.61C761.12 1573.25 747.467 1577.04 745.448 1577.64C700.406 1589.74 661.244 1592.75 618.038 1602C578.135 1610.48 530.003 1630.37 489.887 1639.79C491.245 1640.37 485.898 1640.76 490.678 1642.66C498.441 1645.6 507.172 1647.19 514.85 1650.24C559.001 1673.37 601.832 1698.12 646.507 1720.57C728.848 1761.89 807.394 1809.17 907.156 1827.11C950.557 1836.45 993.472 1846.25 1028.46 1867.04C1040.38 1874.22 1051.81 1882.4 1062.04 1891.73C1066.93 1895.98 1060.44 1894.77 1054.09 1898.54C971.003 1947.4 903.109 1963.55 843.083 1974.4C825.809 1977.82 808.206 1981.69 792.014 1983.42C782.966 1984.86 778.495 1986.66 778.619 1988.32C794.578 1992.53 814.581 1990.31 832.865 1992.79C893.418 2000.46 952.157 2010.96 1001.56 2033.94C1035.1 2049.57 1067.9 2066.13 1102 2080.97M392.961 562.312C362.111 566.874 327.623 577.452 299.287 578.202C264.384 579.098 228.974 580.946 195.808 579.301C184.606 580.97 171.66 586.983 156.666 594.282C155.812 599.248 162.517 612.464 167.088 616.591C173.341 646.107 197.408 657.39 214.725 673.389C334.154 783.957 482.947 856.985 604.128 965.368C615.978 975.912 625.887 988.88 636.183 1001.35C640.085 1006.05 641.1 1007.42 645.192 1011.24C645.358 1012.03 650.938 1014.35 649.561 1017.97C646.144 1020.62 640.535 1021.71 636.803 1022.31C627.885 1025.42 620.341 1026.24 612.716 1027.31C560.004 1039.48 512.74 1043.15 464.231 1048.98C380.369 1059.9 300.75 1064.88 227.262 1060.6C181.837 1058.07 134.313 1057.77 93.9035 1048.15C83.1201 1046.1 74.0658 1045.08 64.22 1043.43C68.0597 1046.72 65.9375 1047.3 69.6414 1051.66C69.177 1054.88 78.8602 1063.89 80.5659 1065.48C91.6421 1081.96 104.134 1096.71 117.175 1110.77C181.261 1180.59 253.112 1240.97 322.891 1303.62C394.08 1367.19 468.943 1428.67 549.855 1477.93C610.704 1515.14 676.821 1545.42 735.928 1584.9C741.663 1589.66 749.619 1592 753.979 1598.51C754.033 1600.07 740.371 1603.84 738.653 1604.34C692.94 1616.6 653.353 1619.38 609.502 1628.75C568.559 1637.45 519.522 1657.8 478.281 1667.46C479.278 1667.9 473.289 1668.25 477.764 1670.1C484.863 1672.91 492.752 1674.62 499.738 1677.58C544.345 1701.18 587.681 1726.35 632.959 1749.09C716.922 1791.21 797.035 1839.38 898.949 1857.41C942.539 1866.28 985.651 1875.59 1020.58 1896.24C1032.26 1903.22 1043.2 1911.45 1053.36 1920.38C1058.26 1924.54 1052.3 1922.88 1045.95 1926.64C961.104 1976.51 891.814 1992.85 830.572 2003.81C813.237 2007.14 795.53 2010.98 779.253 2012.67C771.04 2013.89 767.462 2015.58 768.619 2017.1C785.085 2021.41 805.962 2019.09 824.613 2021.49C886.531 2029.06 946.375 2039.78 996.737 2063.2C1028.82 2078.14 1060.48 2093.58 1093.41 2107.36M388.893 581.595C357.062 586.238 321.486 597.065 292.232 597.796C256.238 598.678 219.731 600.527 185.551 598.76C172.394 599.557 157.71 604.454 140.861 610.77C138.291 614.504 143.673 626.462 146.727 629.262C152.37 658.875 176.239 669.847 193.248 685.572C315.739 798.977 468.345 873.87 592.619 985.042C604.685 995.8 614.765 1009.04 625.277 1021.72C629.271 1026.53 630.38 1027.95 634.61 1031.86C634.98 1032.63 640.936 1034.92 639.742 1038.56C637.338 1040.89 632.623 1041.69 629.652 1042.3C621.097 1045.48 613.87 1046.45 606.52 1047.72C552.896 1060.38 504.824 1064.37 455.476 1070.57C369.679 1081.91 288.217 1087.17 213.059 1082.93C166.515 1080.38 117.844 1080.2 76.5357 1070.26C65.7831 1068.02 55.9251 1066.84 45.6765 1065.03C48.0555 1067.19 44.2878 1066.6 46.425 1069.99C45.5138 1073.02 55.0069 1081.99 56.3231 1083.33C67.2564 1099.96 79.6535 1114.81 92.6448 1128.9C157.581 1199.83 230.63 1260.9 301.482 1324.38C374.482 1389.57 450.772 1452.44 534.413 1502.72C597.376 1540.69 665.755 1571.52 726.913 1611.84C733.169 1616.58 741.696 1618.85 746.527 1625.41C746.94 1626.88 733.269 1630.63 731.852 1631.04C685.466 1643.46 645.456 1646.01 600.96 1655.49C558.977 1664.41 509.033 1685.23 466.668 1695.13C467.305 1695.43 460.674 1695.74 464.844 1697.53C471.279 1700.21 478.325 1702.04 484.62 1704.9C529.682 1728.99 573.523 1754.58 619.405 1777.6C704.989 1820.53 786.669 1869.59 890.735 1887.7C934.515 1896.1 977.822 1904.92 1012.7 1925.43C1024.14 1932.21 1034.58 1940.49 1044.66 1949.03C1049.58 1953.09 1044.16 1951 1037.81 1954.75C951.199 2005.61 880.513 2022.14 818.054 2033.21C800.658 2036.44 782.848 2040.27 766.484 2041.91C759.107 2042.91 756.422 2044.5 758.612 2045.87C775.586 2050.28 797.336 2047.86 816.354 2050.19C879.638 2057.65 940.587 2068.59 991.909 2092.46L995.646 2094.2C1025.01 2107.88 1054.36 2121.54 1084.82 2133.74M385.017 601.018C352.205 605.741 315.542 616.818 285.37 617.531C248.284 618.398 210.68 620.248 175.485 618.36C160.374 618.285 143.952 622.065 125.249 627.399C120.963 629.901 125.02 640.6 126.558 642.074C131.59 671.784 155.263 682.445 171.964 697.896C297.516 814.136 453.935 890.896 581.302 1004.86C593.584 1015.83 603.835 1029.33 614.563 1042.24L614.783 1042.51C618.694 1047.21 619.931 1048.69 624.219 1052.63C624.795 1053.36 631.127 1055.63 630.116 1059.28C628.723 1061.29 624.904 1061.82 622.692 1062.44C614.501 1065.69 607.591 1066.79 600.516 1068.26C545.981 1081.41 497.1 1085.73 446.912 1092.3C359.181 1104.06 275.876 1109.61 199.048 1105.4C151.386 1102.83 101.567 1102.77 59.3601 1092.51C48.6382 1090.07 37.9766 1088.74 27.3251 1086.77C28.2436 1087.8 22.8302 1086.05 23.4008 1088.47C22.0428 1091.29 31.3458 1100.23 32.2725 1101.33C43.0628 1118.1 55.3647 1133.04 68.3066 1147.16C134.094 1219.22 208.34 1280.97 280.264 1345.29C355.077 1412.08 432.794 1476.34 519.163 1527.66C584.24 1566.38 654.882 1597.76 718.089 1638.93C724.866 1643.65 733.966 1645.85 739.268 1652.44C740.014 1653.78 727.235 1657.33 725.391 1657.84L725.243 1657.88C678.185 1670.46 637.752 1672.77 592.61 1682.38C549.587 1691.52 498.737 1712.79 455.247 1722.93C455.523 1723.09 448.25 1723.38 452.115 1725.11C457.888 1727.66 464.091 1729.6 469.694 1732.37C515.211 1756.94 559.558 1782.94 606.042 1806.26C693.248 1849.98 776.496 1899.95 882.714 1918.14C926.683 1926.06 970.186 1934.39 1005.01 1954.76C1016.22 1961.34 1026.16 1969.68 1036.16 1977.82C1041.1 1981.78 1036.21 1979.25 1029.85 1982.99C941.485 2034.85 869.404 2051.58 805.728 2062.75C788.271 2065.89 770.357 2069.69 753.908 2071.3C747.366 2072.06 745.574 2073.55 748.798 2074.78C766.279 2079.29 788.902 2076.78 808.287 2079.03C872.937 2086.38 934.99 2097.55 987.273 2121.86C1016.43 2135.43 1045.84 2148.61 1076.42 2160.26" stroke="url(#paint0_linear_57_7746)"/>
<defs>
<linearGradient id="paint0_linear_57_7746" x1="1517.5" y1="243" x2="179.5" y2="1683.5" gradientUnits="userSpaceOnUse">
<stop stop-color="#30CBAF"/>
<stop offset="1" stop-color="#361DCC"/>
</linearGradient>
</defs>
</svg>
