<svg width="1440" height="454" viewBox="0 0 1440 454" fill="none" xmlns="http://www.w3.org/2000/svg" >
<path d="M322 249.709C141.5 288.21 184.5 104.709 19.5 104.709C-145.5 104.709 -217.974 -33.6234 -241 7.7094L-168 464.209C-168 464.209 1437.5 519.709 1498 524.209C1558.5 528.709 1687 214.632 1638 209.709C1589 204.787 1670.5 135.709 1485.5 135.709C1300.5 135.709 1302.5 289.71 1156.5 249.709C1010.5 209.709 1001.5 249 966 275.5C930.5 302 876.5 423.5 719 423.5C561.5 423.5 502.5 211.209 322 249.709Z" 
fill="#009DBF"/>
</svg>
