<svg width="1384" height="358" viewBox="0 0 1384 358" fill="none" xmlns="http://www.w3.org/2000/svg">
<rect x="184.615" y="204.209" width="103.208" height="157.812" stroke="url(#paint0_linear_57_9830)" stroke-width="6"/>
<rect x="947.978" y="289.391" width="103.208" height="72.6296" stroke="url(#paint1_linear_57_9830)" stroke-width="6"/>
<path d="M1360.24 6.26709C1360.24 4.61024 1358.9 3.26709 1357.24 3.26709H1251.3C1249.64 3.26709 1248.3 4.61024 1248.3 6.26709V362.021H1360.24V6.26709Z" stroke="url(#paint2_linear_57_9830)" stroke-width="6"/>
<path d="M1360.24 6.26709C1360.24 4.61024 1358.9 3.26709 1357.24 3.26709H1321.47V362.021H1360.24V6.26709Z" stroke="url(#paint3_linear_57_9830)" stroke-width="6"/>
<path d="M1380.99 98.0017C1380.99 96.3448 1379.65 95.0016 1377.99 95.0016H1177.04C1175.38 95.0016 1174.04 96.3448 1174.04 98.0016V362.021H1380.99V98.0017Z" stroke="url(#paint4_linear_57_9830)" stroke-width="6"/>
<path d="M1380.99 98.0017C1380.99 96.3448 1379.65 95.0016 1377.99 95.0016H1321.47V362.021H1380.99V98.0017Z" stroke="url(#paint5_linear_57_9830)" stroke-width="6"/>
<path d="M293.823 125.304C293.823 123.647 295.166 122.304 296.823 122.304H394.031C395.688 122.304 397.031 123.647 397.031 125.304V362.021H293.823V125.304Z" stroke="url(#paint6_linear_57_9830)" stroke-width="6"/>
<path d="M253.416 125.304C253.416 123.647 254.759 122.304 256.416 122.304H356.624V362.021H253.416V125.304Z" stroke="url(#paint7_linear_57_9830)" stroke-width="6"/>
<mask id="path-9-inside-1_57_9830" fill="white">
<path d="M243.864 131.04C243.864 129.383 245.207 128.04 246.864 128.04H359.624V152.066H246.864C245.207 152.066 243.864 150.723 243.864 149.066V131.04Z"/>
</mask>
<path d="M243.864 131.04C243.864 129.383 245.207 128.04 246.864 128.04H359.624V152.066H246.864C245.207 152.066 243.864 150.723 243.864 149.066V131.04Z" stroke="url(#paint8_linear_57_9830)" stroke-width="12" mask="url(#path-9-inside-1_57_9830)"/>
<mask id="path-10-inside-2_57_9830" fill="white">
<path d="M405.491 131.04C405.491 129.383 404.148 128.04 402.491 128.04H358.532V152.066H402.491C404.148 152.066 405.491 150.723 405.491 149.066V131.04Z"/>
</mask>
<path d="M405.491 131.04C405.491 129.383 404.148 128.04 402.491 128.04H358.532V152.066H402.491C404.148 152.066 405.491 150.723 405.491 149.066V131.04Z" stroke="url(#paint9_linear_57_9830)" stroke-width="12" mask="url(#path-10-inside-2_57_9830)"/>
<path d="M552.646 117.659C552.646 116.002 553.989 114.659 555.646 114.659H831.954C833.611 114.659 834.954 116.002 834.954 117.659V362.021H552.646V117.659Z" stroke="url(#paint10_linear_57_9830)" stroke-width="6"/>
<path d="M614.894 91.4492C614.894 89.7923 616.237 88.4492 617.894 88.4492H769.706C771.362 88.4492 772.706 89.7923 772.706 91.4492V108.659H614.894V91.4492Z" stroke="url(#paint11_linear_57_9830)" stroke-width="6"/>
<path d="M552.646 117.659C552.646 116.002 553.989 114.659 555.646 114.659H642.748V362.021H552.646V117.659Z" stroke="url(#paint12_linear_57_9830)" stroke-width="6"/>
<path d="M744.851 114.659H831.954C833.611 114.659 834.954 116.002 834.954 117.659V362.021H744.851V114.659Z" stroke="url(#paint13_linear_57_9830)" stroke-width="6"/>
<path d="M441.254 246.8H579.684C581.341 246.8 582.684 248.144 582.684 249.8V362.021H441.254V246.8Z" stroke="url(#paint14_linear_57_9830)" stroke-width="6"/>
<path d="M315.665 189.736C315.665 188.079 317.008 186.736 318.665 186.736H435.399C436.302 186.736 437.157 187.143 437.727 187.843L579.377 362.021H315.665V189.736Z" stroke="url(#paint15_linear_57_9830)" stroke-width="6"/>
<path d="M304.744 321.062H545.129C546.039 321.062 546.899 321.475 547.469 322.184L579.431 362.021H304.744V321.062Z" stroke="url(#paint16_linear_57_9830)" stroke-width="6"/>
<path d="M1079.03 125.304C1079.03 123.647 1080.37 122.304 1082.03 122.304H1111.53C1113.18 122.304 1114.53 123.647 1114.53 125.304V143.606H1079.03V125.304Z" stroke="url(#paint17_linear_57_9830)" stroke-width="6"/>
<path d="M1168.04 305.951C1168.04 304.898 1167.48 303.921 1166.58 303.379L1022.41 216.879C1020.41 215.679 1017.87 217.119 1017.87 219.451V362.021H1168.04V305.951Z" stroke="url(#paint18_linear_57_9830)" stroke-width="6"/>
<path d="M1037.53 207.209C1037.53 205.553 1038.87 204.209 1040.53 204.209H1153.02C1154.68 204.209 1156.02 205.553 1156.02 207.209V307.417H1037.53V207.209Z" stroke="url(#paint19_linear_57_9830)" stroke-width="6"/>
<path d="M1057.19 152.606C1057.19 150.949 1058.53 149.606 1060.19 149.606H1133.37C1135.02 149.606 1136.37 150.949 1136.37 152.606V198.209H1057.19V152.606Z" stroke="url(#paint20_linear_57_9830)" stroke-width="6"/>
<path d="M1017.87 302.894C1017.87 301.84 1018.42 300.863 1019.33 300.321L1171.14 209.234C1173.14 208.034 1175.68 209.475 1175.68 211.807V362.021H1017.87V302.894Z" stroke="url(#paint21_linear_57_9830)" stroke-width="6"/>
<path d="M813.652 152.606C813.652 150.949 814.995 149.606 816.652 149.606H968.464C970.121 149.606 971.464 150.949 971.464 152.606V362.021H813.652V152.606Z" stroke="url(#paint22_linear_57_9830)" stroke-width="6"/>
<path d="M840.954 149.606H968.464C970.121 149.606 971.464 150.949 971.464 152.606V362.021H840.954V149.606Z" stroke="url(#paint23_linear_57_9830)" stroke-width="6"/>
<mask id="path-25-inside-3_57_9830" fill="white">
<rect x="805.192" y="159.71" width="174.732" height="24.0257" rx="3"/>
</mask>
<rect x="805.192" y="159.71" width="174.732" height="24.0257" rx="3" stroke="url(#paint24_linear_57_9830)" stroke-width="12" mask="url(#path-25-inside-3_57_9830)"/>
<mask id="path-26-inside-4_57_9830" fill="white">
<path d="M805.192 162.71C805.192 161.054 806.535 159.71 808.192 159.71H839.046V183.736H808.192C806.535 183.736 805.192 182.393 805.192 180.736V162.71Z"/>
</mask>
<path d="M805.192 162.71C805.192 161.054 806.535 159.71 808.192 159.71H839.046V183.736H808.192C806.535 183.736 805.192 182.393 805.192 180.736V162.71Z" stroke="url(#paint25_linear_57_9830)" stroke-width="12" mask="url(#path-26-inside-4_57_9830)"/>
<path d="M669.498 279.287C669.498 277.63 670.841 276.287 672.498 276.287H839.599C841.255 276.287 842.599 277.63 842.599 279.287V362.021H669.498V279.287Z" stroke="url(#paint26_linear_57_9830)" stroke-width="6"/>
<path d="M669.498 279.287C669.498 277.63 670.841 276.287 672.498 276.287H791.271V362.021H669.498V279.287Z" stroke="url(#paint27_linear_57_9830)" stroke-width="6"/>
<path d="M703.352 235.603C703.352 233.947 704.695 232.603 706.352 232.603H745.23C745.558 232.603 745.883 232.657 746.193 232.762L807.652 253.596V270.287H703.352V235.603Z" stroke="url(#paint28_linear_57_9830)" stroke-width="6"/>
<path d="M703.352 235.603C703.352 233.947 704.695 232.603 706.352 232.603H743.219V270.287H703.352V235.603Z" stroke="url(#paint29_linear_57_9830)" stroke-width="6"/>
<path d="M24.08 6.26709C24.08 4.61024 25.4231 3.26709 27.08 3.26709H133.024C134.681 3.26709 136.024 4.61024 136.024 6.26709V362.021H24.08V6.26709Z" stroke="url(#paint30_linear_57_9830)" stroke-width="6"/>
<path d="M24.08 6.26709C24.08 4.61024 25.4231 3.26709 27.08 3.26709H62.8551V362.021H24.08V6.26709Z" stroke="url(#paint31_linear_57_9830)" stroke-width="6"/>
<path d="M3.33038 98.0017C3.33038 96.3448 4.67353 95.0016 6.33038 95.0016H207.286C208.942 95.0016 210.286 96.3448 210.286 98.0016V362.021H3.33038V98.0017Z" stroke="url(#paint32_linear_57_9830)" stroke-width="6"/>
<path d="M3.33038 98.0017C3.33038 96.3448 4.67353 95.0016 6.33038 95.0016H62.855V362.021H3.33038V98.0017Z" stroke="url(#paint33_linear_57_9830)" stroke-width="6"/>
<defs>
<linearGradient id="paint0_linear_57_9830" x1="236.219" y1="201.209" x2="236.219" y2="365.021" gradientUnits="userSpaceOnUse">
<stop stop-color="#30CBAF"/>
<stop offset="1" stop-color="#44ADFF" stop-opacity="0"/>
</linearGradient>
<linearGradient id="paint1_linear_57_9830" x1="999.581" y1="286.391" x2="999.581" y2="365.021" gradientUnits="userSpaceOnUse">
<stop stop-color="#30CBAF"/>
<stop offset="1" stop-color="#44ADFF" stop-opacity="0"/>
</linearGradient>
<linearGradient id="paint2_linear_57_9830" x1="1304.27" y1="0.26709" x2="1304.27" y2="365.021" gradientUnits="userSpaceOnUse">
<stop stop-color="#30CBAF"/>
<stop offset="1" stop-color="#44ADFF" stop-opacity="0"/>
</linearGradient>
<linearGradient id="paint3_linear_57_9830" x1="1340.86" y1="0.26709" x2="1340.86" y2="365.021" gradientUnits="userSpaceOnUse">
<stop stop-color="#30CBAF"/>
<stop offset="1" stop-color="#44ADFF" stop-opacity="0"/>
</linearGradient>
<linearGradient id="paint4_linear_57_9830" x1="1277.52" y1="92.0016" x2="1277.52" y2="365.021" gradientUnits="userSpaceOnUse">
<stop stop-color="#30CBAF"/>
<stop offset="1" stop-color="#44ADFF" stop-opacity="0"/>
</linearGradient>
<linearGradient id="paint5_linear_57_9830" x1="1351.23" y1="92.0016" x2="1351.23" y2="365.021" gradientUnits="userSpaceOnUse">
<stop stop-color="#30CBAF"/>
<stop offset="1" stop-color="#44ADFF" stop-opacity="0"/>
</linearGradient>
<linearGradient id="paint6_linear_57_9830" x1="345.427" y1="119.304" x2="345.427" y2="365.021" gradientUnits="userSpaceOnUse">
<stop stop-color="#30CBAF"/>
<stop offset="1" stop-color="#44ADFF" stop-opacity="0"/>
</linearGradient>
<linearGradient id="paint7_linear_57_9830" x1="305.02" y1="119.304" x2="305.02" y2="365.021" gradientUnits="userSpaceOnUse">
<stop stop-color="#30CBAF"/>
<stop offset="1" stop-color="#44ADFF" stop-opacity="0"/>
</linearGradient>
<linearGradient id="paint8_linear_57_9830" x1="301.744" y1="128.04" x2="301.744" y2="152.066" gradientUnits="userSpaceOnUse">
<stop stop-color="#30CBAF"/>
<stop offset="1" stop-color="#44ADFF" stop-opacity="0"/>
</linearGradient>
<linearGradient id="paint9_linear_57_9830" x1="382.012" y1="128.04" x2="382.012" y2="152.066" gradientUnits="userSpaceOnUse">
<stop stop-color="#30CBAF"/>
<stop offset="1" stop-color="#44ADFF" stop-opacity="0"/>
</linearGradient>
<linearGradient id="paint10_linear_57_9830" x1="693.8" y1="111.659" x2="693.8" y2="365.021" gradientUnits="userSpaceOnUse">
<stop stop-color="#30CBAF"/>
<stop offset="1" stop-color="#44ADFF" stop-opacity="0"/>
</linearGradient>
<linearGradient id="paint11_linear_57_9830" x1="693.8" y1="85.4492" x2="693.8" y2="111.659" gradientUnits="userSpaceOnUse">
<stop stop-color="#30CBAF"/>
<stop offset="1" stop-color="#44ADFF" stop-opacity="0"/>
</linearGradient>
<linearGradient id="paint12_linear_57_9830" x1="597.697" y1="111.659" x2="597.697" y2="365.021" gradientUnits="userSpaceOnUse">
<stop stop-color="#30CBAF"/>
<stop offset="1" stop-color="#44ADFF" stop-opacity="0"/>
</linearGradient>
<linearGradient id="paint13_linear_57_9830" x1="789.903" y1="111.659" x2="789.903" y2="365.021" gradientUnits="userSpaceOnUse">
<stop stop-color="#30CBAF"/>
<stop offset="1" stop-color="#44ADFF" stop-opacity="0"/>
</linearGradient>
<linearGradient id="paint14_linear_57_9830" x1="511.969" y1="243.8" x2="511.969" y2="365.021" gradientUnits="userSpaceOnUse">
<stop stop-color="#30CBAF"/>
<stop offset="1" stop-color="#44ADFF" stop-opacity="0"/>
</linearGradient>
<linearGradient id="paint15_linear_57_9830" x1="449.174" y1="183.736" x2="449.174" y2="365.021" gradientUnits="userSpaceOnUse">
<stop stop-color="#30CBAF"/>
<stop offset="1" stop-color="#44ADFF" stop-opacity="0"/>
</linearGradient>
<linearGradient id="paint16_linear_57_9830" x1="443.714" y1="318.062" x2="443.714" y2="365.021" gradientUnits="userSpaceOnUse">
<stop stop-color="#30CBAF"/>
<stop offset="1" stop-color="#44ADFF" stop-opacity="0"/>
</linearGradient>
<linearGradient id="paint17_linear_57_9830" x1="1096.78" y1="119.304" x2="1096.78" y2="146.606" gradientUnits="userSpaceOnUse">
<stop stop-color="#30CBAF"/>
<stop offset="1" stop-color="#44ADFF" stop-opacity="0"/>
</linearGradient>
<linearGradient id="paint18_linear_57_9830" x1="1092.95" y1="208.854" x2="1092.95" y2="365.021" gradientUnits="userSpaceOnUse">
<stop stop-color="#30CBAF"/>
<stop offset="1" stop-color="#44ADFF" stop-opacity="0"/>
</linearGradient>
<linearGradient id="paint19_linear_57_9830" x1="1096.78" y1="201.209" x2="1096.78" y2="310.417" gradientUnits="userSpaceOnUse">
<stop stop-color="#30CBAF"/>
<stop offset="1" stop-color="#44ADFF" stop-opacity="0"/>
</linearGradient>
<linearGradient id="paint20_linear_57_9830" x1="1096.78" y1="146.606" x2="1096.78" y2="201.209" gradientUnits="userSpaceOnUse">
<stop stop-color="#30CBAF"/>
<stop offset="1" stop-color="#44ADFF" stop-opacity="0"/>
</linearGradient>
<linearGradient id="paint21_linear_57_9830" x1="1096.78" y1="201.209" x2="1096.78" y2="365.021" gradientUnits="userSpaceOnUse">
<stop stop-color="#30CBAF"/>
<stop offset="1" stop-color="#44ADFF" stop-opacity="0"/>
</linearGradient>
<linearGradient id="paint22_linear_57_9830" x1="892.558" y1="146.606" x2="892.558" y2="365.021" gradientUnits="userSpaceOnUse">
<stop stop-color="#30CBAF"/>
<stop offset="1" stop-color="#44ADFF" stop-opacity="0"/>
</linearGradient>
<linearGradient id="paint23_linear_57_9830" x1="906.209" y1="146.606" x2="906.209" y2="365.021" gradientUnits="userSpaceOnUse">
<stop stop-color="#30CBAF"/>
<stop offset="1" stop-color="#44ADFF" stop-opacity="0"/>
</linearGradient>
<linearGradient id="paint24_linear_57_9830" x1="892.558" y1="159.71" x2="892.558" y2="183.736" gradientUnits="userSpaceOnUse">
<stop stop-color="#30CBAF"/>
<stop offset="1" stop-color="#44ADFF" stop-opacity="0"/>
</linearGradient>
<linearGradient id="paint25_linear_57_9830" x1="822.119" y1="159.71" x2="822.119" y2="183.736" gradientUnits="userSpaceOnUse">
<stop stop-color="#30CBAF"/>
<stop offset="1" stop-color="#44ADFF" stop-opacity="0"/>
</linearGradient>
<linearGradient id="paint26_linear_57_9830" x1="756.048" y1="273.287" x2="756.048" y2="365.021" gradientUnits="userSpaceOnUse">
<stop stop-color="#30CBAF"/>
<stop offset="1" stop-color="#44ADFF" stop-opacity="0"/>
</linearGradient>
<linearGradient id="paint27_linear_57_9830" x1="730.384" y1="273.287" x2="730.384" y2="365.021" gradientUnits="userSpaceOnUse">
<stop stop-color="#30CBAF"/>
<stop offset="1" stop-color="#44ADFF" stop-opacity="0"/>
</linearGradient>
<linearGradient id="paint28_linear_57_9830" x1="755.502" y1="229.603" x2="755.502" y2="273.287" gradientUnits="userSpaceOnUse">
<stop stop-color="#30CBAF"/>
<stop offset="1" stop-color="#44ADFF" stop-opacity="0"/>
</linearGradient>
<linearGradient id="paint29_linear_57_9830" x1="723.286" y1="229.603" x2="723.286" y2="273.287" gradientUnits="userSpaceOnUse">
<stop stop-color="#30CBAF"/>
<stop offset="1" stop-color="#44ADFF" stop-opacity="0"/>
</linearGradient>
<linearGradient id="paint30_linear_57_9830" x1="80.0522" y1="0.26709" x2="80.0522" y2="365.021" gradientUnits="userSpaceOnUse">
<stop stop-color="#30CBAF"/>
<stop offset="1" stop-color="#44ADFF" stop-opacity="0"/>
</linearGradient>
<linearGradient id="paint31_linear_57_9830" x1="43.4675" y1="0.26709" x2="43.4675" y2="365.021" gradientUnits="userSpaceOnUse">
<stop stop-color="#30CBAF"/>
<stop offset="1" stop-color="#44ADFF" stop-opacity="0"/>
</linearGradient>
<linearGradient id="paint32_linear_57_9830" x1="106.808" y1="92.0016" x2="106.808" y2="365.021" gradientUnits="userSpaceOnUse">
<stop stop-color="#30CBAF"/>
<stop offset="1" stop-color="#44ADFF" stop-opacity="0"/>
</linearGradient>
<linearGradient id="paint33_linear_57_9830" x1="33.0927" y1="92.0016" x2="33.0927" y2="365.021" gradientUnits="userSpaceOnUse">
<stop stop-color="#30CBAF"/>
<stop offset="1" stop-color="#44ADFF" stop-opacity="0"/>
</linearGradient>
</defs>
</svg>
