<svg width="45" height="51" viewBox="0 0 45 51" fill="none" xmlns="http://www.w3.org/2000/svg">
<rect width="25.4505" height="25.4505" transform="matrix(-0.866025 -0.5 -2.20305e-08 1 22.959 25.4505)" fill="url(#paint0_linear_57_1121)"/>
<rect width="25.4505" height="25.4505" transform="matrix(-0.866025 0.5 2.20305e-08 1 44.9999 12.7253)" fill="url(#paint1_linear_57_1121)"/>
<g style="mix-blend-mode:darken">
<rect width="25.4505" height="25.4505" transform="matrix(-0.866025 -0.5 -0.866025 0.5 44.9999 12.7253)" fill="url(#paint2_linear_57_1121)"/>
</g>
<g style="mix-blend-mode:screen" opacity="0.4">
<rect width="25.4505" height="25.4505" transform="matrix(-0.866025 -0.5 -0.866025 0.5 44.9175 22.1258)" fill="url(#paint3_linear_57_1121)"/>
</g>
<g style="mix-blend-mode:screen" opacity="0.4">
<rect width="25.4505" height="25.4505" transform="matrix(-0.866025 -0.5 -0.866025 0.5 44.9175 31.2724)" fill="url(#paint4_linear_57_1121)"/>
</g>
<defs>
<linearGradient id="paint0_linear_57_1121" x1="30.2313" y1="13.35" x2="3.3284" y2="32.5286" gradientUnits="userSpaceOnUse">
<stop stop-color="#30CBAF"/>
<stop offset="1" stop-color="#1DADCC"/>
</linearGradient>
<linearGradient id="paint1_linear_57_1121" x1="30.5829" y1="-7.19356" x2="-12.4022" y2="-4.62134" gradientUnits="userSpaceOnUse">
<stop stop-color="#30CBAF"/>
<stop offset="1" stop-color="#1DADCC"/>
</linearGradient>
<linearGradient id="paint2_linear_57_1121" x1="20.248" y1="20.248" x2="18.4879" y2="-9.8785" gradientUnits="userSpaceOnUse">
<stop stop-color="#30CBAF"/>
<stop offset="1" stop-color="#1DADCC"/>
</linearGradient>
<linearGradient id="paint3_linear_57_1121" x1="20.248" y1="20.248" x2="18.4879" y2="-9.8785" gradientUnits="userSpaceOnUse">
<stop stop-color="#30CBAF"/>
<stop offset="1" stop-color="#1DADCC"/>
</linearGradient>
<linearGradient id="paint4_linear_57_1121" x1="20.248" y1="20.248" x2="18.4879" y2="-9.8785" gradientUnits="userSpaceOnUse">
<stop stop-color="#30CBAF"/>
<stop offset="1" stop-color="#1DADCC"/>
</linearGradient>
</defs>
</svg>
