<svg width="350" height="390" viewBox="0 0 350 390" fill="none" xmlns="http://www.w3.org/2000/svg">
<g id="Property 1=Long straight hair">
<path id="hair back" d="M68 144C68 88.7715 112.772 44 168 44H181C236.228 44 281 88.7715 281 144V346H68V144Z" fill="url(#paint0_linear_23_1020)"/>
<g id="neck">
<rect id="neck_2" x="141" y="185" width="68.2139" height="128.131" rx="13.7769" fill="white" stroke="url(#paint1_linear_23_1020)" stroke-width="4" stroke-linecap="round"/>
<path id="neck shadow" d="M142.896 267.634V226.678H211.5C206.333 247.68 175.523 268.768 142.896 267.634Z" fill="#7E7E7E" fill-opacity="0.45"/>
</g>
<g id="Face">
<g id="ears">
<path id="left ear" d="M132 184.5C132 196.189 121.45 206 108 206C94.5501 206 84 196.189 84 184.5C84 172.811 94.5501 163 108 163C121.45 163 132 172.811 132 184.5Z" fill="white" stroke="url(#paint2_linear_23_1020)" stroke-width="4"/>
<path id="right ear" d="M219 184.5C219 196.189 229.55 206 243 206C256.45 206 267 196.189 267 184.5C267 172.811 256.45 163 243 163C229.55 163 219 172.811 219 184.5Z" fill="white" stroke="url(#paint3_linear_23_1020)" stroke-width="4"/>
</g>
<path id="face" d="M242 174.261C242 196.713 236.042 213.834 224.986 225.337C213.941 236.828 197.532 243 176.03 243C154.526 243 137.842 236.827 126.529 225.321C115.211 213.81 109 196.69 109 174.261C109 151.804 115.232 128.379 126.779 110.629C138.311 92.9028 155.009 81 176.03 81C197.043 81 213.472 92.8934 224.74 110.612C236.025 128.358 242 151.787 242 174.261Z" fill="white" stroke="url(#paint4_linear_23_1020)" stroke-width="4" stroke-linecap="round"/>
<path id="nose" d="M176 173C174.029 179.812 173 183.371 173 190.458C175.64 191.72 178.163 192.036 182.5 192" stroke="url(#paint5_linear_23_1020)" stroke-width="4" stroke-linecap="round" stroke-linejoin="round"/>
<g id="eyes">
<g id="Left">
<path id="left" d="M140.768 184.225C142.829 184.225 144.657 183.11 145.953 181.382C147.249 179.655 148.035 177.291 148.035 174.702C148.035 172.112 147.249 169.748 145.953 168.021C144.657 166.293 142.829 165.178 140.768 165.178C138.706 165.178 136.878 166.293 135.582 168.021C134.287 169.748 133.5 172.112 133.5 174.702C133.5 177.291 134.287 179.655 135.582 181.382C136.878 183.11 138.706 184.225 140.768 184.225Z" fill="url(#paint6_linear_23_1020)" stroke="url(#paint7_linear_23_1020)" stroke-linecap="round"/>
<circle id="hightlight" cx="143.616" cy="172.487" r="2.5" fill="white" stroke="url(#paint8_linear_23_1020)"/>
</g>
<g id="right">
<path id="right_2" d="M212.768 184.225C214.829 184.225 216.657 183.11 217.953 181.382C219.249 179.655 220.035 177.291 220.035 174.702C220.035 172.112 219.249 169.748 217.953 168.021C216.657 166.293 214.829 165.178 212.768 165.178C210.706 165.178 208.878 166.293 207.582 168.021C206.287 169.748 205.5 172.112 205.5 174.702C205.5 177.291 206.287 179.655 207.582 181.382C208.878 183.11 210.706 184.225 212.768 184.225Z" fill="url(#paint9_linear_23_1020)" stroke="url(#paint10_linear_23_1020)" stroke-linecap="round"/>
<circle id="highlight" cx="215.616" cy="172.487" r="2" fill="white"/>
</g>
</g>
<path id="mouth" d="M168 207.5C171 211.167 178.8 216.3 186 207.5" stroke="url(#paint11_linear_23_1020)" stroke-width="4" stroke-linecap="round" stroke-linejoin="round"/>
<g id="blushes">
<g id="Ellipse 46" filter="url(#filter0_f_23_1020)">
<ellipse cx="136.5" cy="202.5" rx="9.5" ry="5.5" fill="#FC9D80"/>
</g>
<g id="Ellipse 47" filter="url(#filter1_f_23_1020)">
<ellipse cx="215.5" cy="202.5" rx="9.5" ry="5.5" fill="#FC9D80"/>
</g>
</g>
</g>
<g id="Female hair bangs">
<path id="hair bangs" d="M206.838 117.678C178.838 157.678 153.136 160.762 106 165C114.748 103.794 110.5 82 182.5 79C240 82.5 238.619 113.613 240 165C222.838 155.678 219.182 149.481 206.838 117.678Z" fill="url(#paint12_linear_23_1020)"/>
</g>
</g>
<defs>
<filter id="filter0_f_23_1020" x="115" y="185" width="43" height="35" filterUnits="userSpaceOnUse" color-interpolation-filters="sRGB">
<feFlood flood-opacity="0" result="BackgroundImageFix"/>
<feBlend mode="normal" in="SourceGraphic" in2="BackgroundImageFix" result="shape"/>
<feGaussianBlur stdDeviation="6" result="effect1_foregroundBlur_23_1020"/>
</filter>
<filter id="filter1_f_23_1020" x="194" y="185" width="43" height="35" filterUnits="userSpaceOnUse" color-interpolation-filters="sRGB">
<feFlood flood-opacity="0" result="BackgroundImageFix"/>
<feBlend mode="normal" in="SourceGraphic" in2="BackgroundImageFix" result="shape"/>
<feGaussianBlur stdDeviation="6" result="effect1_foregroundBlur_23_1020"/>
</filter>
<linearGradient id="paint0_linear_23_1020" x1="174.5" y1="44" x2="174.5" y2="346" gradientUnits="userSpaceOnUse">
<stop stop-color="#306ECB"/>
<stop offset="1" stop-color="#14237D"/>
</linearGradient>
<linearGradient id="paint1_linear_23_1020" x1="175.107" y1="183" x2="175.107" y2="315.131" gradientUnits="userSpaceOnUse">
<stop stop-color="#306ECB"/>
<stop offset="1" stop-color="#14237D"/>
</linearGradient>
<linearGradient id="paint2_linear_23_1020" x1="108" y1="161" x2="108" y2="208" gradientUnits="userSpaceOnUse">
<stop stop-color="#306ECB"/>
<stop offset="1" stop-color="#14237D"/>
</linearGradient>
<linearGradient id="paint3_linear_23_1020" x1="243" y1="161" x2="243" y2="208" gradientUnits="userSpaceOnUse">
<stop stop-color="#306ECB"/>
<stop offset="1" stop-color="#14237D"/>
</linearGradient>
<linearGradient id="paint4_linear_23_1020" x1="175.5" y1="79" x2="175.5" y2="245" gradientUnits="userSpaceOnUse">
<stop stop-color="#306ECB"/>
<stop offset="1" stop-color="#14237D"/>
</linearGradient>
<linearGradient id="paint5_linear_23_1020" x1="177.75" y1="173" x2="177.75" y2="192.003" gradientUnits="userSpaceOnUse">
<stop stop-color="#306ECB"/>
<stop offset="1" stop-color="#14237D"/>
</linearGradient>
<linearGradient id="paint6_linear_23_1020" x1="140.768" y1="165.678" x2="140.768" y2="183.725" gradientUnits="userSpaceOnUse">
<stop stop-color="#306ECB"/>
<stop offset="1" stop-color="#14237D"/>
</linearGradient>
<linearGradient id="paint7_linear_23_1020" x1="140.768" y1="165.678" x2="140.768" y2="183.725" gradientUnits="userSpaceOnUse">
<stop stop-color="#306ECB"/>
<stop offset="1" stop-color="#14237D"/>
</linearGradient>
<linearGradient id="paint8_linear_23_1020" x1="143.616" y1="170.487" x2="143.616" y2="174.487" gradientUnits="userSpaceOnUse">
<stop stop-color="#306ECB"/>
<stop offset="1" stop-color="#14237D"/>
</linearGradient>
<linearGradient id="paint9_linear_23_1020" x1="212.768" y1="165.678" x2="212.768" y2="183.725" gradientUnits="userSpaceOnUse">
<stop stop-color="#306ECB"/>
<stop offset="1" stop-color="#14237D"/>
</linearGradient>
<linearGradient id="paint10_linear_23_1020" x1="212.768" y1="165.678" x2="212.768" y2="183.725" gradientUnits="userSpaceOnUse">
<stop stop-color="#306ECB"/>
<stop offset="1" stop-color="#14237D"/>
</linearGradient>
<linearGradient id="paint11_linear_23_1020" x1="177" y1="207.5" x2="177" y2="212.359" gradientUnits="userSpaceOnUse">
<stop stop-color="#306ECB"/>
<stop offset="1" stop-color="#14237D"/>
</linearGradient>
<linearGradient id="paint12_linear_23_1020" x1="173" y1="79" x2="173" y2="165" gradientUnits="userSpaceOnUse">
<stop stop-color="#306ECB"/>
<stop offset="1" stop-color="#14237D"/>
</linearGradient>
</defs>
</svg>
