<svg width="1440" height="1024" viewBox="0 0 1440 1024" fill="none" xmlns="http://www.w3.org/2000/svg">
<path d="M623.969 -474.995C636.852 -471.941 651.257 -470.636 662.006 -464.704C725.088 -429.898 778.191 -381.465 833.664 -336.823C898.012 -285.04 955.032 -223.986 1017.22 -169.465C1046.68 -143.639 1078.25 -120.534 1107.25 -94.1288C1113.42 -88.5167 1122.86 -85.7077 1127.04 -77.561C1127.43 -76.803 1124.9 -77.2562 1123.75 -76.9898C1116.13 -75.2177 1107.43 -71.8404 1099.08 -68.8808C1057.21 -54.0423 1017.59 -42.3638 984.993 -41.9008C939.503 -41.2545 906.604 -59.8022 873.368 -75.9611C863.015 -80.9944 853.436 -87.0183 843.414 -92.4828C840.475 -94.0855 836.559 -99.1907 830.302 -96.4406C818.352 -91.1874 839.835 -86.1581 845.295 -81.8998C904.641 -35.6206 965.05 9.27999 1028.29 50.5461C1061.31 72.0983 1095.92 91.766 1125.75 117.435C1157.51 144.756 1183.86 179.093 1212.88 209.881C1215.22 212.366 1235.86 221.084 1213.06 231.106C1193.59 239.664 1173.73 249.034 1154.93 256.425C1126.83 267.478 1099.82 277.104 1073.51 285.231C1053.35 291.459 1029.86 302.987 1010.53 307.908C1009.1 308.273 994.505 311.089 996.001 311.676C1010.69 317.436 1029.1 319.036 1045.17 322.954C1077.47 330.833 1117.38 328.018 1150.66 334.565C1205.26 345.307 1247.21 371.904 1287.49 401.67C1323.89 428.572 1359.54 456.404 1396.59 482.478C1417.23 497.007 1447.13 503.146 1460.19 527.23C1464.41 535.012 1438.2 550.057 1431.94 554.201C1395.94 578.042 1366.92 590.481 1340.87 596.852C1300.91 606.62 1263.4 612.324 1225.29 619.249C1222.48 619.759 1210.17 621.102 1214.87 626.507C1224.9 638.038 1242.76 640.319 1256.62 646.81C1344.27 687.864 1418.78 746.101 1496.43 800.208M274.642 144.841C240.849 149.644 203.099 160.97 172.009 161.665C133.832 162.517 95.1308 164.369 58.9218 162.359C41.8559 161.412 23.6954 164.076 3.13786 168.427C-2.86382 169.697 -0.130753 179.137 -0.108826 179.285C4.31248 209.092 27.7876 219.442 44.1809 234.619C172.795 353.695 333.027 432.322 463.486 549.071C475.985 560.255 486.407 574.031 497.35 587.159C501.53 592.172 502.825 593.688 507.331 597.791C508.111 598.501 514.818 600.74 513.992 604.409C513.611 606.1 510.686 606.349 509.234 606.967C501.407 610.294 494.814 611.536 488.014 613.209C432.567 626.853 382.877 631.498 331.85 638.427C242.184 650.605 157.036 656.452 78.5379 652.27C29.7581 649.672 -21.2084 649.744 -64.3141 639.154C-75.0053 636.528 -86.4705 635.03 -97.5247 632.913C-98.067 632.809 -105.126 629.888 -106.122 631.336C-107.927 633.96 -98.8138 642.868 -98.2767 643.722C-87.6293 660.647 -75.4226 675.674 -62.5301 689.83C4.10794 763.001 79.5509 825.442 152.548 890.601C229.173 958.997 308.316 1024.65 397.415 1077C464.606 1116.47 537.51 1148.4 602.768 1190.42C610.065 1195.11 619.737 1197.24 625.511 1203.88C626.64 1205.18 612.951 1208.9 612.136 1209.12C564.406 1221.85 523.548 1223.94 477.761 1233.66C433.699 1243.02 381.942 1264.76 337.327 1275.14C337.244 1275.16 329.328 1275.41 332.888 1277.09C337.997 1279.5 343.358 1281.56 348.269 1284.24C394.242 1309.29 439.094 1335.71 486.182 1359.31C575.009 1403.84 659.824 1454.7 768.194 1472.97C812.352 1480.42 856.052 1488.26 890.815 1508.48C901.79 1514.87 911.231 1523.27 921.157 1531.01C926.114 1534.87 921.758 1531.9 915.399 1535.63C825.274 1588.49 751.797 1605.41 686.904 1616.69C669.385 1619.73 651.368 1623.51 634.834 1625.08C629.127 1625.62 628.227 1627 632.485 1628.09C650.473 1632.7 673.97 1630.09 693.722 1632.26C759.738 1639.51 822.896 1650.9 876.139 1675.66C903.832 1688.54 932.117 1700.59 961.517 1711.19M614.027 -466.01C619.487 -464.404 625.221 -463.064 630.858 -461.633C636.323 -460.198 641.514 -458.388 645.875 -455.543C707.001 -421.609 758.366 -374.292 811.985 -330.633C874.617 -280.082 930.313 -220.287 990.986 -167.093C1019.83 -141.169 1051.2 -118.375 1079.9 -92.2438C1086.05 -86.602 1093.76 -82.6303 1100.51 -77.4197C1104.37 -74.784 1107.95 -71.7758 1110.26 -67.4816C1110.74 -66.6198 1108.3 -67.025 1107.29 -66.665C1099.88 -64.9188 1091.55 -61.5693 1083.39 -58.5924C1042.53 -44.0746 1003.8 -32.6749 971.967 -32.208C949.586 -31.8116 930.306 -36.1475 912.515 -42.5223C893.538 -48.6052 876.195 -56.9569 858.738 -64.6703C846.451 -69.2838 835.029 -75.0181 823.337 -80.4513C819.279 -82.0783 814.215 -87.0573 807.06 -84.6325C795.14 -79.5716 815.82 -74.7014 820.877 -70.5987C878.762 -25.4507 937.526 18.2835 999.196 58.5784C1015.26 69.1557 1031.98 79.4266 1048.1 90.0031C1064.46 100.972 1080.48 112.396 1095.35 125.262C1127.95 153.701 1155.51 188.724 1185.6 220.35C1189.75 224.443 1211.82 234.549 1191.75 245.604C1174.39 254.917 1156.79 264.837 1140.04 273.072C1126.51 278.578 1113.31 283.674 1100.22 288.522C1087.03 293.241 1073.69 297.662 1060.84 301.631C1040 308.018 1016.09 319.316 996.115 324.354C993.642 324.939 978.143 328.216 978.514 329.042C992.841 334.662 1010.61 336.229 1026.37 340.092C1058.02 347.838 1097.08 345.142 1129.66 351.594C1157.42 357.445 1182.06 367.197 1205.01 379.2C1228.16 391.28 1249.58 405.667 1271.09 420.114L1273.4 421.666C1309.99 448.093 1345.84 475.438 1382.83 501.37C1403.24 515.699 1432.63 521.894 1445.62 545.58C1449.85 553.266 1424.18 567.871 1417.92 572.005C1398.16 584.924 1380.51 594.185 1364.28 601.179C1349.21 607.972 1335.34 612.652 1322.23 615.797C1283.11 625.341 1246.49 630.939 1209.41 637.721C1207.11 638.332 1195.67 639.579 1200.74 644.904C1212.13 656.331 1231.09 658.834 1245.91 665.771C1332.11 706.137 1405.49 763.248 1481.96 816.294M604.068 -457.019C608.547 -455.332 613.194 -453.743 617.913 -452.331C622.286 -450.91 626.38 -449.099 629.727 -446.376C688.899 -413.314 738.525 -367.113 790.29 -324.437C851.206 -275.118 905.578 -216.582 964.734 -164.713C992.972 -138.692 1024.14 -116.21 1052.53 -90.3523C1061.74 -81.8746 1073.27 -76.0366 1083.11 -68.0376C1087.19 -65.188 1090.94 -61.9107 1093.46 -57.3957C1094.03 -56.4301 1091.69 -56.7873 1090.82 -56.3338C1083.61 -54.6134 1075.66 -51.2917 1067.68 -48.2974C1027.84 -34.1003 990.001 -22.9793 958.925 -22.5087C936.907 -22.0391 917.945 -26.2355 900.429 -32.4091C880.54 -37.9988 862.388 -46.0256 844.092 -53.373C829.87 -57.5667 816.605 -63.0115 803.242 -68.4134C798.067 -70.0647 791.856 -74.9174 783.802 -72.818C771.912 -67.9492 791.788 -63.2382 796.443 -59.291C852.867 -15.2743 909.986 27.2935 970.089 66.6173C985.709 76.9958 1002.24 87.2326 1017.96 97.566C1034.19 108.683 1050.11 120.198 1064.92 133.096C1098.38 162.654 1127.13 198.362 1158.3 230.827C1164.26 236.527 1187.76 248.022 1170.42 260.109C1155.17 270.175 1139.83 280.646 1125.14 289.726C1112.13 295.212 1099.49 300.233 1086.88 305.126C1074.05 309.759 1060.7 314.162 1048.14 318.038C1026.63 324.584 1002.3 335.652 981.682 340.807L981.524 340.843C977.704 341.717 961.753 345.365 961.01 346.414C974.977 351.894 992.107 353.428 1007.56 357.237C1038.54 364.849 1076.76 362.273 1108.65 368.63C1136.87 374.961 1162.01 385.129 1185.57 397.422C1211.16 410.736 1234.85 426.621 1259.29 441.669C1296.07 467.621 1332.12 494.479 1369.06 520.268C1389.22 534.398 1418.12 540.648 1431.03 563.935C1435.29 571.526 1410.14 585.692 1403.88 589.816C1382.36 603.733 1363.32 613.186 1345.87 620.287C1330.74 626.985 1316.77 631.643 1303.57 634.749C1265.28 644.068 1229.56 649.56 1193.51 656.201C1191.72 656.911 1181.16 658.061 1186.59 663.308C1199.34 674.63 1219.41 677.356 1235.19 684.738C1319.93 724.417 1392.18 780.401 1467.48 832.386M594.099 -448C597.597 -446.233 601.157 -444.394 604.958 -443C608.24 -441.594 611.237 -439.782 613.569 -437.18C670.786 -404.99 718.674 -359.906 768.585 -318.212C827.785 -270.126 880.833 -212.848 938.473 -162.306C966.1 -136.188 997.074 -114.017 1025.16 -88.4328C1037.43 -77.1192 1052.76 -69.4148 1065.7 -58.6273C1070 -55.5641 1073.91 -52.0176 1076.65 -47.2817C1077.32 -46.2123 1075.07 -46.5215 1074.34 -45.9744C1067.34 -44.28 1059.76 -40.986 1051.96 -37.9744C1013.13 -24.098 976.189 -13.2558 945.872 -12.7814C924.219 -12.2385 905.573 -16.2955 888.332 -22.2679C867.531 -27.3644 848.571 -35.0663 829.436 -42.0475C813.28 -45.8215 798.171 -50.9768 783.138 -56.3474C776.845 -58.023 769.486 -62.7494 760.533 -60.9753C748.675 -56.2987 767.747 -51.7469 771.999 -47.9552C826.962 -5.06986 882.435 36.3316 940.972 74.6842C956.145 84.8638 972.481 95.0665 987.821 105.157C1003.9 116.423 1019.72 128.028 1034.49 140.959C1068.8 171.634 1098.75 208.028 1130.99 241.331C1138.76 248.639 1163.68 261.522 1149.07 274.641C1135.94 285.462 1122.87 296.483 1110.22 306.407C1097.73 311.873 1085.67 316.82 1073.53 321.758C1061.05 326.306 1047.7 330.691 1035.44 334.473C1013.26 341.177 988.504 352.015 967.239 357.288C962.687 358.311 945.374 362.511 943.496 363.814C957.103 369.154 973.591 370.655 988.741 374.41C1019.06 381.889 1056.44 379.431 1087.63 385.694C1116.3 392.505 1141.96 403.09 1166.11 415.673C1193.33 429.787 1218.59 446.569 1245.18 461.7C1282.15 487.178 1318.39 513.547 1355.27 539.193C1375.2 553.126 1403.61 559.43 1416.44 582.319C1420.71 589.814 1396.1 603.54 1389.83 607.654C1366.55 622.57 1346.11 632.214 1327.45 639.422C1312.26 646.028 1298.18 650.662 1284.9 653.729C1247.45 662.823 1212.62 668.21 1177.61 674.708C1176.32 675.518 1166.63 676.572 1172.43 681.74C1186.55 692.958 1207.73 695.906 1224.47 703.733C1307.73 742.725 1378.86 797.583 1452.98 848.507M584.116 -438.963C586.632 -437.117 589.105 -435.028 591.988 -433.653C594.179 -432.261 596.078 -430.448 597.396 -427.967C652.658 -396.649 698.809 -352.681 746.865 -311.971C804.349 -265.116 856.073 -209.097 912.197 -159.881C939.214 -133.666 969.989 -111.806 997.766 -86.496C1013.09 -72.3465 1032.25 -62.7758 1048.27 -49.1999C1052.79 -45.9229 1056.88 -42.1072 1059.83 -37.1505C1060.59 -35.9773 1058.43 -36.2384 1057.84 -35.5978C1051.04 -33.9293 1043.84 -30.663 1036.22 -27.6342C998.406 -14.0785 962.363 -3.51499 932.805 -3.03687C911.516 -2.42064 893.187 -6.33823 876.221 -12.1094C854.508 -16.7128 834.74 -24.0898 814.765 -30.7049C796.674 -34.0591 779.722 -38.9249 763.02 -44.2642C755.608 -45.9641 747.102 -50.5642 737.25 -49.1154C725.422 -44.631 743.691 -40.2385 747.54 -36.6023C801.043 5.15179 854.87 45.3869 911.84 82.7684C926.566 92.7491 942.713 102.918 957.663 112.765C973.599 124.18 989.328 135.875 1004.05 148.838C1039.21 180.632 1070.35 217.711 1103.66 251.852C1113.25 260.768 1139.6 275.04 1127.72 289.191C1116.7 300.767 1105.89 312.337 1095.29 323.106C1083.32 328.552 1071.83 333.424 1060.16 338.407C1048.04 342.869 1034.68 347.237 1022.73 350.926C999.872 357.788 974.692 368.396 952.782 373.786C947.19 375.028 928.971 379.69 925.968 381.232C939.214 386.432 955.06 387.9 969.905 391.6C999.558 398.945 1036.09 396.607 1066.6 402.776C1095.72 410.066 1121.88 421.068 1146.65 433.941C1175.48 448.855 1202.31 466.534 1231.05 481.747C1268.21 506.751 1304.65 532.633 1341.47 558.136C1361.17 571.87 1389.07 578.23 1401.83 600.72C1406.12 608.119 1382.04 621.406 1375.77 625.51C1350.73 641.425 1328.9 651.26 1309.02 658.575C1293.77 665.087 1279.58 669.699 1266.22 672.726C1229.6 681.595 1195.66 686.876 1161.68 693.232C1160.9 694.143 1152.09 695.1 1158.25 700.189C1173.74 711.302 1196.02 714.472 1213.72 722.746C1295.53 761.05 1365.53 814.782 1438.47 864.644M574.112 -429.899C575.646 -427.973 577.033 -425.635 578.997 -424.277C580.097 -422.901 580.899 -421.086 581.203 -418.727C634.51 -388.281 678.923 -345.429 725.124 -305.701C780.893 -260.079 831.293 -205.319 885.9 -157.429C912.306 -131.117 942.885 -109.568 970.353 -84.5317C988.744 -67.5464 1011.71 -56.1093 1030.83 -39.7449C1035.56 -36.2542 1039.82 -32.1693 1042.99 -26.9917C1043.84 -25.7148 1041.78 -25.9279 1041.32 -25.1937C1034.73 -23.551 1027.9 -20.3125 1020.47 -17.2664C983.664 -4.03129 948.515 6.25333 919.718 6.73523C898.792 7.42472 880.78 3.6466 864.089 -1.92337C841.464 -6.03358 820.887 -13.0856 800.073 -19.3347C780.048 -22.2691 761.253 -26.8453 742.88 -32.1534C734.351 -33.8775 724.697 -38.3514 713.946 -37.228C702.149 -32.9357 719.614 -28.7024 723.061 -25.2217C775.103 15.4011 827.285 54.4697 882.688 90.88C896.967 100.662 912.924 110.797 927.484 120.401C943.278 131.965 958.911 143.749 973.582 156.745C1009.59 189.657 1041.94 227.421 1076.31 262.401C1087.72 272.924 1115.49 288.585 1106.34 303.769C1097.44 316.098 1088.88 328.219 1080.34 339.832C1068.89 345.258 1057.97 350.056 1046.78 355.084C1035.01 359.46 1021.64 363.811 1009.99 367.406C986.463 374.427 960.859 384.804 938.303 390.311C931.672 391.773 912.546 396.896 908.419 398.677C921.305 403.737 936.509 405.172 951.048 408.817C980.038 416.03 1015.73 413.81 1045.55 419.884C1075.12 427.655 1101.79 439.074 1127.15 452.237C1157.61 467.951 1186 486.526 1216.9 501.823C1254.25 526.351 1290.89 551.747 1327.65 577.107C1347.11 590.642 1374.52 597.057 1387.19 619.148C1391.5 626.452 1367.96 639.3 1361.69 643.394C1334.89 660.307 1311.66 670.333 1290.57 677.756C1275.25 684.173 1260.97 688.763 1247.51 691.751C1211.73 700.395 1178.69 705.571 1145.74 711.784C1145.47 712.795 1137.53 713.656 1144.06 718.666C1160.91 729.675 1184.3 733.067 1202.96 741.786C1283.3 779.403 1352.18 832.008 1423.94 880.809M561.39 -417.364C561.944 -415.358 562.243 -412.77 563.289 -411.431C563.298 -410.069 563.003 -408.254 562.292 -406.016C613.645 -376.442 656.319 -334.706 700.666 -295.961C754.719 -251.57 803.794 -198.07 856.886 -151.506C882.681 -125.097 913.062 -103.859 940.223 -79.0963C961.676 -59.2752 988.455 -45.9717 1010.66 -26.8188C1015.61 -23.1144 1020.04 -18.7603 1023.43 -13.362C1024.37 -11.9812 1022.4 -12.1463 1022.08 -11.3185C1015.7 -9.70175 1009.25 -6.49103 1002 -3.42755C966.204 9.48681 931.95 19.4927 903.912 19.9784C883.35 20.7412 865.656 17.1025 849.239 11.7337C825.703 8.11664 804.317 1.3895 782.664 -4.49347C760.704 -7.00812 740.066 -11.2948 720.023 -16.5716C710.376 -18.32 699.574 -22.6676 687.925 -21.8695C676.159 -17.7695 692.82 -13.6954 695.864 -10.3701C746.445 29.1213 796.981 67.0236 850.818 102.463C864.65 112.046 880.417 122.146 894.588 131.508C910.238 143.221 925.776 155.095 940.398 168.123C977.258 202.153 1010.8 240.603 1046.25 276.421C1059.46 288.552 1088.67 305.601 1082.24 321.818C1075.45 334.901 1069.17 347.572 1062.67 360.03C1051.74 365.435 1041.4 370.159 1030.67 375.232C1019.27 379.522 1005.89 383.856 994.535 387.357C970.336 394.537 944.308 404.684 921.108 410.308C913.436 411.988 893.404 417.573 888.152 419.593C900.678 424.513 915.239 425.916 929.474 429.506C957.801 436.585 992.652 434.485 1021.78 440.464C1051.81 448.715 1078.98 460.55 1104.95 474.003C1137.02 490.518 1166.98 509.99 1200.03 525.369C1237.57 549.423 1274.4 574.331 1311.12 599.549C1330.34 612.885 1357.25 619.355 1369.85 641.047C1374.17 648.256 1351.16 660.664 1344.89 664.748C1316.33 682.66 1291.71 692.878 1269.4 700.407C1254.02 706.731 1239.63 711.299 1226.09 714.247C1191.15 722.666 1158.99 727.736 1127.08 733.807C1127.31 734.918 1120.25 735.682 1127.15 740.613C1145.37 751.518 1169.86 755.132 1189.48 764.297C1268.36 801.227 1336.1 852.706 1406.69 900.445M548.68 -404.83C548.252 -402.744 547.464 -399.907 547.592 -398.586C546.51 -397.238 545.118 -395.422 543.393 -393.306C592.79 -364.603 633.727 -323.985 676.219 -286.222C728.556 -243.063 776.308 -190.821 827.883 -145.584C853.067 -119.077 883.251 -98.1504 910.104 -73.662C934.619 -51.005 965.21 -35.8352 990.513 -13.8939C995.676 -9.97574 1000.28 -5.35238 1003.88 0.266785C1004.92 1.75137 1003.04 1.63423 1002.86 2.55563C996.677 4.14647 990.604 7.32948 983.538 10.4102C948.755 23.0039 915.397 32.7311 888.118 33.2205C867.92 34.0565 850.543 30.5573 834.401 25.3897C809.953 22.2658 787.759 15.8636 765.266 10.3467C741.372 8.25181 718.891 4.25464 697.178 -0.990814C686.412 -2.76357 674.463 -6.98483 661.915 -6.51215C650.179 -2.60427 666.037 1.31062 668.678 4.48035C717.799 42.8405 766.689 79.5765 818.959 114.044C832.345 123.429 847.921 133.495 861.703 142.613C877.21 154.475 892.653 166.44 907.225 179.5C944.936 214.649 979.675 253.784 1016.2 290.44C1031.22 304.178 1061.85 322.616 1058.16 339.865C1053.48 353.703 1049.46 366.923 1045.01 380.226C1034.61 385.611 1024.83 390.26 1014.58 395.378C1003.53 399.584 990.142 403.9 979.092 407.306C954.221 414.645 927.769 424.562 903.923 430.303C895.212 432.203 874.273 438.249 867.897 440.508C880.062 445.288 893.982 446.658 907.912 450.194C935.575 457.139 969.583 455.158 998.015 461.043C1028.5 469.774 1056.18 482.026 1082.75 495.769C1116.45 513.084 1147.98 533.453 1183.18 548.914C1220.9 572.494 1257.93 596.914 1294.59 621.989C1313.58 635.127 1339.98 641.652 1352.51 662.946C1356.85 670.059 1334.38 682.028 1328.1 686.102C1297.78 705.012 1271.76 715.421 1248.24 723.058C1232.8 729.288 1218.3 733.833 1204.68 736.742C1170.57 744.935 1139.31 749.9 1108.43 755.829C1109.17 757.039 1102.98 757.708 1110.25 762.56C1129.83 773.36 1155.42 777.197 1176.01 786.807C1253.43 823.05 1320.04 873.402 1389.46 920.08M537.427 -391.149C536.017 -388.983 534.142 -385.896 533.352 -384.594C531.213 -383.282 528.767 -381.5 526.079 -379.542L525.95 -379.448C573.393 -351.618 612.591 -312.116 653.229 -275.336C703.85 -233.409 750.278 -182.426 800.337 -138.514C824.91 -111.911 854.897 -91.2952 881.443 -67.0806C909.019 -41.5878 943.424 -24.5516 971.819 0.178223C977.198 4.31008 981.972 9.20259 985.79 15.0426C986.918 16.631 985.135 16.5619 985.092 17.5768C979.114 19.1418 973.417 22.297 966.534 25.3951C932.763 37.6681 900.3 47.1165 873.781 47.6097C853.947 48.519 836.887 45.1592 821.02 40.1928C795.66 37.5621 772.657 31.4847 749.325 26.334C723.497 24.6588 699.172 20.9512 675.789 15.7371C663.905 13.94 650.808 9.845 637.362 9.99234C625.657 13.708 640.711 17.4637 642.949 20.478C690.609 57.7068 737.854 93.2764 788.557 126.773C801.496 135.959 816.883 145.991 830.275 154.866C845.639 166.877 860.987 178.932 875.509 192.024C914.071 228.291 950.007 268.112 987.605 305.606C1004.44 320.952 1036.5 340.778 1035.53 359.06C1032.97 373.651 1031.21 387.422 1028.81 401.569C1018.93 406.934 1009.72 411.509 999.942 416.672C989.253 420.792 975.854 425.09 965.105 428.403C939.562 435.901 912.687 445.588 888.196 451.446C878.444 453.565 856.6 460.073 849.099 462.57C860.904 467.21 874.181 468.547 887.806 472.028C914.805 478.841 947.971 476.978 975.711 482.769C1006.66 491.98 1034.84 504.648 1062.01 518.681C1097.33 536.797 1130.43 558.063 1167.78 573.607C1205.69 596.712 1242.92 620.645 1279.52 645.577C1298.27 658.516 1324.18 665.096 1336.63 685.991C1340.99 693.009 1319.05 704.539 1312.77 708.602C1280.69 728.511 1253.28 739.111 1228.53 746.855C1213.03 752.992 1198.44 757.515 1184.72 760.384C1151.45 768.352 1121.09 773.212 1091.24 778.999C1092.49 780.309 1087.17 780.88 1094.8 785.654C1115.75 796.35 1142.45 800.408 1164 810.464C1239.95 846.02 1305.44 895.245 1373.68 940.863M528.476 -375.675C526.085 -373.429 523.123 -370.092 521.414 -368.808C518.15 -367.49 514.563 -365.671 510.81 -363.797C556.298 -336.839 593.758 -298.453 632.542 -262.656C681.447 -221.961 726.55 -172.237 775.093 -129.652C799.056 -102.951 828.845 -82.6466 855.083 -58.7059C885.721 -30.3772 923.939 -11.4746 955.427 16.0436C961.022 20.3892 965.967 25.5509 970.001 31.6118C971.222 33.304 969.531 33.2828 969.627 34.3914C963.854 35.9304 958.532 39.0579 951.833 42.1733C919.074 54.1256 887.506 63.2952 861.746 63.7922C842.276 64.7748 825.533 61.5544 809.941 56.7892C783.669 54.6517 759.858 48.8992 735.686 44.1145C707.923 42.8592 681.756 39.4411 656.703 34.2582C643.701 32.4369 629.456 28.4682 615.111 28.2902C603.437 31.8137 617.687 35.4101 619.523 38.2689C665.722 74.3664 711.322 108.77 760.458 141.295C772.95 150.282 788.146 160.28 801.149 168.912L802.253 169.794C817.108 181.66 831.973 193.534 846.096 206.341C885.509 243.727 922.642 284.233 961.312 322.566C979.96 339.519 1013.44 360.734 1015.21 380.048C1014.76 395.393 1015.26 409.714 1014.91 424.706C1005.55 430.051 996.918 434.551 987.607 439.759C977.277 443.793 963.869 448.074 953.422 451.294C927.206 458.95 899.907 468.406 874.77 474.382C863.979 476.72 841.228 483.689 832.602 486.426C844.047 490.926 856.682 492.23 870.002 495.656C896.339 502.335 928.662 500.592 955.71 506.288C987.109 515.979 1015.8 529.064 1043.57 543.387C1080.51 562.303 1115.18 584.466 1154.68 600.093C1192.79 622.723 1230.21 646.168 1266.75 670.958C1285.27 683.698 1310.68 690.333 1323.05 710.83C1327.43 717.752 1306.02 728.843 1299.74 732.896C1265.91 753.803 1237.09 764.595 1211.13 772.446C1195.57 778.489 1180.87 782.989 1167.07 785.819C1134.64 793.562 1105.16 798.317 1076.35 803.961C1078.11 805.371 1073.66 805.846 1081.66 810.541C1103.98 821.132 1131.78 825.413 1154.28 835.914C1228.78 870.783 1293.14 918.882 1360.2 963.438M519.529 -360.206C516.156 -357.88 512.107 -354.294 509.481 -353.028C505.126 -351.724 500.441 -349.905 495.674 -348.152C539.207 -322.067 574.928 -284.797 611.858 -249.982C659.047 -210.519 702.827 -162.054 749.853 -120.795C773.205 -93.9973 802.797 -74.0037 828.728 -50.3369C862.428 -19.1724 904.458 1.59661 939.039 31.9033C944.849 36.4626 949.966 41.8935 954.215 48.1751C955.529 49.9711 953.932 49.9981 954.165 51.2002C948.597 52.7134 943.651 55.8131 937.136 58.9457C905.388 70.5774 874.715 79.4682 849.716 79.9689C830.609 81.0248 814.184 77.9439 798.866 73.3799C771.683 71.7355 747.062 66.3081 722.052 61.8894C692.354 61.0539 664.344 57.9253 637.62 52.7737C623.5 50.9281 608.108 47.0857 592.864 46.5823C581.221 49.9136 594.668 53.3509 596.1 56.0541C640.839 91.0204 684.793 124.257 732.363 155.812C744.163 164.421 758.804 174.158 771.253 182.438L772.027 182.952C787.106 195.261 802.263 207.496 816.687 220.653C856.95 259.157 895.28 300.348 935.023 339.519C955.483 358.08 990.393 380.684 994.886 401.03C996.553 417.13 999.314 432.001 1001.02 447.837C992.174 453.162 984.116 457.588 975.277 462.84C965.305 466.789 951.888 471.053 941.742 474.178C914.854 481.993 887.131 491.22 861.349 497.312C849.518 499.87 825.861 507.3 816.11 510.276C827.195 514.636 839.188 515.907 852.202 519.279C877.875 525.824 909.356 524.2 935.712 529.802C967.568 539.972 996.758 553.474 1025.14 568.088C1063.7 587.804 1099.93 610.863 1141.59 626.573C1179.88 648.729 1217.5 671.687 1253.99 696.333C1272.27 708.875 1297.18 715.565 1309.48 735.663C1313.88 742.49 1293 753.141 1286.71 757.184C1251.12 779.09 1220.91 790.073 1193.73 798.031C1178.11 803.981 1163.31 808.458 1149.43 811.249C1117.82 818.767 1089.24 823.416 1061.47 828.918C1063.73 830.428 1060.15 830.807 1068.52 835.422C1092.2 845.909 1121.11 850.412 1144.58 861.359C1217.61 895.54 1280.84 942.513 1346.72 986.008M510.57 -344.736C506.217 -342.331 501.08 -338.494 497.536 -337.247C492.09 -335.958 486.308 -334.137 480.526 -332.507C522.104 -307.293 556.088 -271.139 591.163 -237.307C636.636 -199.076 679.092 -151.87 724.602 -111.937C747.344 -85.0424 776.738 -65.3599 802.361 -41.9669C839.123 -7.96658 884.966 14.6688 922.64 47.7639C928.666 52.5369 933.953 58.2371 938.419 64.7396C939.825 66.6393 938.321 66.7142 938.692 68.0099C933.329 69.4972 928.759 72.5692 922.427 75.7191C891.691 87.0301 861.914 95.6421 837.673 96.1467C818.931 97.2758 802.823 94.3343 787.779 89.9716C759.685 88.8203 734.255 83.7178 708.406 79.6652C676.774 79.2495 646.92 76.4104 618.526 71.2901C603.288 69.4202 586.749 65.704 570.606 64.8753C558.993 68.0144 571.637 71.2925 572.666 73.8403C615.944 107.675 658.253 139.746 704.256 170.329C715.854 178.918 730.67 188.848 742.894 196.994C757.83 209.451 772.892 221.776 787.266 234.965C828.38 274.587 867.908 316.464 908.723 356.474C930.995 376.643 967.332 400.635 974.554 422.013C978.334 438.867 983.358 454.288 987.115 470.969C978.789 476.273 971.303 480.625 962.935 485.922C953.321 489.786 939.896 494.032 930.05 497.064C902.49 505.038 874.343 514.034 847.916 520.243C835.046 523.02 810.482 530.912 799.607 534.127C810.331 538.346 821.682 539.584 834.391 542.902C859.401 549.314 890.039 547.809 915.704 553.317C948.014 563.967 977.71 577.885 1006.7 592.789C1046.88 613.305 1084.68 637.261 1128.49 653.054C1166.97 674.735 1204.78 697.205 1241.22 721.709C1259.26 734.053 1283.67 740.798 1295.89 760.497C1300.31 767.228 1279.96 777.44 1273.68 781.473C1236.32 804.377 1204.72 815.552 1176.33 823.617C1160.64 829.473 1145.74 833.928 1131.77 836.679C1101 843.972 1073.31 848.516 1046.57 853.875C1049.34 855.485 1046.64 855.768 1055.37 860.304C1080.42 870.687 1110.43 875.412 1134.86 886.805C1206.43 920.299 1268.54 966.145 1333.24 1008.58M501.618 -329.261C496.283 -326.775 490.059 -322.69 485.596 -321.461C479.059 -320.186 472.18 -318.365 465.384 -316.855C505.008 -292.513 537.253 -257.476 570.474 -224.627C614.231 -187.628 655.363 -141.681 699.356 -103.074C721.488 -76.0819 750.685 -56.7105 776 -33.5914C815.823 3.24482 865.48 27.7466 906.247 63.6302C912.488 68.6169 917.947 74.5862 922.628 81.3095C924.127 83.3131 922.716 83.436 923.225 84.8253C918.067 86.2866 913.873 89.3309 907.724 92.4981C878 103.488 849.118 111.822 825.637 112.33C807.258 113.532 791.467 110.73 776.699 106.569C747.692 105.911 721.454 101.133 694.766 97.4466C661.199 97.4506 629.502 94.9011 599.438 89.8121C583.082 87.9179 565.395 84.328 548.354 83.174C536.772 86.1209 548.611 89.2398 549.238 91.632C591.056 124.336 631.718 155.24 676.155 184.852C687.307 193.242 701.933 203.138 713.766 211.041C728.559 223.647 743.526 236.062 757.851 249.284C799.816 290.024 840.541 332.586 882.429 373.434C906.512 395.21 944.277 420.591 954.228 443.002C960.122 460.61 967.408 476.581 973.215 494.107C965.41 499.391 958.496 503.668 950.6 509.01C941.344 512.788 927.909 517.017 918.365 519.955C890.132 528.087 861.562 536.853 834.489 543.18C820.579 546.176 795.109 554.53 783.109 557.983C793.473 562.063 804.182 563.268 816.586 566.531C840.933 572.81 870.728 571.423 895.701 576.837C928.467 587.967 958.668 602.302 988.257 617.495C1030.06 638.813 1069.43 663.665 1115.39 679.54C1154.06 700.747 1192.07 722.73 1228.45 747.091C1246.26 759.236 1270.17 766.036 1282.31 785.337C1286.75 791.972 1266.93 801.745 1260.65 805.768C1221.53 829.671 1188.53 841.036 1158.92 849.209C1143.18 854.971 1128.17 859.403 1114.11 862.115C1084.18 869.183 1057.39 873.621 1031.68 878.839C1034.95 880.548 1033.13 880.734 1042.23 885.192C1068.64 895.471 1099.76 900.418 1125.15 912.256C1195.25 945.062 1256.23 989.783 1319.76 1031.15M492.67 -313.792C486.354 -311.226 479.043 -306.891 473.662 -305.68C466.034 -304.42 458.058 -302.597 450.248 -301.209C487.916 -277.739 518.424 -243.818 549.79 -211.952C591.832 -176.185 631.639 -131.497 674.116 -94.2163C695.637 -67.1272 724.637 -48.067 749.644 -25.2217C792.529 14.4504 845.998 40.8185 889.858 79.4905C896.315 84.691 901.945 90.9296 906.843 97.8737C908.434 99.981 907.117 100.152 907.763 101.635C902.809 103.07 898.991 106.087 893.026 109.271C864.314 119.941 836.327 127.996 813.606 128.508C795.591 129.783 780.117 127.121 765.623 123.16C735.705 122.995 708.659 118.543 681.13 115.222C645.63 115.646 612.09 113.386 580.356 108.328C562.881 106.41 544.047 102.946 526.106 101.467C514.555 104.221 525.591 107.181 525.815 109.418C566.172 140.99 605.189 170.728 648.059 199.369C658.764 207.56 673.2 217.422 684.644 225.082C699.294 237.837 714.166 250.342 728.441 263.596C771.257 305.455 813.179 348.702 856.14 390.389C882.035 413.772 921.226 440.542 933.907 463.985C941.914 482.347 951.464 498.868 959.32 517.238C952.036 522.502 945.694 526.705 938.269 532.092C929.371 535.785 915.928 539.996 906.684 542.84C877.779 551.131 848.786 559.667 821.068 566.11C806.118 569.326 779.741 578.141 766.617 581.833C776.62 585.773 786.687 586.945 798.786 590.154C822.469 596.3 851.422 595.032 875.703 600.351C908.925 611.961 939.631 626.713 969.823 642.196C1013.25 664.314 1054.18 690.063 1102.3 706.021C1141.16 726.754 1179.36 748.249 1215.68 772.467C1233.26 784.413 1256.67 791.268 1268.74 810.171C1273.19 816.711 1253.91 826.044 1247.62 830.057C1206.75 854.958 1172.35 866.515 1141.53 874.795C1125.72 880.463 1110.61 884.873 1096.47 887.546C1067.37 894.389 1041.47 898.721 1016.79 903.796C1020.57 905.606 1019.62 905.695 1029.09 910.074C1056.87 920.248 1089.09 925.418 1115.44 937.701C1184.08 969.821 1243.94 1013.41 1306.29 1053.73M483.719 -298.318C476.421 -295.673 468.023 -291.087 461.724 -289.896C453.005 -288.65 443.931 -286.826 435.107 -285.559C470.821 -262.962 499.59 -230.157 529.102 -199.273C569.428 -164.739 607.911 -121.309 648.872 -85.3545C669.782 -58.1684 698.584 -39.4192 723.284 -16.8477C769.231 25.6602 826.513 53.8947 873.466 95.3552C880.139 100.769 885.94 107.277 891.053 114.442C892.737 116.653 891.513 116.872 892.297 118.449C887.548 119.858 884.106 122.847 878.325 126.049C850.625 136.398 823.532 144.173 801.571 144.689C783.92 146.038 768.763 143.515 754.544 139.756C723.714 140.084 695.859 135.956 667.491 133.002C630.056 133.845 594.673 131.875 561.269 126.849C542.677 124.906 522.694 121.569 503.855 119.764C492.335 122.326 502.567 125.127 502.389 127.208C541.285 157.649 578.656 186.221 619.959 213.89C630.218 221.883 644.463 231.71 655.518 239.127C670.025 252.031 684.802 264.627 699.028 277.912C742.694 320.889 785.813 364.823 829.847 407.347C857.554 432.339 898.172 460.496 913.582 484.972C923.703 504.089 935.515 521.16 945.421 540.374C938.658 545.618 932.888 549.747 925.934 555.178C917.394 558.785 903.943 562.979 895 565.73C865.423 574.18 836.005 582.485 807.642 589.046C791.653 592.48 764.369 601.757 750.12 605.688C759.764 609.488 769.188 610.627 780.983 613.781C804.002 619.793 832.113 618.645 855.702 623.869C889.378 635.959 920.59 651.128 951.386 666.901C996.434 689.819 1038.93 716.465 1089.2 732.506C1128.25 752.764 1166.65 773.772 1202.92 797.848C1220.26 809.595 1243.17 816.505 1255.16 835.009C1259.63 841.453 1240.88 850.347 1234.59 854.349C1191.96 880.249 1156.17 891.998 1124.13 900.385C1108.26 905.96 1093.04 910.347 1078.82 912.98C1050.55 919.598 1025.55 923.825 1001.9 928.758C1006.19 930.667 1006.11 930.661 1015.95 934.96C1045.09 945.03 1078.42 950.422 1105.73 963.151C1172.91 994.583 1231.64 1037.05 1292.81 1076.3M474.772 -282.849C466.493 -280.124 457.008 -275.289 449.791 -274.116C439.981 -272.885 429.81 -271.06 419.971 -269.914C453.73 -248.189 480.761 -216.5 508.418 -186.599C547.029 -153.297 584.188 -111.126 623.633 -76.4976C643.932 -49.2144 672.537 -30.7763 696.929 -8.47876C745.938 36.865 807.033 66.9659 857.078 111.215C863.967 116.843 869.939 123.62 875.269 131.005C877.044 133.32 875.914 133.587 876.836 135.257C872.292 136.641 869.226 139.602 863.628 142.821C836.939 152.849 810.742 160.346 789.54 160.866C772.253 162.288 757.414 159.905 743.469 156.347C711.728 157.168 683.064 153.365 653.857 150.777C614.487 152.04 577.261 150.359 542.187 145.364C522.476 143.397 501.347 140.186 481.609 138.056C470.119 140.426 479.548 143.067 478.966 144.993C516.402 174.303 552.128 201.708 591.864 228.407C601.676 236.2 615.731 245.994 626.397 253.167C640.761 266.221 655.442 278.906 669.619 292.224C714.136 336.319 758.452 380.938 803.559 424.301C833.077 450.9 875.122 480.446 893.261 505.954C905.496 525.825 919.571 543.446 931.527 563.505C925.285 568.729 920.086 572.783 913.604 578.26C905.423 581.781 891.962 585.958 883.321 588.614C853.071 597.223 823.23 605.298 794.221 611.976C777.192 615.63 749.002 625.368 733.628 629.538C742.912 633.198 751.693 634.304 763.183 637.404C785.54 643.282 812.807 642.253 835.705 647.383C869.837 659.953 901.554 675.538 932.953 691.602C979.622 715.32 1023.69 742.863 1076.11 758.986C1115.34 778.769 1153.94 799.29 1190.15 823.223C1207.26 834.771 1229.67 841.737 1241.59 859.842C1246.07 866.191 1227.86 874.645 1221.57 878.638C1177.18 905.536 1139.99 917.476 1106.73 925.97C1090.8 931.451 1075.48 935.816 1061.17 938.41C1033.74 944.802 1009.63 948.924 987.016 953.714C991.814 955.724 992.606 955.621 1002.81 959.842C1033.32 969.807 1067.75 975.421 1096.02 988.595C1161.74 1019.34 1219.34 1060.68 1279.34 1098.87M465.813 -267.379C456.553 -264.574 445.981 -259.49 437.846 -258.335C426.944 -257.118 415.676 -255.293 404.823 -254.268C436.627 -233.415 461.92 -202.843 487.723 -173.924C524.618 -141.854 560.452 -100.942 598.381 -67.6398C618.069 -40.2594 646.478 -22.1325 670.562 -0.108734C722.632 48.0709 787.54 80.0381 840.679 127.076C847.783 132.917 853.927 139.963 859.472 147.57C861.34 149.989 860.303 150.304 861.363 152.067C857.024 153.425 854.333 156.358 848.919 159.595C823.242 169.302 797.94 176.52 777.498 177.044C760.574 178.539 746.052 176.295 732.383 172.938C699.729 174.253 670.257 170.775 640.211 168.553C598.907 170.236 559.837 168.844 523.093 163.881C502.264 161.889 479.987 158.804 459.35 156.349C447.891 158.527 456.516 161.009 455.532 162.779C491.507 190.958 525.587 217.197 563.757 242.924C573.122 250.519 586.987 260.278 597.263 267.209C611.484 280.411 626.07 293.186 640.198 306.537C685.566 351.75 731.079 397.054 777.259 441.256C808.589 469.462 852.06 500.397 872.929 526.937C887.277 547.562 903.615 565.734 917.621 586.637C911.9 591.841 907.273 595.821 901.262 601.342C893.439 604.778 879.97 608.937 871.629 611.5C840.707 620.267 810.442 628.112 780.788 634.907C762.719 638.78 733.623 648.98 717.125 653.389C726.048 656.908 734.187 657.982 745.372 661.027C767.065 666.772 793.49 665.862 815.696 670.898C850.283 683.947 882.505 699.949 914.508 716.303C962.799 740.822 1008.43 769.261 1063 785.467C1102.43 804.776 1141.23 824.809 1177.38 848.599C1194.25 859.949 1216.16 866.97 1228 884.676C1232.51 890.929 1214.83 898.944 1208.53 902.927C1162.38 930.824 1123.8 942.955 1089.32 951.556C1073.33 956.944 1057.91 961.286 1043.51 963.84C1016.92 970.008 993.697 974.024 972.119 978.672C977.424 980.781 979.089 980.582 989.662 984.724C1021.54 994.585 1057.07 1000.42 1086.3 1014.04C1150.56 1044.1 1207.03 1084.31 1265.85 1121.44M456.862 -251.905C446.621 -249.02 434.962 -243.686 425.908 -242.549C413.916 -241.347 401.55 -239.52 389.683 -238.617C419.532 -218.636 443.087 -189.18 467.036 -161.244C502.214 -130.406 536.725 -90.7528 573.137 -58.777C592.215 -31.2996 620.426 -13.4837 644.203 8.2662C699.335 59.2817 768.056 93.1152 824.287 142.941C831.607 148.996 837.922 156.312 843.683 164.139C845.644 166.662 844.7 167.025 845.898 168.882C841.763 170.214 839.448 173.119 834.218 176.373C809.553 185.76 785.146 192.699 765.463 193.227C748.904 194.795 734.699 192.69 721.304 189.535C687.739 191.343 657.457 188.19 626.572 186.334C583.334 188.436 542.421 187.335 504.006 182.402C482.06 180.386 458.635 177.428 437.1 174.647C425.671 176.633 433.493 178.956 432.106 180.571C466.62 207.618 499.055 232.69 535.658 257.446C544.576 264.842 558.251 274.568 568.137 281.255C582.215 294.606 596.707 307.472 610.784 320.854C657.003 367.186 703.714 413.176 750.966 458.215C784.108 488.029 829.007 520.353 852.604 547.926C869.066 569.305 887.666 588.026 903.723 609.774C898.522 614.958 894.467 618.863 888.928 624.429C881.463 627.78 867.985 631.921 859.945 634.39C828.351 643.316 797.662 650.931 767.363 657.843C748.254 661.936 718.252 672.597 700.629 677.245C709.191 680.624 716.689 681.665 727.569 684.655C748.598 690.267 774.181 689.476 795.695 694.417C830.737 707.947 863.465 724.365 896.071 741.009C945.983 766.328 993.184 795.664 1049.91 811.953C1089.52 830.787 1128.51 850.333 1164.61 873.98C1181.25 885.132 1202.66 892.207 1214.42 909.515C1218.95 915.673 1201.8 923.248 1195.5 927.221C1147.59 956.116 1107.61 968.439 1071.92 977.147C1055.87 982.441 1040.34 986.761 1025.86 989.276C1000.1 995.218 977.774 999.129 957.229 1003.64C963.042 1005.84 965.581 1005.55 976.521 1009.61C1009.76 1019.37 1046.4 1025.43 1076.59 1039.49C1139.39 1068.86 1194.73 1107.95 1252.37 1144.02M447.915 -236.436C436.692 -233.471 423.946 -227.887 413.974 -226.769C400.891 -225.582 387.428 -223.754 374.546 -222.973C402.441 -203.863 424.257 -175.524 446.352 -148.571C479.814 -118.964 513.001 -80.5699 547.897 -49.9203C566.364 -22.3457 594.378 -4.84095 617.847 16.6351C676.041 70.4864 748.575 106.186 807.899 158.801C815.435 165.07 821.92 172.654 827.897 180.703C829.951 183.329 829.1 183.74 830.436 185.691C826.506 186.997 824.567 189.874 819.52 193.145C795.867 202.212 772.355 208.872 753.432 209.403C737.236 211.045 723.348 209.08 710.228 206.126C675.752 208.426 644.662 205.598 612.937 204.108C567.764 206.631 525.008 205.819 484.924 200.917C461.859 198.877 437.287 196.045 414.852 192.939C403.455 194.733 410.473 196.897 408.683 198.356C441.736 224.272 472.525 248.178 507.562 271.963C516.033 279.16 529.519 288.851 539.015 295.295C552.95 308.796 567.346 321.751 581.375 335.166C628.444 382.616 676.352 429.291 724.677 475.169C759.631 506.591 805.956 540.302 832.283 568.908C850.859 591.041 871.722 610.312 889.828 632.905C885.148 638.068 881.665 641.9 876.597 647.51C869.586 650.731 856.366 654.788 848.581 657.178L848.265 657.275C815.998 666.36 784.886 673.744 753.941 680.773C733.793 685.085 702.884 696.208 684.136 701.094C692.339 704.334 699.194 705.342 709.769 708.277C730.135 713.756 754.875 713.084 775.697 717.931C811.195 731.94 844.428 748.776 877.637 765.709C929.171 791.828 977.939 822.062 1036.81 838.433C1076.62 856.793 1115.81 875.851 1151.85 899.356C1168.25 910.308 1189.16 917.439 1200.85 934.348C1205.39 940.41 1188.78 947.547 1182.47 951.509C1132.81 981.403 1091.43 993.917 1054.52 1002.73C1038.41 1007.93 1022.78 1012.23 1008.21 1014.71C983.291 1020.42 961.855 1024.23 942.343 1028.59C948.663 1030.9 952.075 1030.51 963.382 1034.49C997.988 1044.15 1035.74 1050.42 1066.89 1064.94C1128.22 1093.62 1182.43 1131.58 1238.9 1166.59M438.963 -220.962C426.759 -217.917 412.926 -212.083 402.036 -210.984C387.862 -209.811 373.301 -207.982 359.406 -207.322C385.345 -189.084 405.424 -161.861 425.664 -135.891C457.41 -107.516 489.273 -70.3811 522.653 -41.0576C540.509 -13.386 568.325 3.8077 591.487 25.0099C652.743 81.6971 729.089 119.263 791.506 174.666C799.258 181.149 805.915 189.003 812.108 197.272C814.253 200.002 813.496 200.461 814.97 202.505C811.245 203.785 809.682 206.635 804.818 209.924C782.177 218.669 759.56 225.051 741.397 225.586C725.565 227.301 711.994 225.475 699.149 222.722C663.76 225.516 631.862 223.013 599.298 221.889C552.19 224.831 507.592 224.309 465.837 219.439C441.654 217.374 415.934 214.668 392.601 211.237C381.234 212.839 387.449 214.843 385.256 216.147C416.849 240.931 445.992 263.671 479.462 286.485C487.487 293.483 500.782 303.14 509.889 309.342C523.681 322.991 537.982 336.036 551.961 349.483C599.881 398.052 648.986 445.412 698.384 492.128C735.149 525.158 782.902 560.258 811.958 589.896C832.647 612.783 855.773 632.605 875.929 656.042C871.77 661.185 868.859 664.942 864.263 670.598C857.698 673.69 844.751 677.66 837.204 679.974L836.581 680.165C803.642 689.409 772.105 696.563 740.516 703.709C719.327 708.24 687.512 719.824 667.639 724.95C675.482 728.049 681.695 729.024 691.965 731.905C711.667 737.251 735.565 736.697 755.695 741.45C791.039 755.693 824.241 772.607 857.478 789.538L859.199 790.415C912.355 817.335 962.69 848.465 1023.72 864.919C1063.71 882.804 1103.1 901.375 1139.08 924.737C1155.24 935.491 1175.66 942.676 1187.27 959.187C1191.83 965.154 1175.75 971.851 1169.44 975.803C1118.02 1006.7 1075.25 1019.4 1037.12 1028.32C1020.95 1033.43 1005.21 1037.7 990.559 1040.14C966.475 1045.63 945.932 1049.33 927.453 1053.55C934.281 1055.96 938.566 1055.47 950.24 1059.38C986.212 1068.93 1025.06 1075.43 1057.17 1090.39C1117.04 1118.38 1170.13 1155.22 1225.42 1189.16M430.005 -205.492C416.82 -202.367 401.899 -196.284 390.091 -195.203C374.826 -194.045 359.168 -192.215 344.258 -191.676C368.243 -174.31 386.583 -148.204 404.969 -123.216C435 -96.0735 465.538 -60.1972 497.402 -32.1998C514.647 -4.4311 542.266 12.4515 565.12 33.3798C629.438 92.9029 709.597 132.336 775.107 190.527C783.075 197.223 789.903 205.346 796.312 213.836C798.55 216.67 797.886 217.177 799.497 219.315C795.977 220.569 794.79 223.391 790.109 226.697C768.48 235.122 746.759 241.225 729.355 241.763C713.887 243.552 700.633 241.866 688.063 239.314C651.762 242.601 619.055 240.423 585.652 239.665C536.61 243.027 490.168 242.794 446.743 237.955C421.442 235.866 394.575 233.287 370.343 229.53C359.007 230.939 364.418 232.785 361.822 233.933C391.954 257.586 419.452 279.159 451.356 301.002C458.933 307.801 472.038 317.425 480.756 323.383C494.405 337.181 508.611 350.316 522.54 363.796C571.312 413.483 621.614 461.528 672.084 509.083C710.661 543.72 759.84 580.209 791.626 610.879C814.429 634.52 839.817 654.892 862.024 679.174C858.385 684.296 856.046 687.979 851.921 693.68C845.781 696.652 833.076 700.543 825.76 702.784L824.889 703.051C791.278 712.453 759.318 719.377 727.083 726.64C704.855 731.391 672.133 743.436 651.136 748.801C658.618 751.76 664.189 752.702 674.154 755.529C693.193 760.741 716.248 760.306 735.687 764.964C772.096 779.934 806.339 797.603 840.755 815.116C895.532 842.836 947.434 874.863 1010.61 891.4C1050.8 908.81 1090.38 926.894 1126.31 950.113C1142.23 960.668 1162.15 967.909 1173.68 984.021C1178.26 989.892 1162.71 996.15 1156.41 1000.09C1103.22 1031.98 1059.06 1044.88 1019.71 1053.91C1003.48 1058.92 987.639 1063.17 972.901 1065.57C949.652 1070.84 930.001 1074.43 912.556 1078.51C919.891 1081.02 925.049 1080.44 937.091 1084.26C974.428 1093.71 1014.39 1100.43 1047.46 1115.83C1105.86 1143.14 1157.82 1178.85 1211.94 1211.73M421.058 -190.023C406.891 -186.819 390.884 -180.486 378.157 -179.423C361.801 -178.279 345.046 -176.448 329.122 -176.031C351.152 -159.537 367.754 -134.547 384.285 -110.542C412.6 -84.6316 441.815 -50.0141 472.162 -23.343C488.797 4.52287 516.218 21.0943 538.765 41.7488C606.144 104.108 690.117 145.407 758.719 206.387C766.902 213.297 773.902 221.689 780.526 230.4C782.857 233.337 782.286 233.892 784.035 236.124C780.72 237.352 779.909 240.147 775.412 243.47C754.795 251.574 733.968 257.398 717.324 257.94C702.22 259.802 689.283 258.255 676.988 255.904C639.776 259.685 606.26 257.831 572.017 257.44C521.041 261.222 472.756 261.278 427.661 256.47C401.242 254.358 373.227 251.904 348.096 247.822C336.791 249.039 341.398 250.725 338.4 251.718L341.092 253.833C368.698 275.522 393.876 295.302 423.26 315.518C430.391 322.119 443.306 331.708 451.634 337.423C465.14 351.37 479.251 364.596 493.131 378.107C542.753 428.912 594.252 477.644 645.795 526.037C686.184 562.281 736.79 600.159 771.305 631.861C796.222 656.257 823.873 677.178 848.129 702.305C845.012 707.407 843.245 711.016 839.591 716.761C833.858 719.62 821.37 723.439 814.276 725.609L813.209 725.935C778.926 735.496 746.542 742.19 713.662 749.57C690.394 754.54 656.766 767.047 634.644 772.65C641.766 775.47 646.694 776.379 656.354 779.151C674.73 784.23 696.943 783.914 715.689 788.478C752.554 803.927 787.302 822.013 822.321 839.817C878.72 868.337 932.19 901.261 997.519 917.88C1037.89 934.816 1077.67 952.412 1113.55 975.488C1129.24 985.845 1148.66 993.141 1160.11 1008.85C1164.71 1014.63 1149.69 1020.45 1143.38 1024.38C1088.44 1057.27 1042.88 1070.36 1002.32 1079.49C986.021 1084.41 970.077 1088.64 955.253 1091C932.84 1096.04 914.082 1099.53 897.671 1103.47C905.513 1106.08 911.544 1105.4 923.953 1109.14C962.656 1118.48 1003.72 1125.43 1037.75 1141.28C1094.69 1167.9 1145.53 1202.48 1198.46 1234.3M412.105 -174.548C396.957 -171.264 379.863 -164.681 366.218 -163.637C348.771 -162.507 330.918 -160.675 313.98 -160.379C334.055 -144.758 348.919 -120.884 363.596 -97.8616C390.195 -73.1831 418.086 -39.8246 446.917 -14.4796C462.941 13.4833 490.165 29.7437 512.404 50.1244C582.845 115.319 670.63 158.485 742.326 222.253C750.725 229.377 757.895 238.038 764.736 246.97C767.159 250.011 766.681 250.614 768.568 252.939C765.458 254.142 765.023 256.908 760.709 260.249C741.104 268.032 721.172 273.578 705.288 274.124C690.547 276.059 677.928 274.651 665.907 272.502C627.783 276.775 593.459 275.247 558.377 275.221C505.466 279.423 455.338 279.769 408.573 274.992C381.036 272.855 351.873 270.528 325.844 266.121C314.569 267.146 318.373 268.673 314.972 269.51C342.182 290.901 366.389 310.141 395.159 330.041C401.843 336.443 414.568 345.998 422.507 351.47C435.87 365.566 449.885 378.882 463.716 392.426C514.189 444.349 566.886 493.766 619.501 542.997C661.702 580.849 713.735 620.115 750.978 652.85C778.009 678 807.923 699.471 834.229 725.442C831.633 730.525 830.437 734.059 827.255 739.849C821.58 742.772 808.058 746.826 801.524 748.826C766.568 758.546 733.761 765.01 700.235 772.507C675.927 777.696 641.393 790.664 618.146 796.507C624.908 799.186 629.194 800.062 638.549 802.78C656.262 807.725 677.632 807.529 695.687 811.998C733.006 827.927 768.26 846.43 803.883 864.523C861.902 893.844 916.939 927.664 984.421 944.366C1024.98 960.828 1064.96 977.936 1100.78 1000.87C1116.23 1011.03 1135.15 1018.38 1146.53 1033.69C1151.15 1039.37 1136.66 1044.75 1130.35 1048.67C1073.65 1082.56 1026.69 1095.84 984.913 1105.09C968.557 1109.91 952.51 1114.12 937.601 1116.44C916.022 1121.25 898.158 1124.64 882.78 1128.43C891.129 1131.14 898.034 1130.36 910.81 1134.03C950.878 1143.27 993.045 1150.43 1028.04 1166.73C1083.52 1192.66 1133.22 1226.12 1184.98 1256.88M403.154 -159.074C387.025 -155.709 368.843 -148.877 354.28 -147.851C335.742 -146.736 316.792 -144.903 298.84 -144.729C316.749 -130.151 329.78 -107.751 342.46 -85.9527L342.908 -85.1819C367.792 -61.7354 394.358 -29.6358 421.673 -5.61691C437.086 22.4431 464.113 38.3923 486.044 58.4991C559.547 126.53 651.146 171.562 725.934 238.118C734.549 245.456 741.89 254.386 748.947 263.539C751.462 266.684 751.078 267.335 753.103 269.754C750.197 270.93 750.138 273.669 746.008 277.027C727.414 284.49 708.378 289.756 693.253 290.306C678.876 292.315 666.575 291.046 654.828 289.098C615.793 293.865 580.659 292.661 544.739 293.002C489.893 297.623 437.922 298.258 389.486 293.514L386.934 293.321C359.037 291.22 329.723 289.011 303.593 284.419C292.349 285.251 295.349 286.619 291.545 287.301C317.295 307.56 339.856 325.634 367.06 344.563C373.297 350.766 385.832 360.287 393.381 365.516C406.601 379.761 420.521 393.167 434.303 406.743C484.143 458.252 536.408 506.989 588.554 555.615L593.209 559.956C637.221 599.416 690.681 640.071 730.654 673.838C759.798 699.742 791.974 721.764 820.331 748.579C818.255 753.641 817.632 757.101 814.921 762.936C809.604 765.774 796.073 769.811 789.84 771.717C754.212 781.595 720.981 787.829 686.81 795.443C661.462 800.851 626.021 814.281 601.65 820.362C608.052 822.902 611.696 823.745 620.746 826.408C637.795 831.22 658.322 831.142 675.685 835.517C713.461 851.926 749.219 870.846 785.445 889.229C845.087 919.35 901.691 954.068 971.325 970.852C1012.08 986.839 1052.25 1003.46 1088.01 1026.25C1103.23 1036.21 1121.65 1043.62 1132.95 1058.53C1137.59 1064.12 1123.64 1069.06 1117.32 1072.97C1058.86 1107.86 1010.51 1121.33 967.512 1130.68C951.095 1135.41 934.944 1139.59 919.949 1141.87C899.207 1146.46 882.235 1149.74 867.89 1153.39C876.747 1156.2 884.525 1155.33 897.668 1158.92C939.102 1168.05 982.374 1175.44 1018.33 1192.18C1072.34 1217.43 1120.92 1249.76 1171.51 1279.45M394.207 -143.605C377.096 -140.161 357.827 -133.079 342.346 -132.071C322.717 -130.971 302.67 -129.137 283.703 -129.084C299.869 -115.206 311.257 -93.5649 322.224 -72.5081C345.392 -50.2936 370.634 -19.4529 396.433 3.23978C411.235 31.3969 438.065 47.0351 459.688 66.868C536.253 137.735 631.664 184.633 709.545 253.978C718.376 261.529 725.888 270.729 733.161 280.102C735.769 283.351 735.478 284.05 737.641 286.562C734.94 287.713 735.257 290.424 731.31 293.799C713.728 300.941 695.587 305.929 681.222 306.483C667.209 308.564 655.224 307.436 643.753 305.689C603.805 310.949 567.863 310.07 531.104 310.776C474.324 315.818 420.509 316.742 370.403 312.029C340.631 309.843 309.173 307.769 281.346 302.71C270.133 303.351 272.329 304.56 268.122 305.086C292.411 324.214 313.327 341.122 338.964 359.08C344.755 365.084 357.099 374.571 364.259 379.557C377.336 393.95 391.161 407.446 404.893 421.054C457.067 475.214 512.158 526.002 566.92 576.91C612.744 617.977 667.63 660.02 710.332 694.82C741.591 721.478 776.03 744.05 806.436 771.71C804.881 776.752 804.83 780.137 802.59 786.017C797.631 788.769 784.092 792.789 778.16 794.601C741.859 804.638 708.204 810.641 673.388 818.373C647.001 824.001 610.653 837.892 585.158 844.212C591.199 846.611 594.201 847.422 602.946 850.03C619.332 854.709 639.016 854.75 655.688 859.031C693.918 875.92 730.182 895.255 767.012 913.929C828.274 944.851 886.446 980.465 958.232 997.332C999.173 1012.84 1039.54 1028.98 1075.25 1051.63C1090.23 1061.39 1108.15 1068.85 1119.38 1083.37C1124.03 1088.85 1110.61 1093.35 1104.3 1097.26C1044.07 1133.14 994.325 1146.8 950.115 1156.26C933.637 1160.9 917.382 1165.06 902.302 1167.3C882.394 1171.67 866.315 1174.84 853.004 1178.35C862.368 1181.26 871.019 1180.29 884.53 1183.8C927.33 1192.83 971.706 1200.44 1008.62 1217.62C1061.17 1242.18 1108.63 1273.39 1158.03 1302.02M385.248 -128.135C367.156 -124.611 346.8 -117.28 330.401 -116.29C309.681 -115.205 288.536 -113.37 268.555 -113.438C282.766 -100.432 292.416 -79.9073 301.529 -59.8332C322.981 -38.8507 346.899 -9.26889 371.181 12.0976C385.374 40.3518 412.006 55.6789 433.321 75.238C512.948 148.94 612.172 197.705 693.146 269.838C702.192 277.604 709.876 287.072 717.365 296.667C720.065 300.019 719.868 300.766 722.168 303.372C719.672 304.497 720.365 307.18 716.602 310.573C700.032 317.394 682.785 322.103 669.179 322.661C655.531 324.815 643.863 323.826 632.667 322.28C591.807 328.033 555.057 327.48 517.458 328.552C458.743 334.013 403.085 335.228 351.31 330.545C320.419 328.336 287.813 326.387 259.088 321.004C247.905 321.452 249.298 322.501 244.688 322.872C267.517 340.869 286.787 356.61 310.857 373.597C316.201 379.402 328.356 388.855 335.125 393.598C348.06 408.141 361.79 421.726 375.472 435.367C428.498 490.645 484.786 542.118 540.62 593.865C588.256 636.539 644.569 679.971 690 715.803C723.372 743.215 760.074 766.337 792.531 794.842C791.496 799.864 792.017 803.175 790.248 809.1C785.648 811.766 772.1 815.768 766.468 817.486C729.495 827.682 695.417 833.456 659.955 841.304C632.529 847.151 595.275 861.504 568.654 868.063C574.335 870.322 576.695 871.1 585.135 873.654C600.857 878.199 619.699 878.359 635.679 882.545C674.365 899.914 711.134 919.667 748.567 938.63C811.451 970.352 871.19 1006.86 945.128 1023.81C986.258 1038.85 1026.82 1054.5 1062.47 1077C1077.22 1086.56 1094.64 1094.08 1105.79 1108.2C1110.46 1113.59 1097.58 1117.65 1091.26 1121.55C1029.28 1158.43 978.133 1172.28 932.707 1181.85C916.167 1186.39 899.809 1190.53 884.643 1192.73C865.571 1196.87 850.385 1199.94 838.107 1203.31C847.979 1206.32 857.503 1205.25 871.381 1208.68C915.546 1217.6 961.027 1225.44 998.901 1243.07C1049.99 1266.94 1096.32 1297.02 1144.55 1324.59M376.301 -112.667C357.228 -109.063 335.785 -101.481 318.467 -100.511C296.656 -99.4396 274.414 -97.6035 253.419 -97.7928C265.675 -85.6594 273.587 -66.2507 280.845 -47.1593C300.581 -27.4088 323.176 0.914122 345.942 20.9545C359.523 49.3058 385.958 64.3217 406.966 83.607C489.654 160.145 592.691 210.776 676.758 285.698C686.02 293.677 693.875 303.415 701.58 313.23C704.372 316.687 704.268 317.482 706.706 320.181C704.415 321.28 705.484 323.936 701.904 327.345C686.346 333.846 669.995 338.276 657.149 338.837C643.864 341.066 632.513 340.216 621.591 338.871C579.821 345.117 542.261 344.888 503.823 346.327C443.174 352.208 385.673 353.712 332.227 349.061C300.218 346.827 266.465 345.005 236.841 339.296C225.689 339.552 226.278 340.442 221.266 340.657C242.634 357.523 260.258 372.098 282.762 388.113C287.659 393.72 299.623 403.139 306.004 407.638C318.795 422.33 332.43 436.006 346.063 449.679C399.939 506.075 457.424 558.234 514.331 610.818C563.779 655.101 621.519 699.921 669.68 736.786C705.165 764.952 744.129 788.624 778.636 817.973C778.122 822.975 779.215 826.211 777.918 832.181C773.676 834.762 760.119 838.746 754.788 840.371C717.143 850.726 682.641 856.269 646.534 864.234C618.067 870.301 579.907 885.115 552.162 891.912C557.483 894.032 559.2 894.777 567.335 897.276C582.394 901.688 600.394 901.967 615.682 906.059C654.823 923.907 692.097 944.077 730.134 963.331C794.639 995.853 855.946 1033.26 932.035 1050.29C973.355 1064.86 1014.11 1080.02 1049.71 1102.38C1064.22 1111.74 1081.15 1119.31 1092.22 1133.03C1096.91 1138.33 1084.56 1141.95 1078.23 1145.83C1014.49 1183.72 961.953 1197.76 915.31 1207.43C898.709 1211.88 882.247 1216 866.996 1218.16C848.759 1222.08 834.466 1225.04 823.222 1228.27C833.6 1231.37 843.998 1230.21 858.243 1233.56C903.774 1242.38 950.36 1250.44 989.194 1268.51C1038.82 1291.7 1084.02 1320.65 1131.07 1347.16M367.349 -97.1913C347.294 -93.5073 324.764 -85.6763 306.528 -84.724C283.626 -83.6675 260.287 -81.8304 238.277 -82.1411C248.579 -70.8797 254.752 -52.5873 260.156 -34.4786C278.176 -15.9602 299.447 11.1039 320.696 29.8181C333.667 58.2664 359.905 72.9713 380.605 91.9827C466.355 171.357 573.205 223.854 660.365 301.565C669.843 309.757 677.869 319.764 685.789 329.8C688.674 333.361 688.664 334.204 691.24 336.997C689.153 338.07 690.597 340.697 687.202 344.124C672.655 350.304 657.199 354.456 645.112 355.021C632.191 357.322 621.158 356.612 610.511 355.469C567.829 362.208 529.46 362.304 490.183 364.109C427.599 370.409 368.255 372.203 313.139 367.583C280.012 365.325 245.112 363.629 214.589 357.594C203.468 357.659 203.253 358.389 197.838 358.449C217.745 374.183 233.724 387.592 254.661 402.636C259.111 408.044 270.886 417.429 276.876 421.686C289.525 436.526 303.064 450.292 316.648 463.997C371.375 521.512 430.058 574.356 488.037 627.779C539.296 673.669 598.464 719.878 649.353 757.775C686.953 786.695 728.179 810.917 764.736 841.111C764.743 846.092 766.408 849.255 765.582 855.269C761.698 857.765 748.132 861.731 743.103 863.262C704.785 873.776 669.86 879.089 633.107 887.171C603.601 893.457 564.534 908.732 535.664 915.769C540.625 917.749 541.7 918.46 549.53 920.905C563.926 925.184 581.083 925.582 595.679 929.579C635.276 947.908 673.055 968.494 711.695 988.037C777.822 1021.36 840.696 1059.66 918.937 1076.78C960.446 1090.87 1001.4 1105.54 1036.94 1127.76C1051.22 1136.92 1067.64 1144.55 1078.64 1157.87C1083.34 1163.08 1071.53 1166.26 1065.2 1170.13C999.704 1209.01 945.767 1223.25 897.908 1233.03C881.246 1237.38 864.68 1241.48 849.343 1243.6C831.942 1247.29 818.541 1250.15 808.331 1253.23C819.217 1256.44 830.488 1255.18 845.1 1258.45C891.996 1267.16 939.687 1275.44 979.482 1293.96C1027.65 1316.46 1071.72 1344.29 1117.59 1369.74M358.398 -81.717C337.362 -77.9532 313.744 -69.8725 294.59 -68.9386C270.597 -67.8967 246.161 -66.0585 223.137 -66.4905C231.484 -56.1011 235.919 -38.9251 239.469 -21.7991C255.773 -4.51269 275.719 21.2925 295.452 38.6805C307.813 67.226 333.853 81.6197 354.245 100.357C443.057 182.567 553.72 236.931 643.973 317.43C653.666 325.836 661.864 336.113 670 346.369C672.978 350.033 673.06 350.924 675.774 353.811C673.892 354.858 675.713 357.458 672.5 360.902C658.966 366.762 644.405 370.635 633.078 371.203C620.52 373.578 609.804 373.007 599.432 372.065C555.838 379.297 516.661 379.718 476.544 381.889C412.026 388.61 350.839 390.692 294.053 386.104C259.808 383.821 223.76 382.252 192.338 375.892C181.247 375.764 180.229 376.336 174.411 376.24C192.858 390.843 207.191 403.085 226.562 417.158C230.565 422.367 242.149 431.718 247.75 435.732C260.256 450.721 273.7 464.577 287.235 478.314C342.812 536.947 402.692 590.477 461.744 644.738C514.815 692.235 575.41 739.833 629.029 778.762C668.741 808.437 712.231 833.209 750.838 864.247C751.366 869.209 753.602 872.296 753.248 878.356C749.722 880.766 736.147 884.716 731.419 886.152C692.429 896.825 657.079 901.907 619.682 910.107C589.136 916.612 549.163 932.349 519.168 939.624C523.768 941.464 524.201 942.143 531.726 944.533C545.459 948.678 561.773 949.195 575.678 953.098C615.73 971.907 654.014 992.909 693.258 1012.74C761.006 1046.87 825.447 1086.07 905.841 1103.27C947.539 1116.88 988.689 1131.06 1024.18 1153.14C1038.22 1162.11 1054.14 1169.79 1065.06 1182.71C1069.78 1187.82 1058.5 1190.56 1052.17 1194.42C984.916 1234.3 929.583 1248.73 880.507 1258.62C863.784 1262.88 847.114 1266.95 831.692 1269.03C815.126 1272.5 802.618 1275.25 793.441 1278.19C804.834 1281.5 816.978 1280.14 831.958 1283.34L834.379 1283.77C881.849 1292.23 929.697 1300.77 969.771 1319.42C1016.48 1341.23 1059.42 1367.92 1104.12 1392.32M349.451 -66.2481C327.433 -62.4044 302.729 -54.074 282.657 -53.1586C257.572 -52.1312 232.039 -50.292 208.001 -50.8453C214.393 -41.328 217.09 -25.2683 218.785 -9.125C233.374 6.92943 251.995 31.4757 270.213 47.5375C281.962 76.1801 307.805 90.2628 327.89 108.727C419.763 193.772 534.24 250.002 627.585 333.29C637.372 341.803 645.656 352.196 653.906 362.545L654.215 362.933C657.285 366.701 657.461 367.64 660.312 370.62C658.635 371.641 660.832 374.214 657.803 377.675C645.28 383.214 631.615 386.808 621.047 387.38C608.854 389.828 598.455 389.397 588.357 388.656C543.851 396.381 503.866 397.127 462.909 399.664C396.457 406.804 333.427 409.177 274.97 404.62C239.607 402.313 202.412 400.87 170.091 394.184C159.031 393.864 157.21 394.277 150.989 394.025C167.975 407.497 180.663 418.573 198.466 431.675C202.023 436.685 213.417 446.002 218.629 449.772C230.991 464.91 244.34 478.856 257.826 492.626C314.254 552.378 375.331 606.592 435.456 661.692C490.339 710.797 552.36 759.783 608.708 799.745C650.535 830.174 696.287 855.496 736.944 887.379C737.992 892.32 740.8 895.333 740.918 901.437C737.75 903.762 724.166 907.694 719.739 909.037C680.077 919.868 644.304 924.72 606.261 933.037C574.675 939.761 533.795 955.96 502.676 963.474C506.916 965.174 506.707 965.82 513.927 968.155C526.996 972.168 542.468 972.803 555.68 976.612C596.188 995.9 634.978 1017.32 674.825 1037.44C744.194 1072.37 810.202 1112.47 892.748 1129.75C934.636 1142.89 975.982 1156.58 1011.41 1178.52C1025.22 1187.28 1040.65 1195.02 1051.49 1207.54C1056.23 1212.56 1045.48 1214.86 1039.15 1218.71C970.131 1259.59 913.403 1274.21 863.11 1284.2C846.326 1288.37 829.552 1292.42 814.044 1294.46C798.314 1297.7 786.699 1300.35 778.556 1303.15C790.456 1306.56 803.473 1305.1 818.82 1308.22C868.448 1316.72 918.348 1325.45 960.065 1344.86C1005.31 1365.98 1047.12 1391.56 1090.64 1414.89M340.492 -50.7787C317.494 -46.855 291.702 -38.275 270.712 -37.378C244.536 -36.3651 217.905 -34.5249 192.853 -35.1996C197.29 -26.5543 198.249 -11.6109 198.09 3.54968C210.963 18.3721 228.261 41.6595 244.961 56.3951C256.1 85.1348 281.746 98.9064 301.523 117.096C396.458 204.978 514.748 263.074 611.186 349.15C621.311 357.984 629.85 368.799 638.418 379.497C641.581 383.369 641.85 384.356 644.84 387.43C643.367 388.425 645.94 390.97 643.094 394.448C631.583 399.666 618.813 402.982 609.005 403.558C597.175 406.079 587.094 405.787 577.271 405.247C531.853 413.466 491.059 414.537 449.263 417.44C380.877 425 316.003 427.662 255.877 423.136C219.396 420.805 181.052 419.488 147.833 412.477C136.804 411.965 134.178 412.218 127.555 411.811C143.08 424.152 154.123 434.061 170.36 446.192C173.469 451.003 184.673 460.286 189.495 463.813C201.715 479.1 214.969 493.137 228.405 506.938C285.684 567.808 347.958 622.708 409.156 678.646C465.85 729.359 529.298 779.734 588.376 820.728C632.316 851.91 680.331 877.783 723.038 910.51C724.607 915.431 727.987 918.37 728.576 924.519C725.766 926.759 712.174 930.673 708.048 931.922C667.713 942.912 631.516 947.534 592.828 955.968C560.202 962.912 518.416 979.572 486.173 987.325C490.052 988.885 489.201 989.497 496.116 991.778C508.522 995.657 523.151 996.412 535.672 1000.13C576.635 1019.89 615.93 1041.73 656.38 1062.14C727.371 1097.87 794.946 1138.86 879.644 1156.23C921.721 1168.89 963.263 1182.1 998.639 1203.89C1012.21 1212.46 1027.14 1220.25 1037.9 1232.38C1042.66 1237.29 1032.44 1239.16 1026.11 1243C955.335 1284.88 897.211 1299.69 845.702 1309.79C828.856 1313.86 811.979 1317.89 796.386 1319.89C781.49 1322.91 770.769 1325.45 763.659 1328.11C776.066 1331.61 789.957 1330.06 805.671 1333.1C856.664 1341.5 907.669 1350.45 950.346 1370.31C994.127 1390.74 1034.81 1415.19 1077.16 1437.46M331.54 -35.3041C307.56 -31.3005 280.682 -22.4708 258.773 -21.5922C231.507 -20.5939 203.779 -18.7527 177.712 -19.5487C180.194 -11.7754 179.415 2.0516 177.402 16.2295C188.558 29.8199 204.532 51.8484 219.717 65.2579C230.245 94.0947 255.693 107.555 275.163 125.471C373.16 216.189 495.262 276.151 594.793 365.016C605.134 374.063 613.844 385.147 622.629 396.066C625.884 400.042 626.246 401.077 629.373 404.244C628.106 405.214 631.054 407.731 628.392 411.227C617.893 416.124 606.018 419.161 596.969 419.741C585.504 422.335 575.739 422.182 566.191 421.844C519.862 430.556 478.259 431.952 435.624 435.221C365.303 443.2 298.586 446.152 236.79 441.657C199.19 439.302 159.699 438.111 125.581 430.775C114.583 430.071 111.154 430.165 104.128 429.603C118.192 440.812 127.589 449.555 142.259 460.714C144.922 465.327 155.936 474.575 160.369 477.86C172.446 493.296 185.604 507.422 198.991 521.256C257.121 583.244 320.592 638.83 382.862 695.606C441.369 747.926 506.244 799.69 568.05 841.716C614.104 873.653 664.382 900.075 709.139 933.647C711.229 938.548 715.181 941.413 716.241 947.607C713.789 949.76 700.188 953.657 696.363 954.813C655.356 965.961 618.736 970.353 579.402 978.904C545.737 986.067 503.044 1003.19 469.676 1011.18C473.195 1012.6 471.702 1013.18 478.312 1015.41C490.054 1019.15 503.841 1020.03 515.67 1023.65C557.088 1043.89 596.888 1066.15 637.942 1086.85C710.555 1123.37 779.697 1165.27 866.547 1182.71C908.813 1194.9 950.551 1207.62 985.871 1229.27C999.204 1237.64 1013.63 1245.49 1024.32 1257.22C1029.1 1262.04 1019.42 1263.46 1013.08 1267.29C940.546 1310.17 881.026 1325.17 828.3 1335.38L828.151 1335.41C811.294 1339.38 794.367 1343.37 778.734 1345.33C764.674 1348.12 754.845 1350.55 748.768 1353.07C761.683 1356.68 776.447 1355.03 792.528 1357.99C844.887 1366.28 896.997 1375.45 940.635 1395.76C982.953 1415.51 1022.51 1438.82 1063.68 1460.03M322.593 -19.8354C297.632 -15.752 269.666 -6.67258 246.84 -5.81238C218.482 -4.82865 189.657 -2.98642 162.576 -3.90375C163.103 2.99748 160.586 15.7082 156.718 28.9034C166.159 41.2618 180.809 62.0313 194.477 74.1147C204.395 103.049 229.646 116.198 248.808 133.84C349.866 227.393 475.781 289.222 578.405 380.875C588.962 390.136 597.843 401.49 606.844 412.63C610.191 416.709 610.647 417.792 613.912 421.053C612.849 421.997 616.173 424.486 613.695 427.999C604.208 432.576 593.227 435.334 584.938 435.917C573.837 438.585 564.389 438.572 555.116 438.434C507.875 447.64 465.463 449.36 421.989 452.995C349.734 461.395 281.174 464.636 217.707 460.173C178.99 457.793 138.351 456.728 103.335 449.067C92.367 448.171 88.1343 448.105 80.7053 447.388C93.3091 457.465 101.06 465.042 114.164 475.231C116.38 479.644 127.204 488.858 131.247 491.9C143.181 507.485 156.244 521.701 169.581 535.567C228.562 598.674 293.231 654.945 356.574 712.559C416.892 766.487 483.194 819.639 547.729 862.698C595.897 895.389 648.437 922.362 695.244 956.778C697.855 961.659 702.379 964.449 703.911 970.688C701.817 972.756 688.207 976.636 684.683 977.697C643.004 989.005 605.959 993.166 565.981 1001.83C531.276 1009.22 487.677 1026.8 453.184 1035.03C456.343 1036.31 454.207 1036.86 460.512 1039.03C471.591 1042.64 484.535 1043.63 495.672 1047.16C537.546 1067.89 577.851 1090.56 619.509 1111.55C693.743 1148.88 764.453 1191.66 853.454 1209.19C895.909 1220.91 937.844 1233.14 973.108 1254.65C986.205 1262.82 1000.14 1270.72 1010.75 1282.05C1015.54 1286.78 1006.39 1287.76 1000.06 1291.58C925.762 1335.45 864.846 1350.65 810.903 1360.96L809.03 1361.39C792.68 1365.14 776.271 1368.91 761.086 1370.76C747.862 1373.32 738.926 1375.65 733.883 1378.02C747.305 1381.73 762.942 1379.99 779.39 1382.87C833.115 1391.06 886.33 1400.45 930.928 1421.2C971.783 1440.26 1010.22 1462.46 1050.21 1482.6M313.642 -4.3609C287.7 -0.197551 258.647 9.13152 234.902 9.9733C205.453 10.9425 175.531 12.7857 147.435 11.7471C146.008 17.7763 141.753 29.3706 136.03 41.5831C143.755 52.7095 157.081 72.2202 169.233 82.9774C178.54 112.008 203.594 124.847 222.448 142.215C326.568 238.604 456.297 302.3 562.013 396.741C572.785 406.216 581.838 417.838 591.054 429.199C594.494 433.382 595.043 434.513 598.446 437.868C597.588 438.785 601.288 441.247 598.994 444.777C590.518 449.033 580.433 451.512 572.904 452.1C562.166 454.841 553.036 454.967 544.037 455.031C495.884 464.729 452.664 466.775 408.351 470.776C334.161 479.595 263.758 483.126 198.621 478.694C158.785 476.29 116.999 475.352 81.0838 467.365C70.1469 466.276 65.1106 466.052 57.2787 465.179C68.4219 474.125 74.5275 480.536 86.0646 489.753C87.8341 493.968 98.4678 503.148 102.121 505.946C113.912 521.68 126.88 535.986 140.168 549.885C200 614.11 265.865 671.066 330.281 729.519C392.411 785.055 460.14 839.595 527.405 883.686C577.686 917.131 632.489 944.654 681.346 979.915C684.478 984.775 689.573 987.491 691.576 993.775C689.841 995.758 676.222 999.62 672.999 1000.59C630.647 1012.05 593.179 1015.99 552.555 1024.77C516.811 1032.37 472.305 1050.42 436.688 1058.89C439.486 1060.03 436.708 1060.54 442.708 1062.66C453.124 1066.14 465.226 1067.25 475.671 1070.68C518 1091.89 558.811 1114.97 601.071 1136.26C676.927 1174.38 749.204 1218.07 840.358 1235.68C883.002 1246.92 925.133 1258.67 960.341 1280.03C973.202 1288 986.635 1295.96 997.172 1306.89C1001.99 1311.52 993.365 1312.06 987.026 1315.88C910.973 1360.75 848.662 1376.13 793.502 1386.55C776.473 1390.35 759.285 1394.31 743.435 1396.19C731.046 1398.53 723.003 1400.76 718.993 1402.99C732.923 1406.79 749.433 1404.96 766.248 1407.76C821.339 1415.84 875.658 1425.46 921.217 1446.65C960.61 1465.03 997.915 1486.09 1036.73 1505.18M304.688 11.103C277.764 15.3462 247.624 24.925 222.961 25.7484C192.421 26.703 161.401 28.5473 132.292 27.3872C128.91 32.5444 122.916 43.0224 115.339 54.2523C121.349 64.1466 133.35 82.3984 143.986 91.8294C152.682 120.957 177.539 133.485 196.085 150.579C303.267 249.804 436.809 315.366 545.618 412.596C556.606 422.284 565.83 434.176 575.262 445.758C578.794 450.044 579.437 451.224 582.977 454.672C582.324 455.563 586.4 457.997 584.289 461.545C576.825 465.48 567.635 467.681 560.865 468.272C550.499 471.084 541.692 471.351 532.975 471.616L532.955 471.617C483.89 481.808 439.861 484.179 394.709 488.546C318.584 497.785 246.338 501.605 179.531 497.205C138.578 494.776 95.644 493.964 58.8297 485.653C47.9235 484.371 42.0836 483.988 33.8489 482.959C43.5314 490.774 47.9915 496.018 57.9619 504.264C59.2847 508.28 69.7282 517.426 72.9922 519.982C84.6401 535.864 97.5132 550.261 110.751 564.192C171.434 629.535 238.497 687.177 303.985 746.468C367.927 803.611 437.082 859.54 507.077 904.664C559.472 938.863 616.537 966.936 667.444 1003.04C671.097 1007.88 676.765 1010.52 679.239 1016.85C677.861 1018.75 664.234 1022.59 661.312 1023.47C618.288 1035.09 580.396 1038.79 539.127 1047.7C502.342 1055.52 456.93 1074.02 420.188 1082.73C422.627 1083.73 419.207 1084.21 424.901 1086.27C434.654 1089.62 445.913 1090.85 455.667 1094.19C498.451 1115.88 539.767 1139.38 582.631 1160.95C660.108 1199.88 733.952 1244.46 827.258 1262.15C870.091 1272.92 912.418 1284.18 947.571 1305.4C960.196 1313.17 973.13 1321.19 983.591 1331.72C988.422 1336.25 980.335 1336.36 973.993 1340.16C896.181 1386.03 832.474 1401.6 776.098 1412.13C759.008 1415.84 741.716 1419.77 725.781 1421.62C714.227 1423.73 707.077 1425.85 704.1 1427.94C718.537 1431.85 735.921 1429.91 753.103 1432.63C809.559 1440.62 864.984 1450.45 911.503 1472.09C949.433 1489.78 985.611 1509.72 1023.25 1527.74M298.141 28.4525C270.236 32.7756 239.009 42.604 213.428 43.409C181.797 44.3491 149.68 46.1944 119.556 44.913C114.219 49.1981 106.487 58.5599 97.0563 68.807C101.35 77.4693 112.027 94.4622 121.147 102.567C129.232 131.792 153.891 144.008 172.13 160.829C282.374 262.89 419.728 330.318 531.631 430.336C542.834 440.238 552.23 452.399 561.877 464.202C565.502 468.593 566.238 469.82 569.916 473.361C569.468 474.227 573.92 476.633 571.992 480.198C565.54 483.813 557.245 485.734 551.235 486.329C541.483 489.142 533.169 489.6 524.934 490.052L524.28 490.088C474.304 500.773 429.466 503.468 383.475 508.202C305.415 517.861 231.326 521.97 162.849 517.601C120.778 515.148 76.6964 514.463 38.9833 505.825C28.1078 504.352 21.4643 503.809 12.8269 502.625C21.0486 509.309 23.8632 513.387 32.267 520.662C33.1429 524.479 43.3964 533.591 46.2708 535.903C57.7759 551.934 70.5537 566.421 83.7425 580.384C145.276 646.846 213.536 705.173 280.097 765.302C345.85 824.053 416.433 881.371 489.156 927.527C543.665 962.48 602.993 991.103 655.95 1028.05C660.124 1032.87 666.363 1035.44 669.309 1041.81C668.289 1043.63 654.654 1047.45 652.032 1048.23C608.336 1060.02 570.021 1063.49 528.106 1072.51C490.282 1080.55 443.963 1099.51 406.096 1108.46C408.175 1109.32 404.112 1109.77 409.502 1111.78C418.591 1114.99 429.008 1116.34 438.07 1119.58C481.31 1141.75 523.131 1165.67 566.598 1187.53C645.697 1227.26 721.108 1272.74 816.566 1290.51C859.589 1300.81 902.112 1311.58 937.209 1332.66C949.598 1340.23 962.033 1348.3 972.417 1358.43C977.266 1362.87 969.713 1362.54 963.368 1366.33C883.797 1413.2 818.695 1428.96 761.102 1439.6C743.95 1443.21 726.555 1447.12 710.534 1448.93C699.815 1450.82 693.558 1452.83 691.615 1454.78C706.559 1458.78 724.816 1456.75 742.366 1459.4C800.188 1467.27 856.717 1477.33 904.197 1499.42C940.664 1516.42 975.714 1535.23 1012.17 1552.19M294.079 47.7413C265.192 52.1444 232.878 62.2224 206.379 63.009C173.657 63.9345 140.442 65.7808 109.305 64.3781C102.013 67.7912 92.5429 76.0366 81.2574 85.301C83.8349 92.7314 93.1884 108.465 100.792 115.244C108.266 144.566 132.728 156.471 150.66 173.018C263.965 277.915 405.132 347.209 520.128 450.016C531.547 460.132 541.113 472.562 550.977 484.585C554.694 489.08 555.523 490.355 559.34 493.99C559.096 494.83 563.924 497.208 562.18 500.791C556.739 504.085 549.34 505.728 544.089 506.326C534.443 509.287 526.264 509.832 518.09 510.499C467.202 521.677 421.555 524.697 374.725 529.797C294.731 539.875 218.799 544.275 148.651 539.937C105.462 537.459 60.2331 536.9 21.6213 527.938C10.7765 526.272 3.32942 525.57 -5.71085 524.23C1.05027 529.783 2.21923 532.694 9.05639 538.998C9.48551 542.616 19.5489 551.694 22.0337 553.763C33.3958 569.944 46.0786 584.521 59.218 598.516C121.602 666.096 191.059 725.108 258.693 786.076C326.258 846.434 398.268 905.141 473.72 952.329C530.343 988.037 591.934 1017.21 646.941 1055C651.635 1059.8 658.446 1062.3 661.864 1068.72C661.202 1070.44 647.557 1074.25 645.237 1074.94C600.869 1086.88 562.13 1090.12 519.569 1099.26C480.705 1107.52 433.481 1126.95 394.489 1136.13C396.207 1136.85 391.503 1137.27 396.588 1139.22C405.013 1142.3 414.587 1143.77 422.957 1146.92C466.653 1169.56 508.979 1193.9 553.05 1216.05C633.77 1256.58 710.748 1302.96 808.358 1320.81C851.57 1330.63 894.289 1340.92 929.331 1361.85C941.485 1369.23 953.42 1377.35 963.728 1387.08C968.595 1391.43 961.575 1390.66 955.228 1394.44C873.898 1442.3 807.399 1458.26 748.59 1469.01C731.377 1472.52 713.878 1476.41 697.771 1478.18C687.888 1479.84 682.524 1481.75 681.614 1483.55C697.066 1487.66 716.196 1485.53 734.113 1488.1C793.3 1495.87 850.934 1506.15 899.375 1528.68C934.38 1544.99 968.302 1562.68 1003.59 1578.58M290.022 67.0236C260.154 71.5066 226.753 81.8343 199.335 82.6024C165.523 83.5134 131.211 85.3608 99.0585 83.8367C89.9881 86.3294 79.0304 93.2368 66.213 101.316L65.4641 101.789C66.3258 107.987 74.3551 122.462 80.4421 127.914C87.3062 157.334 111.571 168.928 129.194 185.201C245.562 292.933 390.542 364.094 508.63 469.689C520.265 480.019 530.002 492.718 540.082 504.962C543.892 509.561 544.814 510.884 548.768 514.613C548.729 515.427 553.933 517.777 552.372 521.377C547.944 524.35 541.44 525.714 536.949 526.317C527.666 529.351 519.805 530.035 511.905 530.903C460.105 542.574 413.65 545.92 365.98 551.385C284.052 561.884 206.277 566.572 134.459 562.266C90.1516 559.764 43.7754 559.331 4.26477 550.043C-6.54927 548.186 -14.8 547.324 -24.2431 545.829C-18.9426 550.251 -19.4193 551.995 -14.1487 557.328C-14.1664 560.747 -4.2931 569.791 -2.19778 571.617C9.02139 587.947 21.6089 602.614 34.6989 616.641C97.9337 685.339 168.588 745.037 237.295 806.843C306.672 868.809 380.108 928.904 458.29 977.125C517.026 1013.59 580.879 1043.31 637.937 1081.95C643.152 1086.73 650.535 1089.15 654.424 1095.61C654.12 1097.25 640.467 1101.04 638.448 1101.64C593.406 1113.74 554.244 1116.75 511.038 1126C471.135 1134.48 423.003 1154.37 382.887 1163.79C384.245 1164.37 378.898 1164.76 383.678 1166.66C391.441 1169.6 400.172 1171.19 407.85 1174.24C452.001 1197.37 494.832 1222.12 539.507 1244.57C621.848 1285.89 700.394 1333.17 800.156 1351.11C843.557 1360.45 886.472 1370.25 921.458 1391.04C933.376 1398.22 944.813 1406.4 955.044 1415.73C959.929 1419.98 953.442 1418.77 947.093 1422.54C864.003 1471.4 796.109 1487.55 736.083 1498.4C718.809 1501.82 701.206 1505.69 685.014 1507.42C675.966 1508.86 671.495 1510.66 671.619 1512.32C687.578 1516.53 707.581 1514.31 725.865 1516.79C786.418 1524.46 845.157 1534.96 894.558 1557.94C928.101 1573.57 960.896 1590.13 995.003 1604.97M285.961 86.3116C255.111 90.8745 220.623 101.452 192.287 102.202C157.384 103.098 121.974 104.946 88.8078 103.301C77.6064 104.97 64.6603 110.983 49.666 118.282C48.8118 123.248 55.5171 136.464 60.0879 140.591C66.3412 170.107 90.4083 181.39 107.725 197.389C227.154 307.957 375.947 380.985 497.128 489.368C508.978 499.912 518.887 512.88 529.183 525.345C533.085 530.047 534.1 531.419 538.192 535.241C538.358 536.029 543.938 538.352 542.561 541.969C539.144 544.621 533.535 545.706 529.803 546.313C520.885 549.42 513.341 550.244 505.716 551.313C453.004 563.478 405.74 567.148 357.231 572.979C273.369 583.898 193.75 588.876 120.262 584.6C74.8367 582.075 27.3128 581.768 -13.0965 572.155C-23.8799 570.105 -32.9342 569.084 -42.78 567.434C-38.9403 570.724 -41.0625 571.302 -37.3586 575.664C-37.823 578.884 -28.1398 587.894 -26.4341 589.477C-15.3579 605.955 -2.86553 620.712 10.1751 634.772C74.2607 704.588 146.112 764.972 215.891 827.616C287.08 891.19 361.943 952.673 442.855 1001.93C503.704 1039.14 569.821 1069.42 628.928 1108.9C634.663 1113.66 642.619 1116 646.979 1122.51C647.033 1124.07 633.371 1127.84 631.653 1128.34C585.94 1140.6 546.353 1143.38 502.502 1152.75C461.559 1161.45 412.522 1181.8 371.281 1191.46C372.278 1191.9 366.289 1192.25 370.764 1194.1C377.863 1196.91 385.752 1198.62 392.738 1201.58C437.345 1225.18 480.681 1250.35 525.959 1273.09C609.922 1315.21 690.035 1363.38 791.949 1381.41C835.539 1390.28 878.651 1399.59 913.581 1420.24C925.263 1427.22 936.201 1435.45 946.356 1444.38C951.259 1448.54 945.304 1446.88 938.953 1450.64C854.104 1500.51 784.814 1516.85 723.572 1527.81C706.237 1531.14 688.53 1534.98 672.253 1536.67C664.04 1537.89 660.462 1539.58 661.619 1541.1C678.085 1545.41 698.962 1543.09 717.613 1545.49C779.531 1553.06 839.375 1563.78 889.737 1587.2C921.817 1602.14 953.485 1617.58 986.415 1631.36M281.893 105.595C250.062 110.238 214.486 121.065 185.232 121.796C149.238 122.678 112.731 124.527 78.5506 122.76C65.3943 123.557 50.7101 128.454 33.8613 134.77C31.2913 138.504 36.6725 150.462 39.727 153.262C45.3697 182.875 69.2395 193.847 86.2481 209.572C208.739 322.977 361.345 397.87 485.619 509.042C497.685 519.8 507.765 533.037 518.277 545.723C522.271 550.529 523.38 551.948 527.61 555.864C527.98 556.626 533.936 558.921 532.742 562.556C530.338 564.888 525.623 565.694 522.652 566.304C514.097 569.485 506.87 570.448 499.52 571.719C445.896 584.376 397.824 588.371 348.476 594.569C262.679 605.907 181.217 611.174 106.059 606.93C59.5152 604.38 10.8438 604.2 -30.4643 594.261C-41.2169 592.019 -51.0749 590.84 -61.3235 589.033C-58.9445 591.192 -62.7122 590.604 -60.575 593.995C-61.4862 597.016 -51.9931 605.992 -50.6769 607.332C-39.7436 623.959 -27.3465 638.806 -14.3552 652.898C50.5812 723.833 123.63 784.902 194.482 848.384C267.482 913.566 343.772 976.437 427.413 1026.72C490.376 1064.69 558.755 1095.52 619.913 1135.84C626.169 1140.58 634.696 1142.85 639.527 1149.41C639.94 1150.88 626.269 1154.63 624.852 1155.04C578.466 1167.46 538.456 1170.01 493.96 1179.49C451.977 1188.41 402.033 1209.23 359.668 1219.13C360.305 1219.43 353.674 1219.74 357.844 1221.53C364.279 1224.21 371.325 1226.04 377.62 1228.9C422.682 1252.99 466.523 1278.58 512.405 1301.6C597.989 1344.53 679.669 1393.59 783.735 1411.7C827.515 1420.1 870.822 1428.92 905.697 1449.43C917.144 1456.21 927.582 1464.49 937.661 1473.03C942.582 1477.09 937.16 1475 930.806 1478.75C844.199 1529.61 773.513 1546.14 711.054 1557.21C693.658 1560.44 675.848 1564.27 659.484 1565.91C652.107 1566.91 649.422 1568.5 651.612 1569.87C668.586 1574.28 690.336 1571.86 709.354 1574.19C772.638 1581.65 833.587 1592.59 884.909 1616.46L888.646 1618.2C918.014 1631.88 947.359 1645.54 977.82 1657.74M278.017 125.018C245.205 129.741 208.542 140.818 178.37 141.531C141.284 142.398 103.68 144.248 68.4855 142.36C53.3744 142.285 36.9521 146.065 18.2489 151.399C13.9631 153.901 18.0202 164.6 19.5584 166.074C24.5904 195.784 48.2629 206.445 64.9638 221.896C190.516 338.136 346.935 414.896 474.302 528.857C486.584 539.828 496.835 553.335 507.563 566.241L507.783 566.506C511.694 571.205 512.931 572.691 517.219 576.628C517.795 577.364 524.127 579.631 523.116 583.283C521.723 585.294 517.904 585.822 515.692 586.436C507.501 589.69 500.591 590.792 493.516 592.264C438.981 605.415 390.1 609.735 339.912 616.298C252.181 628.056 168.876 633.613 92.0477 629.401C44.386 626.826 -5.43306 626.772 -47.6399 616.508C-58.3618 614.074 -69.0234 612.735 -79.6749 610.773C-78.7564 611.801 -84.1698 610.047 -83.5992 612.466C-84.9572 615.289 -75.6542 624.23 -74.7275 625.327C-63.9372 642.103 -51.6353 657.04 -38.6934 671.165C27.0938 743.217 101.34 804.972 173.264 869.293C248.077 936.082 325.794 1000.34 412.163 1051.66C477.24 1090.38 547.882 1121.76 611.089 1162.93C617.866 1167.65 626.966 1169.85 632.268 1176.44C633.014 1177.78 620.235 1181.33 618.391 1181.84L618.243 1181.88C571.185 1194.46 530.752 1196.77 485.61 1206.38C442.587 1215.52 391.737 1236.79 348.247 1246.93C348.523 1247.09 341.25 1247.38 345.115 1249.11C350.888 1251.66 357.091 1253.6 362.694 1256.37C408.211 1280.94 452.558 1306.94 499.042 1330.26C586.248 1373.98 669.496 1423.95 775.714 1442.14C819.683 1450.06 863.186 1458.39 898.005 1478.76C909.216 1485.34 919.156 1493.68 929.158 1501.82C934.097 1505.78 929.209 1503.25 922.852 1506.99C834.485 1558.85 762.404 1575.58 698.728 1586.75C681.271 1589.89 663.357 1593.69 646.908 1595.3C640.366 1596.06 638.574 1597.55 641.798 1598.78C659.279 1603.29 681.902 1600.78 701.287 1603.03C765.937 1610.38 827.99 1621.55 880.273 1645.86C909.429 1659.43 938.841 1672.61 969.418 1684.26" stroke="url(#paint0_linear_57_7746)"/>
<defs>
<linearGradient id="paint0_linear_57_7746" x1="1410.5" y1="-233" x2="72.5" y2="1207.5" gradientUnits="userSpaceOnUse">
<stop stop-color="#30CBAF"/>
<stop offset="1" stop-color="#361DCC"/>
</linearGradient>
</defs>
</svg>
