<svg width="1440" height="1024" viewBox="0 0 1440 1024" fill="none" xmlns="http://www.w3.org/2000/svg">
<path id="Vector" d="M510.998 -773.384C531.568 -678.848 568.378 -631.098 578.607 -527.802C588.836 -424.507 554.297 -433.429 569.161 -331.156C584.026 -228.884 622.656 -232.604 638.08 -116.489C652.064 -11.2075 613.354 -96.7556 624.679 63.5667C636.005 223.889 694.583 243.937 703.354 363.41C711.007 467.659 678.906 456.339 695.994 614.968C713.082 773.596 739.279 700.413 755.136 809.517C770.994 918.622 735.511 919.559 751.83 1020.8C768.15 1122.03 783.234 1126.05 800.947 1211.77C818.66 1297.5 808.111 1379.96 821.908 1491.91M547.559 -745.785C564.165 -650.765 599.095 -601.693 604.937 -498.369C610.778 -395.045 576.463 -405.343 587.006 -302.849C597.548 -200.355 636.516 -202.485 647.026 -86.1768C656.556 19.2785 621.339 -67.5276 625.834 92.6531C630.33 252.834 688.317 275.198 692 394.579C695.213 498.747 663.449 486.16 673.806 644.888C684.163 803.617 713.622 731.778 724.869 841.119C736.116 950.46 700.429 949.945 712.478 1051.47C724.526 1152.99 739.508 1157.6 753.622 1243.73C767.736 1329.86 753.6 1411.57 762.654 1523.66M584.164 -718.21C596.802 -622.872 629.805 -572.551 631.275 -469.384C632.745 -366.217 598.708 -377.888 604.937 -275.355C611.165 -172.822 650.404 -173.339 656.012 -57.0456C661.096 48.3962 629.411 -39.5258 627.108 120.223C624.805 279.973 682.11 304.638 680.727 423.711C679.52 527.61 648.145 513.764 651.793 672.308C655.44 830.852 688.095 760.503 694.739 869.886C701.383 979.269 665.552 977.286 673.335 1078.91C681.117 1180.54 695.972 1185.75 706.485 1272.13C716.998 1358.51 699.317 1439.33 703.641 1551.36M620.836 -690.651C629.508 -595.16 660.541 -543.665 657.662 -440.839C654.784 -338.014 621.082 -351.053 623.011 -248.661C624.939 -146.269 664.384 -145.155 665.108 -29.0825C665.765 76.1589 637.644 -12.7357 628.587 146.294C619.529 305.325 676.06 332.273 669.644 450.824C664.046 554.268 633.109 539.173 630.081 697.249C627.052 855.326 662.829 786.608 664.886 895.84C666.944 1005.07 631.03 1001.61 634.558 1103.16C638.087 1204.72 652.791 1210.53 659.707 1297C666.622 1383.48 645.447 1463.25 645.062 1575.02M657.564 -663.108C662.28 -567.628 691.302 -515.035 684.106 -412.734C676.911 -310.433 643.598 -324.833 641.25 -222.762C638.902 -120.691 678.483 -117.928 674.353 -2.28156C670.608 102.574 646.077 12.8505 630.321 170.877C614.566 328.903 670.231 358.115 658.824 475.932C648.87 578.735 618.421 562.402 608.763 719.732C599.104 877.061 637.923 810.111 635.418 919.001C632.914 1027.89 596.978 1022.94 596.272 1124.24C595.566 1225.54 610.096 1231.94 613.424 1318.37C616.753 1404.8 592.141 1483.37 587.076 1594.69M694.361 -635.578C695.137 -540.274 722.11 -486.66 710.636 -385.064C699.163 -283.468 666.294 -299.219 659.7 -197.647C653.105 -96.0754 692.754 -91.6514 683.806 23.368C675.693 127.655 654.772 37.2462 632.386 193.988C610.001 350.73 664.71 382.178 648.361 499.051C634.096 601.031 604.184 583.477 587.953 739.782C571.722 896.086 613.497 831.039 606.463 939.396C599.428 1047.75 563.532 1041.3 558.619 1142.18C553.707 1243.05 568.038 1250.04 567.795 1336.27C567.552 1422.5 539.567 1499.72 529.859 1610.39M731.206 -608.063C728.064 -513.095 752.953 -458.541 737.248 -357.828C721.543 -257.114 689.173 -274.204 678.37 -173.308C667.567 -72.4115 707.213 -66.3157 693.492 47.876C681.052 151.412 663.756 60.4635 634.82 215.643C605.885 370.823 659.548 404.48 638.317 520.203C619.791 621.179 590.466 602.419 567.731 757.425C544.995 912.432 589.636 849.417 578.112 957.053C566.587 1064.69 530.794 1056.73 521.709 1157.01C512.624 1257.29 526.732 1264.86 522.94 1350.74C519.149 1436.63 487.86 1512.36 473.555 1622.18M768.11 -580.553C761.08 -486.083 783.853 -430.668 763.97 -331.014C744.087 -231.359 712.271 -249.774 697.305 -149.726C682.338 -49.6789 721.91 -41.9038 703.47 71.263C686.751 173.87 673.089 82.5255 637.695 235.87C602.301 389.215 654.828 425.048 628.782 539.418C606.055 639.214 577.366 619.265 548.207 772.704C519.047 926.143 566.456 865.285 550.489 972.017C534.523 1078.75 498.896 1069.28 485.68 1168.79C472.464 1268.29 486.326 1276.44 479.014 1361.84C471.702 1447.23 437.185 1521.32 418.337 1630.12M805.074 -553.05C794.192 -459.236 814.821 -403.042 790.82 -304.618C766.82 -206.195 735.613 -225.919 716.535 -126.891C697.456 -27.8636 736.884 -18.4047 713.786 93.5428C692.844 195.044 682.819 103.448 641.069 254.691C599.32 405.933 650.622 443.906 619.837 556.723C592.975 655.164 564.971 634.048 529.479 785.654C493.986 937.26 544.06 878.68 523.707 984.323C503.354 1089.97 467.958 1079 450.659 1177.56C433.361 1276.12 446.952 1284.84 436.154 1369.6C425.356 1454.36 387.693 1526.68 364.363 1634.26M842.099 -525.554C827.407 -432.552 845.866 -375.66 817.816 -278.638C789.767 -181.615 759.223 -202.628 736.092 -104.789C712.96 -6.95037 752.171 4.19357 724.486 114.731C699.384 214.954 692.993 123.251 645.002 272.128C597.01 421.006 647 461.079 611.561 572.147C580.638 669.062 553.365 646.801 511.642 796.314C469.919 945.826 522.551 889.641 497.874 994.016C473.198 1098.39 438.096 1085.92 416.771 1183.37C395.445 1280.82 408.743 1290.1 394.498 1374.09C380.254 1458.07 339.534 1528.49 311.79 1634.66M879.184 -498.055C860.731 -406.02 876.997 -348.514 844.974 -253.058C812.952 -157.603 783.124 -179.885 756.006 -83.3991C728.887 13.0864 767.809 25.9138 735.613 134.854C706.421 233.628 703.657 141.961 649.548 288.217C595.44 434.473 644.031 476.603 604.03 585.732C569.126 680.954 542.632 657.572 494.791 804.737C446.951 951.901 502.027 898.22 473.097 1001.15C444.167 1104.08 409.424 1090.11 384.134 1186.29C358.844 1282.47 371.825 1292.3 354.18 1375.37C336.535 1458.44 292.851 1526.83 260.77 1631.41M916.331 -470.555C894.172 -379.637 908.226 -321.601 872.311 -227.874C836.396 -134.147 807.338 -157.675 776.305 -62.705C745.273 32.2651 783.832 46.7713 747.211 153.931C714.007 251.091 714.855 159.602 654.764 302.986C594.674 446.37 641.782 490.51 597.318 597.513C558.521 690.879 532.852 666.403 479.017 810.969C425.182 955.536 482.585 904.467 449.479 1005.78C416.374 1107.1 382.053 1091.63 352.868 1186.38C323.683 1281.12 336.323 1291.5 315.329 1373.51C294.336 1455.53 247.785 1521.77 211.452 1624.59M953.538 -443.054C927.734 -353.402 939.56 -294.92 899.842 -203.08C860.123 -111.24 831.887 -135.987 797.019 -42.6907C762.151 50.606 800.276 66.783 759.322 171.983C722.189 267.366 726.631 176.197 660.703 316.466C594.776 456.734 640.317 502.834 591.499 607.529C548.902 698.881 524.104 673.339 464.408 815.064C404.712 956.79 464.319 908.432 427.122 1007.96C389.925 1107.49 356.091 1090.55 323.086 1183.7C290.081 1276.86 302.359 1287.76 278.073 1368.59C253.788 1449.42 204.476 1513.38 163.981 1614.27M990.808 -415.541C961.425 -327.3 971.01 -268.456 927.583 -178.656C884.156 -88.8565 856.793 -114.797 818.175 -23.3278C779.558 68.1414 817.175 85.978 771.988 189.044C731.016 282.492 739.026 191.783 667.418 328.7C595.809 465.617 639.7 513.622 586.643 615.832C540.347 705.017 516.465 678.438 451.051 817.086C385.636 955.735 447.322 910.183 406.125 1007.76C364.928 1105.34 331.644 1086.93 294.901 1178.35C258.158 1269.76 270.05 1281.18 242.535 1360.69C215.021 1440.2 163.056 1501.77 118.496 1600.56M1028.14 -388.026C995.25 -301.339 1002.58 -242.218 955.549 -154.607C908.514 -66.9971 882.075 -94.1005 839.799 -4.60864C797.524 84.8832 834.562 104.365 785.247 205.127C740.534 296.487 752.082 206.377 674.957 339.713C597.832 473.049 639.993 522.903 582.819 622.458C532.931 709.326 510.007 681.742 439.028 817.084C368.049 952.425 431.682 909.768 386.582 1005.24C341.482 1100.71 308.814 1080.85 268.42 1170.37C228.027 1259.89 239.512 1271.82 208.835 1349.88C178.158 1427.95 123.654 1487.02 75.1355 1583.54M1065.53 -360.493C1029.21 -275.498 1034.29 -216.185 983.755 -130.909C933.219 -45.6318 907.754 -73.8661 861.918 13.5029C816.082 100.872 852.468 121.982 799.14 220.277C750.788 309.399 765.838 220.024 683.37 349.558C600.903 479.092 641.256 530.734 580.094 627.469C526.726 711.876 504.804 683.321 428.421 815.134C352.038 946.947 417.485 907.267 368.586 1000.47C319.688 1093.68 287.698 1072.39 243.748 1159.87C199.798 1247.35 210.854 1259.77 177.088 1336.26C143.322 1412.76 86.3962 1469.23 34.0298 1563.33M1102.98 -332.945C1063.32 -249.777 1066.14 -190.358 1012.21 -107.554C958.29 -24.7494 933.847 -54.0804 884.554 31.025C835.26 116.13 870.923 138.848 813.702 234.516C761.819 321.257 780.331 232.752 692.704 358.272C605.076 483.791 643.544 537.156 578.53 630.912C521.801 712.721 500.922 683.231 419.306 811.3C337.691 939.37 404.812 902.744 352.226 993.535C299.64 1084.33 268.39 1061.63 220.983 1146.93C173.576 1232.24 184.182 1245.13 147.404 1319.93C110.626 1394.73 51.4019 1448.5 -4.69519 1540.02M1140.5 -305.383C1097.58 -224.171 1098.13 -164.732 1040.94 -84.5335C983.747 -4.3353 960.374 -34.7269 907.732 47.9792C855.091 130.685 889.959 154.986 828.97 247.875C773.671 332.096 795.599 244.594 703.003 365.895C610.406 487.195 646.916 542.217 578.191 632.841C518.224 711.918 498.429 681.53 411.759 805.65C325.09 929.77 393.746 896.268 337.587 984.499C281.429 1072.73 250.982 1048.65 200.223 1131.64C149.464 1214.63 159.599 1227.99 119.892 1300.98C80.1844 1373.96 18.7878 1424.94 -40.9165 1513.74M1178.07 -277.797C1131.99 -198.668 1130.29 -139.293 1069.95 -61.8292C1009.61 15.6348 987.35 -15.7791 931.474 64.3969C875.598 144.573 909.602 170.431 844.977 260.392C786.382 341.96 811.674 255.592 714.309 372.478C616.943 489.365 651.422 545.972 579.135 633.32C516.06 709.537 497.386 678.29 405.85 798.263C314.314 918.236 384.36 887.921 324.751 973.453C265.143 1058.99 235.559 1033.55 181.558 1114.1C127.558 1194.64 137.203 1208.44 94.6525 1279.51C52.1023 1350.57 -11.3366 1398.66 -74.519 1484.6M1215.7 -250.188C1166.57 -173.265 1162.6 -114.039 1099.25 -39.4316C1035.89 35.1757 1014.79 2.77971 955.801 80.3004C896.81 157.821 929.879 185.206 861.757 272.099C799.991 350.885 828.591 265.779 726.663 378.066C624.734 490.353 657.114 548.471 581.418 632.403C515.368 705.64 497.853 673.575 401.645 789.211C305.438 904.847 376.727 877.778 313.796 960.477C250.864 1043.18 222.205 1016.42 165.078 1094.39C107.951 1172.37 117.086 1186.59 71.7837 1255.62C26.482 1324.65 -38.8657 1369.78 -105.392 1452.73M1253.39 -222.557C1201.3 -147.956 1195.09 -88.9637 1128.85 -17.3295C1062.61 54.3047 1042.71 20.969 980.733 95.7144C918.751 170.46 950.817 199.338 879.34 283.029C814.532 358.911 846.38 275.192 740.103 382.703C633.826 490.214 664.04 549.767 585.093 630.152C516.207 700.293 499.889 667.452 399.211 778.572C298.533 889.692 370.918 865.917 304.796 945.656C238.673 1025.4 210.997 997.347 150.864 1072.63C90.7305 1147.92 99.3364 1162.54 51.3784 1229.44C3.42033 1296.33 -63.699 1338.41 -133.429 1418.24M1291.14 -194.896C1236.2 -122.73 1227.76 -64.0555 1158.77 4.4953C1089.78 73.0461 1071.13 38.8148 1006.29 110.671C941.443 182.527 972.439 212.863 897.755 293.223C830.041 366.085 865.071 283.876 754.666 386.444C644.261 489.012 672.244 549.921 590.212 626.634C518.633 693.571 503.544 659.998 398.605 766.431C293.667 872.863 366.996 852.428 297.82 929.084C228.644 1005.74 202.009 976.437 138.995 1048.92C75.9796 1121.4 84.0384 1136.41 33.5234 1201.06C-16.9915 1265.71 -85.743 1304.69 -158.532 1381.27M1328.95 -167.202C1271.26 -97.5791 1260.61 -39.306 1189.01 26.0574C1117.42 91.4208 1100.06 56.34 1032.48 125.199C964.91 194.057 994.769 225.811 917.032 302.72C846.549 372.452 884.692 291.872 770.385 389.341C656.079 486.809 681.771 548.991 596.821 621.915C522.697 685.546 508.871 651.288 399.887 752.871C290.903 854.454 365.023 837.395 292.935 910.854C220.847 984.312 195.311 953.791 129.544 1023.36C63.7764 1092.92 71.2707 1108.31 18.302 1170.62C-34.6667 1232.93 -104.908 1268.74 -180.607 1341.95M1366.81 -139.475C1306.5 -72.4972 1293.65 -14.7082 1219.59 47.3701C1145.54 109.448 1129.5 73.5662 1059.34 139.325C989.17 205.084 1017.83 238.213 937.195 311.556C864.087 378.055 905.267 299.22 787.292 391.444C669.318 483.667 692.661 547.036 604.966 616.062C528.447 676.291 515.915 641.394 403.107 737.977C290.299 834.56 365.056 820.907 290.202 891.059C215.349 961.211 190.967 929.512 122.58 996.061C54.1932 1062.61 61.1063 1078.34 5.79056 1138.23C-49.5251 1198.11 -121.112 1230.69 -199.566 1300.43M1404.74 -111.716C1341.93 -47.4796 1326.9 9.74351 1250.53 68.4458C1174.16 127.148 1159.49 90.514 1086.87 153.077C1014.25 215.64 1041.65 250.1 958.281 319.77C882.693 382.938 926.832 305.962 805.428 392.804C684.023 479.647 704.962 544.115 614.7 609.141C535.94 665.881 524.732 630.393 408.327 721.834C291.922 813.276 367.161 803.051 289.692 869.794C212.222 936.536 189.049 903.704 118.179 967.14C47.3093 1030.58 53.6251 1046.63 -3.92746 1104C-61.4801 1161.37 -134.265 1190.68 -215.318 1256.84M1442.69 -83.9144C1377.51 -22.5126 1360.32 34.0636 1281.8 89.3055C1203.27 144.547 1190 107.213 1115.07 166.49C1040.14 225.768 1066.21 261.511 980.277 327.407C902.361 387.154 949.376 312.146 824.785 393.483C700.193 474.819 718.677 540.296 626.028 601.229C545.185 654.397 535.329 618.369 415.559 704.537C295.789 790.705 371.354 783.926 291.422 847.163C211.49 910.401 189.578 876.481 116.366 936.712C43.1533 996.943 48.8568 1013.3 -10.8194 1068.07C-70.4957 1122.84 -144.33 1148.83 -227.821 1211.32M1480.71 -56.0724C1413.27 2.40899 1393.97 58.2583 1313.44 109.962C1232.9 161.666 1221.06 123.684 1143.97 179.593C1066.89 235.502 1091.57 272.477 1003.24 334.507C923.147 390.749 972.951 317.815 845.42 393.532C717.889 469.248 733.869 535.642 639.017 592.396C556.253 641.918 547.773 605.4 424.875 686.174C301.977 766.949 377.711 763.622 295.475 823.266C213.238 882.91 192.637 847.951 117.226 904.893C41.8148 961.835 46.8915 978.469 -14.7922 1030.56C-76.4759 1082.66 -151.211 1105.3 -236.974 1164.03M1518.78 -28.1899C1449.22 27.2903 1427.82 82.3338 1345.44 130.43C1263.07 178.525 1252.69 139.95 1173.59 192.414C1094.49 244.878 1117.73 283.03 1027.17 341.11C945.063 393.77 997.566 323.011 867.347 393.005C737.127 462.999 750.559 530.213 653.691 582.711C569.167 628.52 562.089 591.564 436.303 666.835C310.518 742.105 386.266 742.234 301.884 798.203C217.503 854.171 198.262 818.223 120.798 871.797C43.3351 925.372 47.7721 942.26 -15.8002 991.61C-79.3724 1040.96 -154.856 1060.21 -242.724 1115.11M1556.9 -0.259094C1485.35 52.145 1461.89 106.305 1377.82 150.729C1293.76 195.153 1284.87 156.041 1203.92 204.989C1122.96 253.938 1144.71 293.212 1052.1 347.264C968.126 396.272 1023.23 327.786 890.582 391.966C757.929 456.145 768.771 524.082 670.077 572.256C583.959 614.291 578.304 576.952 449.876 646.618C321.448 716.285 397.052 719.864 310.689 772.082C224.326 824.301 206.492 787.416 127.126 837.552C47.7594 887.687 51.5437 904.806 -13.7957 951.342C-79.1351 997.878 -155.215 1013.72 -245.018 1064.71M1595.08 27.7195C1521.67 76.9783 1496.18 130.179 1410.6 170.874C1325.01 211.57 1317.64 171.978 1234.99 217.348C1152.33 262.718 1172.52 303.056 1078.03 353.009C992.367 398.302 1049.98 332.184 915.154 390.469C780.326 448.753 788.541 517.314 688.212 561.103C600.668 599.312 596.456 561.643 465.633 625.617C334.81 689.591 410.116 696.608 321.936 745.008C233.757 793.409 217.375 755.643 136.257 802.275C55.1394 848.906 58.2595 866.23 -8.72339 909.891C-75.7061 953.552 -152.231 965.978 -243.795 1012.99M1633.29 55.7482C1558.16 101.798 1530.69 153.965 1443.75 190.883C1356.8 227.8 1350.97 187.788 1266.77 229.523C1182.57 271.257 1201.16 312.597 1104.98 358.391C1017.78 399.912 1077.8 336.252 941.055 388.572C804.312 440.892 809.867 509.977 708.096 549.328C619.295 583.665 616.544 545.723 483.577 603.926C350.61 662.129 425.461 672.565 335.633 717.087C245.805 761.61 230.918 723.021 148.203 766.089C65.4873 809.158 67.9326 826.661 -0.568069 867.391C-69.0686 908.122 -145.885 917.117 -239.035 960.093M1671.54 83.8289C1594.84 126.613 1565.42 177.672 1477.28 210.77C1389.15 243.868 1384.88 203.495 1299.3 241.545C1213.71 279.595 1230.64 321.872 1132.95 363.453C1044.38 401.154 1106.7 340.037 968.308 386.335C829.912 432.633 832.777 502.137 729.76 537.008C639.872 567.435 638.598 529.276 503.74 581.641C368.882 634.007 443.124 647.835 351.818 688.427C260.511 729.018 247.158 689.664 163.001 729.118C78.8435 768.573 80.6043 786.228 10.7135 823.978C-59.1774 861.728 -136.132 867.289 -230.693 906.181M1709.82 111.961C1631.68 151.428 1600.36 201.308 1511.2 230.551C1422.04 259.794 1419.36 219.122 1332.55 253.445C1245.73 287.767 1260.97 330.916 1161.96 368.237C1072.18 402.077 1136.7 343.584 996.912 383.814C857.127 424.044 857.275 493.863 753.209 524.218C662.404 550.704 662.62 512.386 526.126 558.857C389.632 605.329 463.114 622.517 370.499 659.132C277.884 695.747 266.105 655.69 180.662 691.484C95.2203 727.279 96.288 745.061 25.1359 779.785C-46.0163 814.509 -122.957 816.642 -218.75 851.407M1748.15 140.152C1668.72 176.257 1635.54 224.888 1545.53 250.249C1455.51 275.609 1454.43 234.7 1366.55 265.259C1278.68 295.818 1292.17 339.77 1192.02 372.795C1101.2 402.737 1167.8 346.946 1026.89 381.073C885.985 415.2 883.396 485.228 778.477 511.04C686.928 533.563 688.645 495.143 550.772 535.676C412.898 576.21 485.468 596.717 391.718 629.317C297.967 661.918 287.796 621.22 201.228 653.317C114.659 685.413 115.026 703.294 42.7432 734.953C-29.5398 766.612 -106.315 765.328 -203.16 795.931M1786.53 168.398C1705.95 201.101 1670.97 248.415 1580.26 269.874C1489.55 291.332 1490.1 250.249 1401.32 277.016C1312.53 303.783 1324.25 348.468 1223.14 377.164C1131.46 403.184 1200.03 350.165 1058.26 378.165C916.491 406.166 911.146 476.296 805.571 497.549C713.45 516.093 716.678 477.629 577.682 512.191C438.685 546.752 510.195 570.531 415.482 599.087C320.77 627.642 312.24 586.369 224.704 614.736C137.168 643.103 136.828 661.056 63.5457 689.616C-9.73666 718.176 -86.1957 713.492 -183.914 739.907M1824.93 196.709C1743.34 225.978 1706.61 271.909 1615.38 289.452C1524.15 306.994 1526.33 265.801 1436.81 288.755C1347.29 311.708 1357.18 357.053 1255.3 381.4C1162.92 403.476 1233.35 353.297 1090.99 375.16C948.623 397.023 940.51 467.146 834.476 483.829C741.955 498.385 746.701 459.939 606.839 488.505C466.977 517.071 537.279 544.071 441.778 568.557C346.277 593.044 339.42 551.261 251.076 575.875C162.733 600.488 161.68 618.485 87.5307 643.918C13.381 669.351 -62.6119 661.292 -161.022 683.499M1863.37 225.079C1780.91 250.887 1742.48 295.371 1650.9 308.992C1559.32 322.613 1563.14 281.375 1473.04 300.499C1382.94 319.624 1390.99 365.555 1288.52 385.539C1195.61 403.658 1267.78 356.382 1125.09 372.107C982.393 387.831 971.501 457.839 865.206 469.951C772.457 480.519 778.724 442.149 638.254 464.709C497.785 487.268 566.736 517.428 470.62 537.83C374.504 558.232 369.347 516.008 280.356 536.85C191.366 557.691 189.597 575.703 114.712 597.986C39.8285 620.27 -35.5502 608.868 -134.473 626.856M1901.83 253.512C1818.66 275.837 1778.59 318.813 1686.82 328.514C1595.06 338.214 1600.52 296.997 1510.01 312.285C1419.5 327.573 1425.66 374.013 1322.79 389.628C1229.52 403.785 1303.31 359.47 1160.55 369.067C1017.79 378.664 1004.12 448.446 897.76 455.994C804.953 462.581 812.744 424.348 671.923 440.901C531.103 457.453 598.562 490.706 502.005 507.015C405.449 523.324 402.016 480.729 312.539 497.788C223.062 514.847 220.573 532.845 145.087 551.962C69.6023 571.079 -5.01594 556.371 -104.271 570.136M1940.31 282.009C1856.58 300.838 1814.92 342.245 1723.14 348.034C1631.36 353.823 1638.48 312.692 1547.72 324.142C1456.96 335.593 1461.2 382.465 1358.12 393.712C1264.66 403.909 1339.95 362.608 1197.38 366.099C1054.82 369.591 1038.36 439.036 932.132 442.038C839.438 444.657 848.753 406.621 707.837 417.177C566.921 427.732 632.751 464.006 535.927 476.221C439.104 488.437 437.418 445.54 347.614 458.812C257.81 472.084 254.599 490.04 178.646 505.98C102.693 521.919 28.98 503.949 -70.4272 513.495M1978.82 310.569C1894.67 325.894 1851.49 365.674 1759.86 367.567C1668.22 369.46 1677 328.482 1586.15 336.101C1495.3 343.719 1497.6 390.945 1394.5 397.833C1301.01 404.078 1377.67 365.839 1235.57 363.259C1093.46 360.679 1074.22 429.676 968.316 428.155C875.904 426.827 886.74 389.049 745.983 393.629C605.226 398.209 669.291 437.426 572.374 445.553C475.456 453.681 475.537 410.555 385.566 420.043C295.595 429.531 291.661 447.416 215.374 460.172C139.086 472.928 66.4192 451.746 -32.9618 457.084M2017.36 339.199C1932.93 351.017 1888.29 389.116 1796.97 387.135C1705.64 385.154 1716.08 344.397 1625.3 348.196C1534.53 351.996 1534.87 399.493 1431.91 402.041C1338.57 404.35 1416.49 369.216 1275.09 360.609C1133.7 352.001 1111.69 420.439 1006.3 414.427C914.338 409.181 926.689 371.722 786.344 370.359C645.998 368.995 708.168 411.069 611.329 415.123C514.489 419.176 516.352 375.894 426.373 381.607C336.394 387.32 331.737 405.104 255.248 414.677C178.759 424.25 107.278 399.912 8.10092 401.062" stroke="url(#paint0_radial_57_7595)"/>
<defs>
<radialGradient id="paint0_radial_57_7595" cx="0" cy="0" r="1" gradientUnits="userSpaceOnUse" gradientTransform="translate(675.5 556) rotate(78.9489) scale(1099.04 1032.56)">
<stop stop-color="#1DADCC"/>
<stop offset="1" stop-color="#306ECB"/>
</radialGradient>
</defs>
</svg>
