<svg width="1440" height="1024" viewBox="0 0 1440 1024" fill="none" xmlns="http://www.w3.org/2000/svg">
<path id="Vector" d="M-405 -200.861L-176.999 1022.86M1729.09 667.004L1567.94 -567.296M-378.654 -190.148L-104.176 1024M-352.308 -179.43L-31.7499 1023.38M-325.962 -168.718L40.2093 1021.01M-299.616 -158L111.638 1016.91M-273.259 -147.29L182.479 1011.1M-246.923 -136.569L252.637 1003.62M-220.566 -125.859L322.09 994.475M-194.221 -115.147L390.745 983.703M-167.886 -104.432L458.538 971.336M-141.528 -93.7162L525.445 957.408M-115.183 -83.0038L591.371 941.95M-88.8372 -72.2914L656.271 925.003M-62.4906 -61.5732L720.089 906.613M-36.144 -50.8551L782.771 886.817M-9.79867 -40.1426L844.261 865.653M16.5469 -29.4303L904.512 843.174M42.8924 -18.7179L963.473 819.427M69.2504 -8.00188L1021.11 794.466M95.5841 2.71277L1077.34 768.338M121.93 13.425L1132.15 741.096M148.288 24.1409L1185.51 712.801M174.622 34.8556L1237.34 683.504M200.98 45.5716L1287.65 653.267M227.325 56.2839L1336.37 622.142M253.671 66.9964L1383.48 590.197M280.017 77.7154L1428.95 557.497M306.363 88.4279L1472.75 524.095M332.709 99.1403L1514.85 490.059M359.055 109.859L1555.24 455.462M385.401 120.571L1593.89 420.356M411.746 131.283L1630.79 384.816M438.104 141.999L1665.92 348.91M464.439 152.719L1699.25 312.709M490.796 163.43L1730.81 276.264M517.142 174.142L1760.56 239.659M543.476 184.857L1788.48 202.96M569.834 195.573L1814.63 166.236M596.18 206.285L1838.95 129.552M622.525 216.997L1861.47 92.9784M648.872 227.716L1882.19 56.5913M675.217 238.428L1901.12 20.4468M701.563 249.146L1918.26 -15.3754M727.909 259.859L1933.64 -50.8192M754.255 270.571L1947.27 -85.8115M780.613 281.287L1959.18 -120.283M806.947 292.002L1969.35 -154.172M833.292 302.714L1977.85 -187.415M859.65 313.424L1984.69 -219.949M885.984 324.144L1989.88 -251.698M912.341 334.855L1993.48 -282.621M938.688 345.573L1995.51 -312.638M965.034 356.286L1996 -341.705M991.38 367.004L1994.99 -369.753M1017.73 377.717L1992.53 -396.737M1044.07 388.429L1988.65 -422.595M1070.42 399.147L1983.39 -447.27M1096.76 409.859L1976.81 -470.721M1123.11 420.572L1968.96 -492.893M1149.47 431.288L1959.88 -513.735M1175.8 442.002L1949.61 -533.206M1202.16 452.718L1938.23 -551.258M1228.5 463.431L1925.78 -567.856M1254.84 474.145L1912.3 -582.954M1281.2 484.861L1897.88 -596.515M1307.54 495.574L1882.56 -608.509M1333.89 506.286L1866.41 -618.899M1360.23 516.998L1849.48 -627.655M1386.58 527.716L1831.84 -634.743M1412.93 538.429L1813.55 -640.147M1439.27 549.147L1794.69 -643.835M1465.62 559.859L1775.3 -645.795M1491.98 570.576L1755.48 -646M1518.31 581.29L1735.25 -644.44M1544.66 592.002L1714.72 -641.102M1571.01 602.713L1693.95 -635.974M1597.35 613.433L1672.99 -629.037M1623.7 624.143L1651.93 -620.306M1650.05 634.856L1630.82 -609.765M1676.4 645.574L1609.74 -597.41M1702.74 656.292L1588.76 -583.251" stroke="url(#paint0_linear_57_7591)"/>
<defs>
<linearGradient id="paint0_linear_57_7591" x1="1565.47" y1="258.633" x2="-64.5748" y2="593.709" gradientUnits="userSpaceOnUse">
<stop stop-color="#1DADCC"/>
<stop offset="1" stop-color="#30CBAF"/>
</linearGradient>
</defs>
</svg>
