<svg width="142" height="66" viewBox="0 0 142 66" fill="none" xmlns="http://www.w3.org/2000/svg">
<path d="M96.1422 42.9561C86.0555 55.0656 67.2319 61.2203 54.1018 56.72C40.9716 52.2197 38.4851 38.761 48.5717 26.6515C58.6584 14.5419 77.482 8.38721 90.6122 12.8875C103.742 17.3878 106.229 30.8465 96.1422 42.9561Z" fill="#1B1B1B" stroke="url(#paint0_linear_46_1908)"/>
<path d="M94.7485 37.9174C85.1854 50.1213 66.586 56.6217 53.1984 52.4045C39.8109 48.1872 36.7467 34.8625 46.3098 22.6586C55.8729 10.4546 74.4723 3.95422 87.8598 8.17145C101.247 12.3887 104.312 25.7134 94.7485 37.9174Z" fill="#222222" stroke="url(#paint1_linear_46_1908)"/>
<g filter="url(#filter0_i_46_1908)">
<path d="M87.5287 35.3492C80.452 44.3801 67.008 49.2687 57.5019 46.2742C47.9958 43.2796 46.0197 33.5335 53.0964 24.5026C60.1731 15.4717 73.6171 10.5831 83.1232 13.5776C92.6293 16.5722 94.6054 26.3183 87.5287 35.3492Z" stroke="url(#paint2_linear_46_1908)"/>
</g>
<path fill-rule="evenodd" clip-rule="evenodd" d="M66.8595 22.9053C69.167 20.8192 73.6514 20.191 76.8757 21.5021L77.9135 21.9241C81.1378 23.2353 81.881 25.9893 79.5734 28.0754L79.202 28.4111L76.8668 27.4615L77.2382 27.1258C78.6227 25.8741 78.1768 24.2217 76.2423 23.435L75.2044 23.013C73.2699 22.2263 70.5792 22.6032 69.1947 23.8549L69.0322 24.0019C68.0826 24.8603 67.9642 25.9499 68.7262 26.8163L72.0753 30.6242C73.3454 32.0683 73.148 33.8843 71.5654 35.315L71.4029 35.4619C69.0953 37.548 64.611 38.1763 61.3867 36.8651L60.3488 36.4431C57.1246 35.132 56.3814 32.3779 58.6889 30.2918L59.0603 29.9561L61.3955 30.9057L61.0241 31.2415C59.6396 32.4931 60.0855 34.1455 62.0201 34.9322L63.058 35.3542C64.9925 36.1409 67.6831 35.764 69.0677 34.5123L69.2302 34.3654C70.1797 33.507 70.2982 32.4174 69.5361 31.5509L66.1871 27.743C64.917 26.2989 65.1144 24.483 66.6969 23.0522L66.8595 22.9053Z" fill="url(#paint3_linear_46_1908)"/>
<path fill-rule="evenodd" clip-rule="evenodd" d="M81.5468 19.6257L77.9079 22.9155L75.577 21.9676L79.2159 18.6779L81.5468 19.6257Z" fill="url(#paint4_linear_46_1908)"/>
<path fill-rule="evenodd" clip-rule="evenodd" d="M63.0489 36.3487L59.2583 39.7755L56.9274 38.8277L60.718 35.4008L63.0489 36.3487Z" fill="url(#paint5_linear_46_1908)"/>
<defs>
<filter id="filter0_i_46_1908" x="37.3887" y="12.3262" width="54.8481" height="51.1995" filterUnits="userSpaceOnUse" color-interpolation-filters="sRGB">
<feFlood flood-opacity="0" result="BackgroundImageFix"/>
<feBlend mode="normal" in="SourceGraphic" in2="BackgroundImageFix" result="shape"/>
<feColorMatrix in="SourceAlpha" type="matrix" values="0 0 0 0 0 0 0 0 0 0 0 0 0 0 0 0 0 0 127 0" result="hardAlpha"/>
<feMorphology radius="3" operator="dilate" in="SourceAlpha" result="effect1_innerShadow_46_1908"/>
<feOffset dx="-11" dy="16"/>
<feGaussianBlur stdDeviation="11.5"/>
<feComposite in2="hardAlpha" operator="arithmetic" k2="-1" k3="1"/>
<feColorMatrix type="matrix" values="0 0 0 0 0 0 0 0 0 0 0 0 0 0 0 0 0 0 0.25 0"/>
<feBlend mode="normal" in2="shape" result="effect1_innerShadow_46_1908"/>
</filter>
<linearGradient id="paint0_linear_46_1908" x1="90.8947" y1="12.5484" x2="73.345" y2="63.7515" gradientUnits="userSpaceOnUse">
<stop stop-color="#30CBAF"/>
<stop offset="1" stop-color="#306ECB"/>
</linearGradient>
<linearGradient id="paint1_linear_46_1908" x1="88.1353" y1="7.81986" x2="72.079" y2="58.7904" gradientUnits="userSpaceOnUse">
<stop stop-color="#30CBAF"/>
<stop offset="1" stop-color="#306ECB"/>
</linearGradient>
<linearGradient id="paint2_linear_46_1908" x1="83.3987" y1="13.2261" x2="71.4645" y2="51.1109" gradientUnits="userSpaceOnUse">
<stop stop-color="#30CBAF"/>
<stop offset="1" stop-color="#306ECB"/>
</linearGradient>
<linearGradient id="paint3_linear_46_1908" x1="80.2754" y1="19.1087" x2="70.0816" y2="44.1768" gradientUnits="userSpaceOnUse">
<stop stop-color="#30CBAF"/>
<stop offset="1" stop-color="#306ECB"/>
</linearGradient>
<linearGradient id="paint4_linear_46_1908" x1="80.2754" y1="19.1087" x2="70.0816" y2="44.1768" gradientUnits="userSpaceOnUse">
<stop stop-color="#30CBAF"/>
<stop offset="1" stop-color="#306ECB"/>
</linearGradient>
<linearGradient id="paint5_linear_46_1908" x1="80.2754" y1="19.1087" x2="70.0816" y2="44.1768" gradientUnits="userSpaceOnUse">
<stop stop-color="#30CBAF"/>
<stop offset="1" stop-color="#306ECB"/>
</linearGradient>
</defs>
</svg>
