<svg width="268" height="465" viewBox="0 0 268 465" fill="none" xmlns="http://www.w3.org/2000/svg">
<path d="M217.165 126.226C218.515 156.926 209.425 189.239 193.61 216.65C177.792 244.066 155.298 266.491 129.928 277.507C104.585 288.512 81.2298 286.036 63.884 273.308C46.5133 260.56 34.9915 237.399 33.6417 206.698C32.2919 175.997 41.382 143.685 57.197 116.274C73.015 88.858 95.5087 66.4329 120.879 55.4161C146.222 44.4113 169.577 46.8872 186.923 59.616C204.293 72.3632 215.815 95.5242 217.165 126.226Z" fill="#1B1B1B" stroke="url(#paint0_linear_46_1898)" stroke-width="2"/>
<path d="M234.434 137.872C235.319 200.209 194.787 267.417 143.932 288.005C93.0756 308.594 51.1102 274.784 50.2252 212.447C49.3402 150.109 89.8715 82.902 140.727 62.3136C191.583 41.7251 233.549 75.5346 234.434 137.872Z" fill="#1F1F1F" stroke="url(#paint1_linear_46_1898)" stroke-width="2"/>
<g filter="url(#filter0_i_46_1898)">
<path d="M212.963 150.694C214.963 196.166 187.196 245.781 150.954 261.519C114.712 277.256 83.7044 253.163 81.7051 207.691C79.7059 162.218 107.473 112.603 143.715 96.8654C179.957 81.1278 210.964 105.221 212.963 150.694Z" stroke="url(#paint2_linear_46_1898)" stroke-width="2"/>
</g>
<path fill-rule="evenodd" clip-rule="evenodd" d="M119.202 167.244C120.743 155.117 132.461 141.717 145.376 137.312L149.533 135.894C162.447 131.49 171.667 137.75 170.125 149.876L169.877 151.828L160.524 155.018L160.772 153.066C161.697 145.79 156.165 142.034 148.416 144.677L144.259 146.095C136.511 148.737 129.48 156.778 128.555 164.054L128.447 164.908C127.812 169.898 130.235 173.436 134.705 174.046L154.347 176.729C161.796 177.747 165.834 183.643 164.777 191.96L164.668 192.814C163.127 204.94 151.409 218.341 138.494 222.746L134.337 224.163C121.423 228.568 112.204 222.308 113.745 210.182L113.993 208.23L123.346 205.04L123.098 206.992C122.173 214.267 127.705 218.023 135.454 215.381L139.611 213.963C147.359 211.32 154.39 203.28 155.315 196.004L155.424 195.15C156.058 190.16 153.635 186.622 149.166 186.011L129.523 183.328C122.074 182.311 118.036 176.415 119.093 168.098L119.202 167.244Z" fill="url(#paint3_linear_46_1898)"/>
<path fill-rule="evenodd" clip-rule="evenodd" d="M154.471 119.727L152.04 138.85L142.704 142.035L145.135 122.911L154.471 119.727Z" fill="url(#paint4_linear_46_1898)"/>
<path fill-rule="evenodd" clip-rule="evenodd" d="M142.116 216.937L139.584 236.857L130.248 240.041L132.78 220.121L142.116 216.937Z" fill="url(#paint5_linear_46_1898)"/>
<defs>
<filter id="filter0_i_46_1898" x="69.8872" y="91.1039" width="143.894" height="192.176" filterUnits="userSpaceOnUse" color-interpolation-filters="sRGB">
<feFlood flood-opacity="0" result="BackgroundImageFix"/>
<feBlend mode="normal" in="SourceGraphic" in2="BackgroundImageFix" result="shape"/>
<feColorMatrix in="SourceAlpha" type="matrix" values="0 0 0 0 0 0 0 0 0 0 0 0 0 0 0 0 0 0 127 0" result="hardAlpha"/>
<feMorphology radius="3" operator="dilate" in="SourceAlpha" result="effect1_innerShadow_46_1898"/>
<feOffset dx="-11" dy="16"/>
<feGaussianBlur stdDeviation="11.5"/>
<feComposite in2="hardAlpha" operator="arithmetic" k2="-1" k3="1"/>
<feColorMatrix type="matrix" values="0 0 0 0 0 0 0 0 0 0 0 0 0 0 0 0 0 0 0.25 0"/>
<feBlend mode="normal" in2="shape" result="effect1_innerShadow_46_1898"/>
</filter>
<linearGradient id="paint0_linear_46_1898" x1="120.48" y1="54.499" x2="203.853" y2="246.497" gradientUnits="userSpaceOnUse">
<stop stop-color="#30CBAF"/>
<stop offset="1" stop-color="#306ECB"/>
</linearGradient>
<linearGradient id="paint1_linear_46_1898" x1="140.715" y1="61.4313" x2="220.286" y2="257.981" gradientUnits="userSpaceOnUse">
<stop stop-color="#30CBAF"/>
<stop offset="1" stop-color="#306ECB"/>
</linearGradient>
<linearGradient id="paint2_linear_46_1898" x1="143.675" y1="95.9735" x2="205.644" y2="238.68" gradientUnits="userSpaceOnUse">
<stop stop-color="#30CBAF"/>
<stop offset="1" stop-color="#306ECB"/>
</linearGradient>
<linearGradient id="paint3_linear_46_1898" x1="149.378" y1="121.464" x2="183.612" y2="221.841" gradientUnits="userSpaceOnUse">
<stop stop-color="#30CBAF"/>
<stop offset="1" stop-color="#306ECB"/>
</linearGradient>
<linearGradient id="paint4_linear_46_1898" x1="149.378" y1="121.464" x2="183.612" y2="221.841" gradientUnits="userSpaceOnUse">
<stop stop-color="#30CBAF"/>
<stop offset="1" stop-color="#306ECB"/>
</linearGradient>
<linearGradient id="paint5_linear_46_1898" x1="149.378" y1="121.464" x2="183.612" y2="221.841" gradientUnits="userSpaceOnUse">
<stop stop-color="#30CBAF"/>
<stop offset="1" stop-color="#306ECB"/>
</linearGradient>
</defs>
</svg>
