<svg width="239" height="386" viewBox="0 0 239 386" fill="none" xmlns="http://www.w3.org/2000/svg">
<g filter="url(#filter0_f_39_330)">
<path d="M129.382 162.757L116.076 158.539C115.398 158.328 114.666 158.412 114.054 158.773L102.016 165.916C100.303 166.942 99.7264 169.12 100.785 170.736C101.534 171.933 102.952 172.514 104.329 172.355C104.846 172.295 105.348 172.113 105.84 171.849L112.409 167.945L113.386 176.401C113.607 178.32 115.422 179.684 117.444 179.45C119.466 179.217 120.922 177.476 120.7 175.556L119.724 167.1L127.01 169.405C128.911 170.013 131.021 169.025 131.679 167.169C132.336 165.313 131.326 163.36 129.382 162.757Z" fill="url(#paint0_diamond_39_330)"/>
<path d="M128.986 186.521L118.949 192.481L107.817 188.965C105.915 188.357 103.806 189.345 103.148 191.201C102.486 193.016 103.501 195.01 105.445 195.613L115.851 198.882C115.86 198.964 115.847 199.038 115.834 199.112C115.82 199.186 115.807 199.26 115.817 199.342L116.798 207.838C117.019 209.758 118.834 211.121 120.856 210.888C122.878 210.654 124.334 208.913 124.112 206.994L123.131 198.497C123.127 198.456 123.111 198.417 123.096 198.377C123.08 198.337 123.065 198.298 123.06 198.257L132.854 192.449C134.566 191.423 135.143 189.245 134.085 187.629C132.983 186.018 130.699 185.495 128.986 186.521Z" fill="url(#paint1_diamond_39_330)"/>
<path d="M143.757 167.554L155.668 171.395C156.571 171.663 157.181 172.42 157.28 173.278L158.709 185.655C158.931 187.575 157.475 189.316 155.453 189.55C153.431 189.783 151.616 188.42 151.395 186.5L150.866 181.925L145.192 185.27C144.699 185.534 144.197 185.716 143.681 185.776C142.304 185.935 140.885 185.354 140.137 184.157C139.078 182.541 139.655 180.363 141.368 179.337L146.999 175.997L141.338 174.167C139.436 173.558 138.421 171.564 139.084 169.749C139.746 167.934 141.856 166.946 143.757 167.554Z" fill="url(#paint2_diamond_39_330)"/>
<path d="M94.1239 184.792L87.8795 182.823L92.975 179.751C94.6878 178.725 95.2218 176.552 94.1631 174.936C93.0998 173.279 90.8205 172.797 89.1124 173.863L78.3904 180.317C77.5723 180.784 77.1504 181.661 77.2494 182.518L78.6738 194.855C78.8954 196.775 80.7097 198.138 82.732 197.905C84.7543 197.671 86.2148 195.971 85.9931 194.051L85.4602 189.435L91.7475 191.4C92.2922 191.585 92.8226 191.648 93.339 191.589C94.7158 191.43 95.9648 190.54 96.421 189.204C97.0834 187.389 96.0684 185.396 94.1239 184.792Z" fill="url(#paint3_diamond_39_330)"/>
<path d="M153.692 206.393C153.47 204.473 154.926 202.732 156.948 202.499C158.97 202.265 160.785 203.629 161.049 205.544L162.474 217.88C162.577 218.779 162.112 219.66 161.337 220.122L150.615 226.576C150.123 226.84 149.577 227.027 149.061 227.086C147.684 227.245 146.309 226.659 145.522 225.508C144.463 223.892 144.997 221.719 146.71 220.693L151.805 217.621L145.561 215.652C143.616 215.049 142.606 213.096 143.264 211.24C143.922 209.384 146.031 208.395 147.932 209.003L154.22 210.968L153.692 206.393Z" fill="url(#paint4_diamond_39_330)"/>
<path d="M99.5432 216.246C98.4846 214.63 96.2006 214.107 94.4878 215.133L88.8183 218.519L88.29 213.944C88.0683 212.024 86.2541 210.661 84.2318 210.894C82.2095 211.128 80.7537 212.869 80.9754 214.789L82.4044 227.166C82.5035 228.024 83.1141 228.781 83.9741 229.054L95.8846 232.895C96.4292 233.08 96.955 233.102 97.5143 233.038C98.8912 232.879 100.097 231.995 100.601 230.695C101.263 228.88 100.248 226.886 98.347 226.277L92.6856 224.447L98.3168 221.107C100.073 220.076 100.607 217.903 99.5432 216.246Z" fill="url(#paint5_diamond_39_330)"/>
<path d="M127.209 231.927L133.778 228.023C135.491 226.997 137.77 227.479 138.834 229.136C139.892 230.753 139.315 232.93 137.602 233.956L125.603 241.054C124.991 241.414 124.216 241.504 123.538 241.292L110.237 237.116C108.292 236.512 107.277 234.518 107.94 232.703C108.598 230.847 110.707 229.859 112.609 230.467L119.894 232.772L118.918 224.316C118.697 222.396 120.152 220.655 122.175 220.422C124.197 220.188 126.011 221.552 126.233 223.472L127.209 231.927Z" fill="url(#paint6_diamond_39_330)"/>
</g>
<g clip-path="url(#clip0_39_330)">
<rect x="187.164" y="12.264" width="343.562" height="176.192" rx="31" transform="rotate(83.4138 187.164 12.264)" stroke="url(#paint7_linear_39_330)" stroke-opacity="0.9" stroke-width="2"/>
<rect x="193.827" y="53.8349" width="11.2292" height="1.02018" rx="0.510091" transform="rotate(83.4138 193.827 53.8349)" stroke="url(#paint8_linear_39_330)" stroke-opacity="0.9" stroke-width="1.02018"/>
<rect x="196.341" y="75.6102" width="24.1233" height="1.02018" rx="0.510091" transform="rotate(83.4138 196.341 75.6102)" stroke="url(#paint9_linear_39_330)" stroke-opacity="0.9" stroke-width="1.02018"/>
<rect x="199.594" y="103.79" width="24.1233" height="1.02018" rx="0.510091" transform="rotate(83.4138 199.594 103.79)" stroke="url(#paint10_linear_39_330)" stroke-opacity="0.9" stroke-width="1.02018"/>
<rect x="18.7869" y="103.25" width="37.0175" height="1.02018" rx="0.510091" transform="rotate(83.4138 18.7869 103.25)" stroke="url(#paint11_linear_39_330)" stroke-opacity="0.9" stroke-width="1.02018"/>
<path d="M158.688 23.3398C170.428 21.9843 181.043 30.4021 182.398 42.1413L214.708 321.975C216.292 335.691 206.456 348.094 192.74 349.677L83.5965 362.279C69.8805 363.863 57.4777 354.027 55.8941 340.311L23.5893 60.5209C22.2384 48.821 30.7312 38.2818 42.4508 37.1144L55.4392 35.8206C58.2027 35.5453 60.7602 37.3081 61.4864 39.9887C62.48 43.6569 66.0066 46.0471 69.7819 45.6112L133.081 38.3027C137.009 37.8492 140.005 34.5759 140.11 30.6233C140.189 27.666 142.431 25.2168 145.37 24.8775L158.688 23.3398Z" stroke="url(#paint12_linear_39_330)" stroke-opacity="0.9" stroke-width="2"/>
</g>
<path fill-rule="evenodd" clip-rule="evenodd" d="M129.382 162.757L116.076 158.539C115.398 158.328 114.667 158.412 114.054 158.773L102.017 165.916C100.304 166.942 99.7269 169.119 100.786 170.736C101.534 171.932 102.953 172.514 104.33 172.355C104.846 172.295 105.348 172.113 105.841 171.849L112.41 167.945L113.386 176.4C113.608 178.32 115.422 179.684 117.444 179.45C119.467 179.217 120.923 177.476 120.701 175.556L119.725 167.1L127.01 169.405C128.912 170.013 131.021 169.025 131.679 167.169C132.337 165.313 131.327 163.36 129.382 162.757ZM128.987 186.521L118.949 192.481L107.817 188.965C105.916 188.356 103.806 189.345 103.149 191.201C102.486 193.016 103.501 195.01 105.446 195.613L115.851 198.882C115.861 198.964 115.847 199.038 115.834 199.112L115.834 199.112C115.821 199.186 115.808 199.26 115.817 199.341L116.798 207.838C117.02 209.758 118.834 211.121 120.856 210.888C122.879 210.654 124.334 208.913 124.113 206.993L123.132 198.497C123.127 198.456 123.112 198.416 123.096 198.377L123.096 198.377C123.081 198.337 123.065 198.298 123.06 198.257L132.854 192.449C134.567 191.423 135.144 189.245 134.085 187.629C132.984 186.018 130.699 185.495 128.987 186.521ZM143.758 167.554L155.668 171.394C156.571 171.663 157.182 172.42 157.281 173.278L158.71 185.655C158.931 187.575 157.476 189.316 155.453 189.549C153.431 189.783 151.617 188.42 151.395 186.5L150.867 181.925L145.193 185.27C144.7 185.534 144.198 185.716 143.681 185.776C142.305 185.935 140.886 185.354 140.137 184.157C139.079 182.541 139.656 180.363 141.368 179.337L147 175.997L141.338 174.167C139.437 173.558 138.422 171.564 139.084 169.749C139.747 167.934 141.856 166.946 143.758 167.554ZM94.1243 184.792L87.88 182.822L92.9754 179.751C94.6883 178.725 95.2222 176.552 94.1636 174.936C93.1002 173.279 90.8209 172.797 89.1128 173.863L78.3909 180.317C77.5728 180.784 77.1508 181.66 77.2499 182.518L78.6742 194.855C78.8959 196.775 80.7101 198.138 82.7324 197.904C84.7547 197.671 86.2153 195.971 85.9936 194.051L85.4606 189.435L91.748 191.4C92.2926 191.585 92.8231 191.648 93.3394 191.588C94.7163 191.429 95.9653 190.54 96.4214 189.204C97.0839 187.389 96.0689 185.395 94.1243 184.792ZM153.692 206.393C153.47 204.473 154.926 202.732 156.949 202.499C158.971 202.265 160.785 203.629 161.05 205.543L162.474 217.88C162.578 218.778 162.113 219.66 161.338 220.122L150.616 226.576C150.123 226.839 149.578 227.027 149.062 227.086C147.685 227.245 146.309 226.659 145.522 225.508C144.463 223.892 144.997 221.719 146.71 220.693L151.806 217.621L145.561 215.652C143.617 215.048 142.607 213.095 143.264 211.24C143.922 209.384 146.032 208.395 147.933 209.003L154.22 210.968L153.692 206.393ZM99.5437 216.246C98.4851 214.63 96.2011 214.107 94.4882 215.133L88.8187 218.519L88.2905 213.944C88.0688 212.024 86.2545 210.661 84.2323 210.894C82.21 211.128 80.7542 212.869 80.9758 214.789L82.4049 227.166C82.5039 228.024 83.1146 228.781 83.9746 229.054L95.885 232.895C96.4297 233.08 96.9554 233.102 97.5148 233.038C98.8917 232.879 100.098 231.994 100.601 230.694C101.264 228.879 100.249 226.886 98.3474 226.277L92.686 224.447L98.3172 221.107C100.073 220.076 100.607 217.903 99.5437 216.246ZM127.21 231.927L133.779 228.023C135.491 226.997 137.771 227.479 138.834 229.136C139.893 230.753 139.316 232.93 137.603 233.956L125.604 241.054C124.991 241.414 124.217 241.503 123.538 241.292L110.237 237.115C108.293 236.512 107.278 234.518 107.94 232.703C108.598 230.847 110.708 229.859 112.609 230.467L119.895 232.772L118.919 224.316C118.697 222.396 120.153 220.655 122.175 220.422C124.197 220.188 126.012 221.552 126.233 223.472L127.21 231.927Z" fill="url(#paint13_diamond_39_330)"/>
<defs>
<filter id="filter0_f_39_330" x="0.683228" y="0.936279" width="237.339" height="384.16" filterUnits="userSpaceOnUse" color-interpolation-filters="sRGB">
<feFlood flood-opacity="0" result="BackgroundImageFix"/>
<feBlend mode="normal" in="SourceGraphic" in2="BackgroundImageFix" result="shape"/>
<feGaussianBlur stdDeviation="6.5" result="effect1_foregroundBlur_39_330"/>
</filter>
<radialGradient id="paint0_diamond_39_330" cx="0" cy="0" r="1" gradientUnits="userSpaceOnUse" gradientTransform="translate(119.829 199.913) rotate(83.4138) scale(41.7472 40.3029)">
<stop stop-color="#30CBAF"/>
<stop offset="1" stop-color="#1DADCC"/>
</radialGradient>
<radialGradient id="paint1_diamond_39_330" cx="0" cy="0" r="1" gradientUnits="userSpaceOnUse" gradientTransform="translate(119.829 199.913) rotate(83.4138) scale(41.7472 40.3029)">
<stop stop-color="#30CBAF"/>
<stop offset="1" stop-color="#1DADCC"/>
</radialGradient>
<radialGradient id="paint2_diamond_39_330" cx="0" cy="0" r="1" gradientUnits="userSpaceOnUse" gradientTransform="translate(119.829 199.913) rotate(83.4138) scale(41.7472 40.3029)">
<stop stop-color="#30CBAF"/>
<stop offset="1" stop-color="#1DADCC"/>
</radialGradient>
<radialGradient id="paint3_diamond_39_330" cx="0" cy="0" r="1" gradientUnits="userSpaceOnUse" gradientTransform="translate(119.829 199.913) rotate(83.4138) scale(41.7472 40.3029)">
<stop stop-color="#30CBAF"/>
<stop offset="1" stop-color="#1DADCC"/>
</radialGradient>
<radialGradient id="paint4_diamond_39_330" cx="0" cy="0" r="1" gradientUnits="userSpaceOnUse" gradientTransform="translate(119.829 199.913) rotate(83.4138) scale(41.7472 40.3029)">
<stop stop-color="#30CBAF"/>
<stop offset="1" stop-color="#1DADCC"/>
</radialGradient>
<radialGradient id="paint5_diamond_39_330" cx="0" cy="0" r="1" gradientUnits="userSpaceOnUse" gradientTransform="translate(119.829 199.913) rotate(83.4138) scale(41.7472 40.3029)">
<stop stop-color="#30CBAF"/>
<stop offset="1" stop-color="#1DADCC"/>
</radialGradient>
<radialGradient id="paint6_diamond_39_330" cx="0" cy="0" r="1" gradientUnits="userSpaceOnUse" gradientTransform="translate(119.829 199.913) rotate(83.4138) scale(41.7472 40.3029)">
<stop stop-color="#30CBAF"/>
<stop offset="1" stop-color="#1DADCC"/>
</radialGradient>
<linearGradient id="paint7_linear_39_330" x1="360.824" y1="11.1559" x2="360.824" y2="189.348" gradientUnits="userSpaceOnUse">
<stop stop-color="#1DADCC"/>
<stop offset="1" stop-color="#30CBAF"/>
</linearGradient>
<linearGradient id="paint8_linear_39_330" x1="200.399" y1="53.2697" x2="200.399" y2="55.31" gradientUnits="userSpaceOnUse">
<stop stop-color="#1DADCC"/>
<stop offset="1" stop-color="#30CBAF"/>
</linearGradient>
<linearGradient id="paint9_linear_39_330" x1="209.361" y1="75.0449" x2="209.361" y2="77.0853" gradientUnits="userSpaceOnUse">
<stop stop-color="#1DADCC"/>
<stop offset="1" stop-color="#30CBAF"/>
</linearGradient>
<linearGradient id="paint10_linear_39_330" x1="212.614" y1="103.225" x2="212.614" y2="105.265" gradientUnits="userSpaceOnUse">
<stop stop-color="#1DADCC"/>
<stop offset="1" stop-color="#30CBAF"/>
</linearGradient>
<linearGradient id="paint11_linear_39_330" x1="38.2539" y1="102.684" x2="38.2539" y2="104.725" gradientUnits="userSpaceOnUse">
<stop stop-color="#1DADCC"/>
<stop offset="1" stop-color="#30CBAF"/>
</linearGradient>
<linearGradient id="paint12_linear_39_330" x1="199.753" y1="183.733" x2="38.9525" y2="202.299" gradientUnits="userSpaceOnUse">
<stop stop-color="#1DADCC"/>
<stop offset="1" stop-color="#30CBAF"/>
</linearGradient>
<radialGradient id="paint13_diamond_39_330" cx="0" cy="0" r="1" gradientUnits="userSpaceOnUse" gradientTransform="translate(119.829 199.913) rotate(83.4138) scale(41.7472 40.303)">
<stop stop-color="#30CBAF"/>
<stop offset="1" stop-color="#1DADCC"/>
</radialGradient>
<clipPath id="clip0_39_330">
<rect width="345.562" height="181.592" fill="white" transform="translate(189.394 10.9999) rotate(83.4138)"/>
</clipPath>
</defs>
</svg>
