<svg width="982" height="1024" viewBox="0 0 982 1024" fill="none" xmlns="http://www.w3.org/2000/svg">
<path d="M513.877 1409.79C505.047 1399.81 -10.4023 783.157 20.8253 687.355C52.0528 591.552 149.29 574.918 201.28 490.437C253.269 405.957 293.535 345.102 293.391 157.687C293.313 56.0463 244.183 37.5377 250.553 -20.3386C256.923 -78.2148 340.491 -201.808 398.811 -380.727C457.13 -559.645 491.167 -987.93 395.13 -1070.36M65.3209 1228.48C61.6365 1218.08 403.775 904.791 444.215 780.723C484.656 656.655 551.69 615.916 603.334 501.398C654.978 386.88 694.02 303.799 733.11 73.8917C754.31 -50.7945 726.068 -63.2306 742.332 -135.57C758.596 -207.91 855.494 -283.386 911.077 -398.804C945.213 -469.685 946.351 -512.3 980.391 -611.45C1014.43 -710.599 -32.5446 -123.782 -1.49148 -287.157M502.934 1405.36C498.537 1400.24 379.009 1239.76 257.008 1073.43C135.006 907.105 18.5382 732.342 35.0308 682.816C66.7562 586.557 162.574 568.302 214.249 480.275C265.487 394.814 304.083 335.139 304.339 150.531C304.659 49.605 259.091 29.707 266.662 -29.5728C273.709 -87.7662 355.266 -209.384 412.993 -386.357C470.721 -563.33 478.392 -966.857 385.454 -1051.26M491.996 1400.94C487.617 1395.68 379.631 1231.39 261.69 1066.11C143.75 900.842 31.8694 729.43 49.2407 678.279C81.4642 581.563 175.863 561.687 227.223 470.113C277.71 383.672 314.635 325.178 315.291 143.377C316.01 43.1655 274.004 21.878 282.774 -38.8052C290.499 -97.3157 370.045 -216.959 427.181 -391.986C484.316 -567.013 465.621 -945.782 375.783 -1032.16M481.049 1396.52C476.688 1391.14 380.243 1223.02 266.364 1058.8C152.485 894.588 45.1917 726.527 63.4418 673.751C96.1633 576.579 189.143 555.083 240.188 459.962C289.925 372.54 325.178 315.227 326.234 136.232C327.352 36.7353 288.907 14.0585 298.878 -48.0281C307.28 -106.856 384.816 -224.524 441.359 -397.606C497.902 -570.687 452.841 -924.696 366.103 -1013.05M470.112 1392.1C465.768 1386.58 380.865 1214.64 271.047 1051.48C161.228 888.325 58.5232 723.614 77.6521 669.214C110.871 571.586 202.431 548.468 253.162 449.8C302.148 361.398 335.73 305.266 337.187 129.078C338.703 30.2958 303.82 6.22952 314.991 -57.2604C324.07 -116.406 399.596 -232.098 455.547 -403.235C511.498 -574.371 440.07 -903.621 356.432 -993.945M459.174 1387.68C454.848 1382.03 381.487 1206.27 275.729 1044.17C169.972 882.062 71.8544 720.702 91.8621 664.677C125.579 566.592 215.72 541.854 266.136 439.639C314.371 350.256 346.282 295.305 348.139 121.924C350.054 23.8563 318.733 -1.59939 331.104 -66.493C340.86 -125.955 414.375 -239.673 469.734 -408.864C525.093 -578.054 427.299 -882.546 346.761 -974.844M448.231 1383.25C443.924 1377.47 382.104 1197.89 280.408 1036.84C178.711 875.798 85.1812 717.788 106.068 660.138C140.283 561.597 229.004 535.238 279.106 429.476C326.589 339.112 356.83 285.343 359.087 114.768C361.4 17.4152 333.641 -9.43011 347.213 -75.727C357.646 -135.507 429.151 -247.249 483.917 -414.494C538.684 -581.739 414.524 -861.473 337.085 -955.745M437.293 1378.83C433.003 1372.91 382.725 1189.51 285.09 1029.52C187.455 869.535 98.5119 714.876 120.277 655.601C154.99 556.604 242.292 528.624 292.079 419.315C338.812 327.971 367.381 275.382 370.038 107.614C372.75 10.9759 348.553 -17.2587 363.325 -84.9591C374.435 -145.056 443.93 -254.823 498.104 -420.123C552.278 -585.422 401.752 -840.397 327.413 -936.644M426.352 1374.42C422.079 1368.37 383.343 1181.15 289.769 1022.22C196.195 863.283 111.839 711.975 134.483 651.075C169.695 551.621 255.577 522.021 305.049 409.165C351.031 316.84 377.93 265.432 380.987 100.471C384.098 4.54732 363.461 -25.0769 379.434 -94.1808C391.222 -154.595 458.706 -262.387 512.288 -425.741C565.87 -589.095 388.977 -819.311 317.738 -917.532M415.409 1369.99C411.155 1363.81 383.96 1172.77 294.447 1014.9C204.934 857.019 125.166 709.061 148.689 646.536C184.398 546.626 268.861 515.405 318.019 399.002L319.571 395.8C363.827 304.526 388.517 253.605 391.935 93.3151C395.444 -1.89395 378.369 -32.9076 395.542 -103.415C408.007 -164.146 473.481 -269.964 526.471 -431.372C579.461 -592.78 376.202 -798.238 308.063 -898.433M404.472 1365.57C400.235 1359.26 384.582 1164.4 299.13 1007.58C213.678 850.755 138.498 706.148 162.9 641.999C199.107 541.632 282.15 508.791 330.993 388.841L331.769 387.197C375.747 293.979 399.053 244.579 402.888 86.1608C406.796 -8.33363 393.283 -40.7367 411.656 -112.647C424.798 -173.696 488.261 -277.538 540.659 -437.001C593.056 -596.463 363.432 -777.163 298.392 -879.332M393.534 1361.14C389.315 1354.7 385.203 1156.02 303.812 1000.26C222.421 844.493 151.829 703.236 177.109 637.462C213.814 536.638 295.438 502.177 343.967 378.68C387.696 283.412 409.582 235.548 413.84 79.0068C418.146 -14.7729 408.195 -48.5653 427.768 -121.88C441.587 -183.245 503.04 -285.112 554.845 -442.629C606.651 -600.146 350.66 -756.087 288.72 -860.231M382.59 1356.72C378.389 1350.14 385.819 1147.64 308.49 992.936C231.16 838.228 165.155 700.322 191.314 632.924C228.517 531.644 308.722 495.561 356.936 368.517C399.914 272.269 420.128 225.585 424.787 71.8512C429.492 -21.2139 423.102 -56.3957 443.876 -131.113C458.372 -192.796 517.814 -292.689 569.028 -448.26C620.241 -603.831 337.884 -735.013 279.044 -841.132M371.649 1352.31C367.466 1345.6 386.437 1139.28 313.169 985.627C239.9 831.977 178.482 697.421 205.52 628.398C243.221 526.661 322.007 488.958 369.906 358.367C412.133 261.138 430.677 215.635 435.735 64.7079C440.839 -27.6426 438.011 -64.2139 459.985 -140.335C475.159 -202.335 532.59 -300.252 583.211 -453.878C633.832 -607.504 325.109 -713.927 269.369 -822.02M360.711 1347.88C356.546 1341.04 387.059 1130.9 317.851 978.308C248.644 825.713 191.814 694.509 219.731 623.86C257.93 521.667 335.295 482.343 382.88 348.205C424.356 249.996 441.229 205.674 446.688 57.5536C452.19 -34.0822 452.923 -72.043 476.098 -149.568C491.949 -211.885 547.37 -307.827 597.399 -459.507C647.428 -611.187 312.339 -692.852 259.698 -802.919M349.769 1343.46C345.621 1336.49 387.676 1122.52 322.529 970.987C257.383 819.449 205.14 691.595 233.936 619.322C272.633 516.672 348.579 475.727 395.849 338.042C436.574 238.853 451.776 195.712 457.635 50.3977C463.536 -40.5233 467.831 -79.8735 492.206 -158.802C508.734 -221.436 562.145 -315.403 611.582 -465.138C661.018 -614.872 299.563 -671.778 250.022 -783.82M338.83 1339.03C334.7 1331.93 388.297 1114.15 327.212 963.668C266.126 813.186 218.471 688.683 248.145 614.785C287.34 511.679 361.867 469.114 408.823 327.882C448.797 227.711 462.328 185.751 468.587 43.2439C474.886 -46.9625 482.743 -87.7021 508.319 -168.034C525.524 -230.985 576.924 -322.977 625.768 -470.766C674.613 -618.556 286.792 -650.703 240.351 -764.719M327.892 1334.61C323.78 1327.38 388.919 1105.77 331.894 956.348C274.87 806.924 231.802 685.77 262.355 610.248C302.048 506.685 375.156 462.499 421.797 317.72C461.02 216.569 472.88 175.79 479.539 36.0897C486.237 -53.4021 497.656 -95.5312 524.431 -177.266C542.314 -240.535 591.703 -330.552 639.956 -476.395C688.208 -622.239 274.021 -629.628 230.679 -745.618M316.946 1330.19C312.852 1322.83 389.532 1097.41 336.569 949.038C283.605 800.67 245.125 682.867 276.557 605.72C316.748 501.701 388.436 455.894 434.762 307.568C473.234 205.437 483.424 165.839 490.483 28.9447C497.477 -58.5508 512.129 -102.085 539.332 -182.913L540.536 -186.489C559.096 -250.075 606.475 -338.117 654.135 -482.015C701.795 -625.913 261.241 -608.543 221 -726.508M306.009 1325.77C301.932 1318.27 390.154 1089.03 341.251 941.718C292.349 794.407 258.457 679.955 290.767 601.183C331.456 496.707 401.725 449.28 447.737 297.407C485.458 194.295 493.976 155.878 501.436 21.7904C508.931 -66.272 527.473 -111.18 556.649 -195.722C575.886 -259.625 621.254 -345.692 668.323 -487.644C715.391 -629.597 248.471 -587.468 211.329 -707.407M295.065 1321.35C291.007 1313.72 390.77 1080.65 345.929 934.398C301.088 788.143 271.783 677.041 304.972 596.644C346.159 491.712 415.008 442.664 460.705 287.244C497.675 183.152 504.523 145.915 512.383 14.6349C520.277 -72.7128 542.38 -119.01 572.757 -204.956C592.671 -269.176 636.029 -353.268 682.505 -493.274C728.981 -633.281 235.695 -566.394 201.653 -688.308M284.128 1316.92C280.087 1309.16 391.392 1072.28 350.611 927.078C309.831 781.88 285.114 674.129 319.182 592.107C360.867 486.719 428.297 436.05 473.679 277.083C509.898 172.01 515.075 135.954 523.335 7.48059C531.627 -79.1525 557.292 -126.839 588.869 -214.188C609.461 -278.725 650.808 -360.842 696.692 -498.903C742.576 -636.965 222.924 -545.319 191.981 -669.207M273.185 1312.5C269.162 1304.6 392.009 1063.9 355.29 919.757C318.57 775.615 298.441 671.215 333.388 587.568C375.571 481.723 441.581 429.434 486.649 266.92C522.117 160.866 525.623 125.992 534.283 0.324829C542.974 -85.5936 572.201 -134.67 604.978 -223.422C626.246 -288.277 665.584 -368.418 710.875 -504.534C756.166 -640.65 210.148 -524.245 182.306 -650.108M262.248 1308.09C258.243 1300.06 392.631 1055.54 359.973 912.45C327.315 769.365 311.773 668.315 347.599 583.044C390.279 476.742 454.871 422.833 499.624 256.772C534.341 149.737 536.176 116.043 545.236 -6.81689C554.326 -92.0206 587.114 -142.486 621.092 -232.642C643.037 -297.814 680.364 -375.98 725.063 -510.15C769.763 -644.321 197.378 -503.158 172.635 -630.994M251.305 1303.66C247.318 1295.5 393.248 1047.16 364.651 905.13C336.054 763.101 325.099 665.402 361.804 578.505C404.982 471.747 468.154 416.217 512.593 246.609C546.559 138.594 546.723 106.081 556.183 -13.9724C565.671 -98.4615 602.021 -150.317 637.199 -241.876C659.822 -307.365 695.138 -383.556 739.246 -515.781C783.353 -648.005 184.602 -482.084 162.959 -611.895M240.363 1299.24C236.393 1290.95 393.865 1038.78 369.329 897.808C344.793 756.836 338.426 662.487 376.009 573.966C419.686 466.752 481.438 409.601 525.562 236.446C558.777 127.45 557.27 96.1186 567.131 -21.1283C577.017 -104.903 616.929 -158.147 653.307 -251.11C676.607 -316.916 709.913 -391.132 753.428 -521.411C796.943 -651.69 171.826 -461.01 153.283 -592.796M229.43 1294.81C225.478 1286.39 394.491 1030.41 374.016 890.491C353.541 750.575 351.762 659.577 390.224 569.431C434.398 461.76 494.731 402.989 538.541 226.287C571.005 116.31 567.827 86.1594 578.088 -28.2809C588.373 -111.34 631.846 -165.974 669.425 -260.341C693.402 -326.464 724.698 -398.705 767.62 -527.039C810.543 -655.372 159.06 -439.933 143.617 -573.693M218.487 1290.39C214.553 1281.84 395.108 1022.03 378.694 883.17C362.28 744.31 365.088 656.663 404.429 564.892C449.102 456.765 508.015 396.373 551.51 216.124C583.223 105.166 578.374 76.1966 589.036 -35.4368C599.72 -117.782 646.754 -173.805 685.533 -269.575C710.188 -336.015 739.473 -406.282 781.803 -532.669C824.134 -659.057 146.285 -418.86 133.941 -554.594M207.54 1285.97C203.624 1277.29 395.721 1013.66 383.368 875.86C371.015 738.057 378.411 653.76 418.63 560.365C463.801 451.781 521.295 389.768 564.475 205.972C595.437 94.0338 588.918 66.2453 599.979 -42.5815C611.062 -124.212 661.658 -181.625 701.637 -278.798C726.969 -345.556 754.243 -413.847 795.982 -538.289C837.72 -662.731 133.505 -397.775 124.261 -535.484M196.608 1281.55C192.709 1272.74 396.348 1005.29 388.056 868.542C379.764 731.795 391.747 650.849 432.846 555.829C478.514 446.789 534.589 383.155 577.454 195.812C607.666 82.8936 599.475 56.286 610.937 -49.7341C622.418 -130.65 676.576 -189.452 717.755 -288.029C743.764 -355.104 769.028 -421.42 810.174 -543.916C851.32 -666.413 120.739 -376.698 114.595 -516.381M185.665 1277.13C181.784 1268.18 396.964 996.911 392.733 861.221C388.503 725.531 405.073 647.935 447.051 551.29C493.217 441.794 547.872 376.539 590.423 185.65C619.883 71.7503 610.022 46.3235 621.884 -56.8898C633.763 -137.091 691.483 -197.283 733.863 -297.263C760.549 -364.655 783.803 -428.996 824.356 -549.547C864.91 -670.098 107.963 -355.625 104.919 -497.282M174.722 1272.7C170.859 1263.62 397.58 988.534 397.411 853.9C397.241 719.267 418.399 645.022 461.255 546.752C507.92 436.799 561.156 369.924 603.392 175.487C632.101 60.6071 620.569 36.3612 632.831 -64.0453C645.109 -143.532 706.39 -205.113 749.971 -306.496C777.334 -374.206 798.577 -436.571 838.539 -555.177C878.5 -673.782 95.1868 -334.551 95.2423 -478.182M163.784 1268.28C159.939 1259.07 398.202 980.157 402.094 846.58C405.985 713.004 431.731 642.109 475.466 542.215C522.628 431.805 574.444 363.309 616.366 165.326C644.324 49.4651 631.121 26.4001 643.783 -71.1998C656.46 -149.971 721.303 -212.942 766.083 -315.729C794.124 -383.756 813.357 -444.146 852.726 -560.806C892.096 -677.466 82.4159 -313.476 85.5712 -459.082M152.842 1263.86C149.015 1254.52 398.82 971.792 406.772 839.272C414.624 708.43 444.293 640.929 487.984 541.529L489.672 537.688C537.332 426.822 587.729 356.706 629.336 155.175C656.544 38.3339 641.669 16.4501 654.732 -78.3432C667.807 -156.4 736.212 -220.76 782.193 -324.951C810.91 -393.294 828.132 -451.71 866.91 -566.424C905.687 -681.139 69.6413 -292.39 75.8963 -439.97M141.9 1259.44C138.091 1249.96 399.437 963.415 411.451 831.951C423.464 700.487 458.385 636.294 503.877 533.15C552.036 421.827 601.013 350.09 642.306 145.012C668.762 27.1905 652.217 6.48774 665.68 -85.4988C679.154 -162.841 751.12 -228.591 798.301 -334.185C827.696 -402.846 842.908 -459.286 881.093 -572.055C919.278 -684.824 56.8658 -271.316 66.2206 -420.871M130.962 1255.02C127.171 1245.41 400.059 955.039 416.133 824.632C432.208 694.224 471.716 633.382 518.087 528.613C566.744 416.834 614.302 343.476 655.28 134.851C680.985 16.0488 662.769 -3.47316 676.632 -92.653C690.505 -169.281 766.032 -236.42 814.414 -343.417C844.486 -412.395 857.687 -466.861 895.28 -577.684C932.873 -688.507 44.0949 -250.241 56.5494 -401.77M120.024 1250.59C116.251 1240.85 400.68 946.663 420.816 817.312C440.952 687.961 485.048 630.469 532.298 524.075C581.452 411.84 627.591 336.862 668.254 124.69C693.208 4.90673 673.321 -13.4342 687.584 -99.8073C701.856 -175.72 780.945 -244.249 830.527 -352.65C861.276 -421.945 872.467 -474.435 909.468 -583.313C946.468 -692.19 31.3241 -229.166 46.8784 -382.669M109.081 1246.17C105.326 1236.3 401.297 938.286 425.494 809.991C449.69 681.697 498.374 627.556 546.503 519.537C596.155 406.845 640.874 330.246 681.223 114.527C705.426 -6.2366 683.868 -23.3967 698.532 -106.963C713.201 -182.161 795.852 -252.079 846.635 -361.883C878.061 -431.496 887.241 -482.011 923.65 -588.943C960.058 -695.875 18.548 -208.092 37.202 -363.57M98.1396 1241.75C94.4017 1231.75 401.915 929.921 430.173 802.683C458.43 675.445 511.701 624.654 560.709 515.011C610.859 401.862 654.159 323.643 694.193 104.377C717.645 -17.3675 694.416 -33.3466 709.48 -114.106C724.548 -188.59 810.761 -259.897 862.744 -371.105C894.847 -441.035 902.017 -489.575 937.833 -594.561C973.65 -699.548 5.77326 -187.006 27.5271 -344.458M87.2019 1237.33C83.4819 1227.2 402.537 921.545 434.855 795.363C467.174 669.182 525.033 621.742 574.919 510.474C625.567 396.869 667.448 317.029 707.167 94.2157C729.869 -28.5093 704.969 -43.3073 720.433 -121.26C735.9 -195.029 825.674 -267.726 878.857 -380.337C911.638 -450.584 916.797 -497.149 952.021 -600.19C987.245 -703.231 -6.99745 -165.93 17.8561 -325.357M76.2589 1232.91C72.5566 1222.64 403.153 913.167 439.533 788.043C475.913 662.918 538.359 618.828 589.124 505.935C640.27 391.874 680.731 310.413 720.136 84.0531C742.086 -39.6524 715.516 -53.2696 731.38 -128.416C747.245 -201.47 840.581 -275.556 894.964 -389.571C928.423 -460.135 931.571 -504.725 966.203 -605.82C1000.84 -706.916 -19.7736 -144.856 8.17975 -306.257" stroke="url(#paint0_linear_141_657)"/>
<defs>
<linearGradient id="paint0_linear_141_657" x1="124.5" y1="543.5" x2="530" y2="539" gradientUnits="userSpaceOnUse">
<stop stop-color="#0167FF"/>
<stop offset="1" stop-color="#1DADCC"/>
</linearGradient>
</defs>
</svg>
