<svg width="310" height="355" viewBox="0 0 310 355" fill="none" xmlns="http://www.w3.org/2000/svg">
<g id="cube 4 (purple)">
<rect id="Rectangle 7" width="173.069" height="173.069" transform="matrix(0.866025 -0.5 0.866025 0.5 5.2359 263.126)" stroke="url(#paint0_linear_57_4219)" stroke-width="10" stroke-linejoin="bevel"/>
<rect id="Rectangle 3" width="119.791" height="119.791" transform="matrix(0.866025 -0.5 2.20305e-08 1 154.831 175.809)" fill="url(#paint1_linear_57_4219)"/>
<rect id="Rectangle 2" width="119.791" height="119.791" transform="matrix(0.866025 0.5 -2.20305e-08 1 51.089 115.913)" fill="url(#paint2_linear_57_4219)"/>
<rect id="Rectangle 1" width="119.791" height="119.791" transform="matrix(0.866025 -0.5 0.866025 0.5 51.089 115.913)" fill="url(#paint3_linear_57_4219)"/>
<g id="Rectangle 8" style="mix-blend-mode:screen" opacity="0.4">
<rect width="119.791" height="119.791" transform="matrix(0.866025 -0.5 0.866025 0.5 51.4764 160.16)" fill="url(#paint4_linear_57_4219)"/>
</g>
<g id="Rectangle 9" style="mix-blend-mode:screen" opacity="0.4">
<rect width="119.791" height="119.791" transform="matrix(0.866025 -0.5 0.866025 0.5 51.4764 203.211)" fill="url(#paint5_linear_57_4219)"/>
</g>
<rect id="Rectangle 4" width="173.005" height="172.592" transform="matrix(0.866025 -0.5 0.866025 0.5 5.2359 89.5023)" stroke="url(#paint6_linear_57_4219)" stroke-width="10" stroke-linejoin="bevel"/>
<rect id="Rectangle 6" width="172.592" height="173.834" transform="matrix(0.866025 -0.5 2.20305e-08 1 155.531 175.798)" stroke="url(#paint7_linear_57_4219)" stroke-width="10" stroke-linejoin="bevel"/>
<path id="Rectangle 5" d="M5.2359 93.5349C5.2359 91.8781 6.3991 91.2065 7.83398 92.0349L151.281 174.854C152.716 175.683 153.879 177.697 153.879 179.354L153.879 345.802C153.879 347.459 152.716 348.131 151.281 347.302L7.83397 264.483C6.39909 263.655 5.2359 261.64 5.2359 259.983L5.2359 93.5349Z" stroke="url(#paint8_linear_57_4219)" stroke-width="10" stroke-linejoin="round"/>
</g>
<defs>
<linearGradient id="paint0_linear_57_4219" x1="86.5344" y1="0" x2="86.5344" y2="173.069" gradientUnits="userSpaceOnUse">
<stop stop-color="#306ECB"/>
<stop offset="1" stop-color="#361DCC"/>
</linearGradient>
<linearGradient id="paint1_linear_57_4219" x1="142.294" y1="62.836" x2="15.6662" y2="153.107" gradientUnits="userSpaceOnUse">
<stop stop-color="#306ECB"/>
<stop offset="1" stop-color="#361DCC"/>
</linearGradient>
<linearGradient id="paint2_linear_57_4219" x1="143.948" y1="-33.8588" x2="-58.3749" y2="-21.7519" gradientUnits="userSpaceOnUse">
<stop stop-color="#306ECB"/>
<stop offset="1" stop-color="#361DCC"/>
</linearGradient>
<linearGradient id="paint3_linear_57_4219" x1="95.3037" y1="95.3037" x2="87.0194" y2="-46.4964" gradientUnits="userSpaceOnUse">
<stop stop-color="#306ECB"/>
<stop offset="1" stop-color="#361DCC"/>
</linearGradient>
<linearGradient id="paint4_linear_57_4219" x1="95.3037" y1="95.3037" x2="87.0194" y2="-46.4964" gradientUnits="userSpaceOnUse">
<stop stop-color="#306ECB"/>
<stop offset="1" stop-color="#361DCC"/>
</linearGradient>
<linearGradient id="paint5_linear_57_4219" x1="95.3037" y1="95.3037" x2="87.0194" y2="-46.4964" gradientUnits="userSpaceOnUse">
<stop stop-color="#306ECB"/>
<stop offset="1" stop-color="#361DCC"/>
</linearGradient>
<linearGradient id="paint6_linear_57_4219" x1="86.5023" y1="0" x2="86.5023" y2="172.592" gradientUnits="userSpaceOnUse">
<stop stop-color="#306ECB"/>
<stop offset="1" stop-color="#361DCC"/>
</linearGradient>
<linearGradient id="paint7_linear_57_4219" x1="86.296" y1="0" x2="86.296" y2="173.834" gradientUnits="userSpaceOnUse">
<stop stop-color="#306ECB"/>
<stop offset="1" stop-color="#361DCC"/>
</linearGradient>
<linearGradient id="paint8_linear_57_4219" x1="79.5576" y1="133.445" x2="4.88532" y2="262.781" gradientUnits="userSpaceOnUse">
<stop stop-color="#306ECB"/>
<stop offset="1" stop-color="#361DCC"/>
</linearGradient>
</defs>
</svg>
